<svg xmlns="http://www.w3.org/2000/svg" xmlns:xlink="http://www.w3.org/1999/xlink" width="1366" height="670" viewBox="0 0 1366 670">
  <defs>
    <clipPath id="clip-path">
      <rect id="Rectangle_234778" data-name="Rectangle 234778" width="1366" height="670" transform="translate(1535 -4596)" fill="#fff"/>
    </clipPath>
    <linearGradient id="linear-gradient" x1="0.342" y1="0.5" x2="0.934" y2="0.5" gradientUnits="objectBoundingBox">
      <stop offset="0" stop-color="#f1e8ff"/>
      <stop offset="1" stop-color="#e9f8fd"/>
    </linearGradient>
    <filter id="slider-mainbg-005" x="-9" y="-6" width="1384" height="688" filterUnits="userSpaceOnUse">
      <feOffset dy="3" input="SourceAlpha"/>
      <feGaussianBlur stdDeviation="3" result="blur"/>
      <feFlood flood-opacity="0.11"/>
      <feComposite operator="in" in2="blur"/>
      <feComposite in="SourceGraphic"/>
    </filter>
    <linearGradient id="linear-gradient-2" x1="0.906" y1="0.608" x2="0.283" y2="0.707" gradientUnits="objectBoundingBox">
      <stop offset="0" stop-color="#9c5dfb"/>
      <stop offset="1" stop-color="#e27ba1" stop-opacity="0.941"/>
    </linearGradient>
    <clipPath id="clip-path-2">
      <circle id="Ellipse_400" data-name="Ellipse 400" cx="248.132" cy="248.132" r="248.132" transform="translate(1143 1923)" fill="rgba(36,124,255,0.05)"/>
    </clipPath>
  </defs>
  <g id="Mask_Group_283157" data-name="Mask Group 283157" transform="translate(-1535 4596)" clip-path="url(#clip-path)">
    <g id="Group_274432" data-name="Group 274432" transform="translate(1535 -4691)">
      <g transform="matrix(1, 0, 0, 1, 0, 95)" filter="url(#slider-mainbg-005)">
        <rect id="slider-mainbg-005-2" data-name="slider-mainbg-005" width="1366" height="670" fill="url(#linear-gradient)"/>
      </g>
      <ellipse id="Ellipse_20" data-name="Ellipse 20" cx="236.5" cy="243" rx="236.5" ry="243" transform="translate(829 115)" opacity="0.51" fill="url(#linear-gradient-2)"/>
    </g>
    <g id="Mask_Group_15" data-name="Mask Group 15" transform="translate(-940.9 -4893.632) rotate(-45)" opacity="0.7" clip-path="url(#clip-path-2)" style="mix-blend-mode: multiply;isolation: isolate">
      <path id="Union_7" data-name="Union 7" d="M0,514.077V480.993H524.258v33.083Zm0-53.443V427.548H524.258v33.086Zm0-53.443V374.105H524.258v33.086Zm0-53.445V320.662H524.258v33.083ZM0,300.3V267.217H524.258V300.3ZM0,246.86V213.774H524.258V246.86Zm0-53.445V160.331H524.258v33.083Zm0-53.443V106.886H524.258v33.086ZM0,86.528V53.443H524.258V86.528ZM0,33.083V0H524.258V33.083Z" transform="translate(1130.274 1912.821)" fill="rgba(36,124,255,0.05)"/>
    </g>
  </g>
</svg>
