<svg xmlns="http://www.w3.org/2000/svg" xmlns:xlink="http://www.w3.org/1999/xlink" width="284.79" height="288" viewBox="0 0 284.79 288">
  <defs>
    <clipPath id="clip-path">
      <rect id="Rectangle_234777" data-name="Rectangle 234777" width="284.79" height="288" fill="none"/>
    </clipPath>
    <clipPath id="clip-path-3">
      <rect id="Rectangle_234721" data-name="Rectangle 234721" width="129.105" height="87.357" fill="#9d61ff"/>
    </clipPath>
    <clipPath id="clip-path-4">
      <rect id="Rectangle_234722" data-name="Rectangle 234722" width="162.065" height="93.568" fill="none"/>
    </clipPath>
    <clipPath id="clip-path-5">
      <rect id="Rectangle_234723" data-name="Rectangle 234723" width="33.533" height="30.574" fill="none"/>
    </clipPath>
    <clipPath id="clip-path-6">
      <rect id="Rectangle_234724" data-name="Rectangle 234724" width="57.161" height="21.885" fill="none"/>
    </clipPath>
    <clipPath id="clip-path-8">
      <rect id="Rectangle_234726" data-name="Rectangle 234726" width="57.154" height="32.739" fill="none"/>
    </clipPath>
    <clipPath id="clip-path-9">
      <rect id="Rectangle_234727" data-name="Rectangle 234727" width="43.022" height="24.483" fill="none"/>
    </clipPath>
    <clipPath id="clip-path-10">
      <rect id="Rectangle_234728" data-name="Rectangle 234728" width="15.001" height="8.598" fill="none"/>
    </clipPath>
    <clipPath id="clip-path-11">
      <rect id="Rectangle_234729" data-name="Rectangle 234729" width="36.597" height="21.885" fill="none"/>
    </clipPath>
    <clipPath id="clip-path-13">
      <rect id="Rectangle_234732" data-name="Rectangle 234732" width="41.526" height="45.844" fill="none"/>
    </clipPath>
    <clipPath id="clip-path-14">
      <rect id="Rectangle_234733" data-name="Rectangle 234733" width="5.204" height="25.202" fill="none"/>
    </clipPath>
    <clipPath id="clip-path-16">
      <rect id="Rectangle_234735" data-name="Rectangle 234735" width="63.2" height="142.196" fill="none"/>
    </clipPath>
    <clipPath id="clip-path-17">
      <rect id="Rectangle_234736" data-name="Rectangle 234736" width="63.179" height="43.886" fill="#d9c2fe"/>
    </clipPath>
    <clipPath id="clip-path-18">
      <rect id="Rectangle_234738" data-name="Rectangle 234738" width="10.522" height="11.866" fill="none"/>
    </clipPath>
    <clipPath id="clip-path-25">
      <rect id="Rectangle_234745" data-name="Rectangle 234745" width="8.655" height="10.534" fill="#9d61ff"/>
    </clipPath>
    <clipPath id="clip-path-26">
      <rect id="Rectangle_234746" data-name="Rectangle 234746" width="8.655" height="10.533" fill="none"/>
    </clipPath>
    <clipPath id="clip-path-27">
      <rect id="Rectangle_234747" data-name="Rectangle 234747" width="63.2" height="100.67" fill="none"/>
    </clipPath>
    <clipPath id="clip-path-28">
      <rect id="Rectangle_234748" data-name="Rectangle 234748" width="63.178" height="43.885" fill="none"/>
    </clipPath>
    <clipPath id="clip-path-29">
      <rect id="Rectangle_234749" data-name="Rectangle 234749" width="62.005" height="35.934" fill="none"/>
    </clipPath>
    <clipPath id="clip-path-30">
      <rect id="Rectangle_234750" data-name="Rectangle 234750" width="52.697" height="69.151" fill="none"/>
    </clipPath>
    <clipPath id="clip-path-32">
      <rect id="Rectangle_234752" data-name="Rectangle 234752" width="40.664" height="40.543" fill="none"/>
    </clipPath>
    <clipPath id="clip-path-33">
      <rect id="Rectangle_234753" data-name="Rectangle 234753" width="39.05" height="60.529" fill="none"/>
    </clipPath>
    <clipPath id="clip-path-34">
      <rect id="Rectangle_234754" data-name="Rectangle 234754" width="3.582" height="38.731" fill="#9d61ff"/>
    </clipPath>
    <clipPath id="clip-path-35">
      <rect id="Rectangle_234755" data-name="Rectangle 234755" width="39.049" height="22.506" fill="#d9c2fe"/>
    </clipPath>
    <clipPath id="clip-path-36">
      <rect id="Rectangle_234756" data-name="Rectangle 234756" width="13.267" height="22.478" fill="none"/>
    </clipPath>
    <clipPath id="clip-path-37">
      <rect id="Rectangle_234757" data-name="Rectangle 234757" width="11.799" height="8.989" fill="none"/>
    </clipPath>
    <clipPath id="clip-path-38">
      <rect id="Rectangle_234758" data-name="Rectangle 234758" width="2.34" height="4.012" fill="none"/>
    </clipPath>
    <clipPath id="clip-path-40">
      <rect id="Rectangle_234760" data-name="Rectangle 234760" width="39.049" height="60.529" fill="none"/>
    </clipPath>
    <clipPath id="clip-path-41">
      <rect id="Rectangle_234763" data-name="Rectangle 234763" width="5.812" height="8.446" fill="none"/>
    </clipPath>
    <clipPath id="clip-path-42">
      <rect id="Rectangle_234764" data-name="Rectangle 234764" width="13.107" height="64.183" fill="none"/>
    </clipPath>
    <clipPath id="clip-path-43">
      <rect id="Rectangle_234765" data-name="Rectangle 234765" width="10.4" height="62.62" fill="none"/>
    </clipPath>
    <clipPath id="clip-path-44">
      <rect id="Rectangle_234766" data-name="Rectangle 234766" width="2.708" height="54.413" fill="none"/>
    </clipPath>
    <clipPath id="clip-path-45">
      <rect id="Rectangle_234767" data-name="Rectangle 234767" width="6.002" height="8.607" fill="none"/>
    </clipPath>
    <clipPath id="clip-path-46">
      <rect id="Rectangle_234770" data-name="Rectangle 234770" width="15.278" height="29.624" fill="none"/>
    </clipPath>
    <clipPath id="clip-path-47">
      <rect id="Rectangle_234771" data-name="Rectangle 234771" width="7.4" height="16.627" fill="none"/>
    </clipPath>
    <clipPath id="clip-path-48">
      <rect id="Rectangle_234772" data-name="Rectangle 234772" width="15.278" height="29.623" fill="none"/>
    </clipPath>
    <clipPath id="clip-path-49">
      <rect id="Rectangle_234773" data-name="Rectangle 234773" width="19.433" height="32.324" fill="none"/>
    </clipPath>
    <clipPath id="clip-path-50">
      <rect id="Rectangle_234774" data-name="Rectangle 234774" width="15.278" height="29.624" fill="#9d61ff"/>
    </clipPath>
    <clipPath id="clip-path-51">
      <rect id="Rectangle_234775" data-name="Rectangle 234775" width="5.379" height="23.74" fill="none"/>
    </clipPath>
  </defs>
  <g id="Group_283277" data-name="Group 283277" clip-path="url(#clip-path)">
    <g id="Group_283276" data-name="Group 283276">
      <g id="Group_283275" data-name="Group 283275" clip-path="url(#clip-path)">
        <path id="Path_582064" data-name="Path 582064" d="M177.235,336.539c-3.307,2.595-6.748,5.2-10.679,6.169s-8.51-.065-10.962-3.679c-3.836-5.656-1.837-15.713,1.618-20.827a39.481,39.481,0,0,1,3.8-4.79c11.006-11.835,27.232-13.819,41.577-10.739a56.011,56.011,0,0,1,14.884,5.55c4.929,2.523,9.641,6.325,12.237,11.227a6.935,6.935,0,0,1-.368,7.387c-1.054,1.352-3.218,2.809-6.928,3.584-4.8,1-9.971.159-16.869-.74-4.981-.649-10.111-1.071-15.061.092a33.585,33.585,0,0,0-13.247,6.763" transform="translate(-47.694 -93.637)" fill="#e0e0e0"/>
        <path id="Path_582065" data-name="Path 582065" d="M158.224,371.817a6.53,6.53,0,0,1-6.332-5.243l-1.648-8.68a92.212,92.212,0,0,1-10.926-2.662,1.345,1.345,0,0,0-.16-.008,1.813,1.813,0,0,0-.344.031L124.048,362.1a7.712,7.712,0,0,1-3.219.673,7.955,7.955,0,0,1-3.924-.994l-14.651-8.458a5.31,5.31,0,0,1-.456-9.091l9.285-6.682a32.442,32.442,0,0,1-2.622-3.93l-18.94-1.2a6.2,6.2,0,0,1-5.794-6.173V315.348a6.2,6.2,0,0,1,5.794-6.173l18.939-1.2a32.457,32.457,0,0,1,2.622-3.93l-9.286-6.681a5.311,5.311,0,0,1,.455-9.091l14.654-8.461a7.965,7.965,0,0,1,3.923-.993,7.708,7.708,0,0,1,3.219.673l14.767,6.841a1.791,1.791,0,0,0,.343.032,1.329,1.329,0,0,0,.16-.008,91.805,91.805,0,0,1,10.926-2.661l1.647-8.681a6.534,6.534,0,0,1,6.331-5.242h21.545a6.531,6.531,0,0,1,6.333,5.243l1.648,8.679a92.013,92.013,0,0,1,10.926,2.662,1.342,1.342,0,0,0,.159.008,1.778,1.778,0,0,0,.342-.032l14.768-6.84a7.7,7.7,0,0,1,3.22-.673,7.957,7.957,0,0,1,3.922.993l14.652,8.46a5.311,5.311,0,0,1,.457,9.091l-9.286,6.682a32.458,32.458,0,0,1,2.622,3.93l18.943,1.2a6.2,6.2,0,0,1,5.792,6.173v10.893a6.194,6.194,0,0,1-5.793,6.172l-18.941,1.2a32.453,32.453,0,0,1-2.623,3.93l9.286,6.682a5.309,5.309,0,0,1-.455,9.09l-14.653,8.461a7.965,7.965,0,0,1-3.923.993,7.705,7.705,0,0,1-3.219-.673l-14.766-6.841a1.763,1.763,0,0,0-.345-.031,1.37,1.37,0,0,0-.158.008,91.982,91.982,0,0,1-10.926,2.663l-1.648,8.683a6.54,6.54,0,0,1-6.331,5.239ZM136.032,304.21c-8,4.621-12.413,10.511-12.413,16.585s4.408,11.964,12.413,16.585c8.737,5.044,20.444,7.822,32.965,7.822s24.226-2.777,32.962-7.821c8-4.621,12.412-10.511,12.412-16.585s-4.408-11.965-12.413-16.587c-8.738-5.044-20.443-7.822-32.963-7.822s-24.226,2.779-32.963,7.822" transform="translate(-26.013 -83.817)" fill="#e0e0e0"/>
        <path id="Path_582066" data-name="Path 582066" d="M105.6,275.039l0,0,.036,12.718.006,0a1.228,1.228,0,0,0,.58.973l6.7,4.823a3.269,3.269,0,0,1-1.7.718L91.7,295.507a1.972,1.972,0,0,0-1.825,1.943v10.894c0,.019.009.034.01.052l.025,12.65a1.975,1.975,0,0,0,1.825,1.944l19.527,1.235a3.257,3.257,0,0,1,1.662.691l-6.74,4.85a1.227,1.227,0,0,0-.581.973H105.6l.035,12.738h0a1.2,1.2,0,0,0,.684.973l14.653,8.459a3.95,3.95,0,0,0,3.242.146l14.853-6.881a5.45,5.45,0,0,1,3.4-.2A88.249,88.249,0,0,0,154,348.714a2.806,2.806,0,0,1,2.146,2.086L158,360.587a2.294,2.294,0,0,0,2.169,1.8h21.544a2.3,2.3,0,0,0,2.17-1.8l1.858-9.788a2.808,2.808,0,0,1,2.147-2.086,88.174,88.174,0,0,0,11.532-2.741,5.443,5.443,0,0,1,3.4.2l14.853,6.881a3.955,3.955,0,0,0,3.243-.145l14.653-8.46a1.2,1.2,0,0,0,.682-.995h0l-.035-12.715h-.006a1.226,1.226,0,0,0-.581-.975l-6.7-4.823a3.276,3.276,0,0,1,1.694-.718l19.527-1.235a1.973,1.973,0,0,0,1.825-1.944l-.03-15.278c0-.007,0-.012,0-.019v-8.3a1.973,1.973,0,0,0-1.825-1.944l-19.526-1.237a3.253,3.253,0,0,1-1.663-.691l6.74-4.85a1.224,1.224,0,0,0,.582-.987h0l-.035-12.7h0a1.194,1.194,0,0,0-.681-1l-14.654-8.46a3.952,3.952,0,0,0-3.243-.145l-14.853,6.881a5.45,5.45,0,0,1-3.4.2,87.88,87.88,0,0,0-11.529-2.741,2.807,2.807,0,0,1-2.147-2.086l-1.859-9.788a2.3,2.3,0,0,0-2.169-1.8H160.133a2.293,2.293,0,0,0-2.169,1.8l-1.859,9.787a2.805,2.805,0,0,1-2.146,2.086,88.208,88.208,0,0,0-11.531,2.741,5.445,5.445,0,0,1-3.4-.2l-14.853-6.881a3.95,3.95,0,0,0-3.242.145l-14.654,8.46a1.2,1.2,0,0,0-.681.993m100.389,48.114c-19.375,11.186-50.79,11.185-70.165,0-7.577-4.374-12.176-9.812-13.827-15.482,2.094-4.621,6.727-9.135,13.834-13.238,19.376-11.187,50.788-11.187,70.164,0,7.58,4.376,12.019,9.244,13.51,14.219-1.878,5.315-6.377,10.381-13.516,14.5" transform="translate(-27.923 -79.573)" fill="#ba68c8"/>
        <g id="Group_283112" data-name="Group 283112" transform="translate(61.963 195.458)" opacity="0.2">
          <g id="Group_283111" data-name="Group 283111">
            <g id="Group_283110" data-name="Group 283110" clip-path="url(#clip-path-3)">
              <path id="Path_582067" data-name="Path 582067" d="M89.912,329.58a1.965,1.965,0,0,0,1.829,1.933l19.529,1.243a2.761,2.761,0,0,1,.957.278l-.023-12.722a2.635,2.635,0,0,0-.982-.263L91.7,318.818a2.014,2.014,0,0,1-1.809-1.7ZM105.629,296.3l.013-.008a1.26,1.26,0,0,0,.58.977l6.718,4.821a3.782,3.782,0,0,0,.923-1.047,29.025,29.025,0,0,1,3.935-5.493,2.061,2.061,0,0,1,.216-.258,1.852,1.852,0,0,0,.392-.674,2.137,2.137,0,0,0,.055-.248,1.492,1.492,0,0,0-.381-1.207,1.156,1.156,0,0,0-.279-.254l-11.613-8.354a1.51,1.51,0,0,1-.265-.229.8.8,0,0,1-.235-.378.78.78,0,0,1-.075-.389l-.012.008Zm.008,55.715a1.189,1.189,0,0,0,.689.964l14.648,8.461a3.833,3.833,0,0,0,2.265.386l-.021-12.689a3.858,3.858,0,0,1-2.272-.4l-14.66-8.454a1.3,1.3,0,0,1-.685-.9Zm95.725,2.346a4.676,4.676,0,0,1,1.457.338l14.849,6.883a3.638,3.638,0,0,0,1.33.262l-.033-12.682a3.09,3.09,0,0,1-1.324-.281L202.79,342a4.731,4.731,0,0,0-1.463-.35Zm-43.069,15.469a2.309,2.309,0,0,0,1.888,1.085l21.536,0a2.249,2.249,0,0,0,1.3-.471L183,357.735a2.188,2.188,0,0,1-1.317.478l-21.555-.008a2.258,2.258,0,0,1-1.8-.968Z" transform="translate(-89.892 -283.558)" fill="#9d61ff"/>
            </g>
          </g>
        </g>
        <path id="Path_582068" data-name="Path 582068" d="M120.934,265.586l-14.654,8.461a1.092,1.092,0,0,0-.1,1.982l11.613,8.356a1.549,1.549,0,0,1,.215,2.384,29.176,29.176,0,0,0-4.146,5.752,3.6,3.6,0,0,1-2.638,1.752L91.7,295.507a1.974,1.974,0,0,0-1.825,1.944v10.894a1.973,1.973,0,0,0,1.825,1.944l19.527,1.236a3.605,3.605,0,0,1,2.638,1.753,29.213,29.213,0,0,0,4.146,5.751,1.547,1.547,0,0,1-.215,2.383l-11.613,8.356a1.092,1.092,0,0,0,.1,1.982l14.653,8.46a3.946,3.946,0,0,0,3.242.145l14.854-6.881a5.447,5.447,0,0,1,3.4-.2,88.173,88.173,0,0,0,11.531,2.741,2.8,2.8,0,0,1,2.146,2.085l1.858,9.789a2.3,2.3,0,0,0,2.17,1.8h21.545a2.3,2.3,0,0,0,2.17-1.8l1.858-9.787a2.808,2.808,0,0,1,2.147-2.086,88.173,88.173,0,0,0,11.531-2.742,5.448,5.448,0,0,1,3.4.2l14.853,6.881a3.947,3.947,0,0,0,3.242-.145l14.653-8.46a1.092,1.092,0,0,0,.1-1.982l-11.613-8.356a1.548,1.548,0,0,1-.215-2.384,29.233,29.233,0,0,0,4.148-5.752,3.607,3.607,0,0,1,2.638-1.752l19.527-1.236a1.972,1.972,0,0,0,1.825-1.943V297.452a1.974,1.974,0,0,0-1.825-1.944l-19.526-1.237a3.606,3.606,0,0,1-2.639-1.752,29.2,29.2,0,0,0-4.147-5.751,1.548,1.548,0,0,1,.216-2.384l11.613-8.356a1.092,1.092,0,0,0-.1-1.982l-14.653-8.461a3.952,3.952,0,0,0-3.243-.145l-14.854,6.881a5.443,5.443,0,0,1-3.4.2,88.1,88.1,0,0,0-11.529-2.741,2.806,2.806,0,0,1-2.147-2.085l-1.859-9.788a2.294,2.294,0,0,0-2.17-1.8H160.133a2.294,2.294,0,0,0-2.169,1.8l-1.858,9.788a2.807,2.807,0,0,1-2.147,2.086,88.141,88.141,0,0,0-11.531,2.741,5.448,5.448,0,0,1-3.4-.2l-14.853-6.881a3.95,3.95,0,0,0-3.242.145m85.053,17.057c19.375,11.186,19.376,29.325,0,40.511s-50.789,11.185-70.165,0-19.375-29.322,0-40.509,50.787-11.185,70.163,0" transform="translate(-27.923 -79.573)" fill="#ba68c8"/>
        <g id="Group_283115" data-name="Group 283115" transform="translate(61.95 176.541)" opacity="0.3">
          <g id="Group_283114" data-name="Group 283114">
            <g id="Group_283113" data-name="Group 283113" clip-path="url(#clip-path-4)">
              <path id="Path_582069" data-name="Path 582069" d="M120.934,265.586l-14.654,8.461a1.092,1.092,0,0,0-.1,1.982l11.613,8.356a1.549,1.549,0,0,1,.215,2.384,29.176,29.176,0,0,0-4.146,5.752,3.6,3.6,0,0,1-2.638,1.752L91.7,295.507a1.974,1.974,0,0,0-1.825,1.944v10.894a1.973,1.973,0,0,0,1.825,1.944l19.527,1.236a3.605,3.605,0,0,1,2.638,1.753,29.213,29.213,0,0,0,4.146,5.751,1.547,1.547,0,0,1-.215,2.383l-11.613,8.356a1.092,1.092,0,0,0,.1,1.982l14.653,8.46a3.946,3.946,0,0,0,3.242.145l14.854-6.881a5.447,5.447,0,0,1,3.4-.2,88.173,88.173,0,0,0,11.531,2.741,2.8,2.8,0,0,1,2.146,2.085l1.858,9.789a2.3,2.3,0,0,0,2.17,1.8h21.545a2.3,2.3,0,0,0,2.17-1.8l1.858-9.787a2.808,2.808,0,0,1,2.147-2.086,88.173,88.173,0,0,0,11.531-2.742,5.448,5.448,0,0,1,3.4.2l14.853,6.881a3.947,3.947,0,0,0,3.242-.145l14.653-8.46a1.092,1.092,0,0,0,.1-1.982l-11.613-8.356a1.548,1.548,0,0,1-.215-2.384,29.233,29.233,0,0,0,4.148-5.752,3.607,3.607,0,0,1,2.638-1.752l19.527-1.236a1.972,1.972,0,0,0,1.825-1.943V297.452a1.974,1.974,0,0,0-1.825-1.944l-19.526-1.237a3.606,3.606,0,0,1-2.639-1.752,29.2,29.2,0,0,0-4.147-5.751,1.548,1.548,0,0,1,.216-2.384l11.613-8.356a1.092,1.092,0,0,0-.1-1.982l-14.653-8.461a3.952,3.952,0,0,0-3.243-.145l-14.854,6.881a5.443,5.443,0,0,1-3.4.2,88.1,88.1,0,0,0-11.529-2.741,2.806,2.806,0,0,1-2.147-2.085l-1.859-9.788a2.294,2.294,0,0,0-2.17-1.8H160.133a2.294,2.294,0,0,0-2.169,1.8l-1.858,9.788a2.807,2.807,0,0,1-2.147,2.086,88.141,88.141,0,0,0-11.531,2.741,5.448,5.448,0,0,1-3.4-.2l-14.853-6.881a3.95,3.95,0,0,0-3.242.145m85.053,17.057c19.375,11.186,19.376,29.325,0,40.511s-50.789,11.185-70.165,0-19.375-29.322,0-40.509,50.787-11.185,70.163,0" transform="translate(-89.873 -256.114)" fill="#fff"/>
            </g>
          </g>
        </g>
        <path id="Path_582070" data-name="Path 582070" d="M167.163,259.1c.852-9.047-.446-10.845.609-24.978.145-3.625.358-7.507.675-10.954,1.066-11.595,2.941-15.527,3.154-17.765,0,0,.692-18.061,1.991-43.455.611-11.946,4.152-15.492,7.054-21.777l32.9.7c3.342,15.734,3.662,49.9,3.209,66.03-.232,8.226-3.791,44.023-3.879,45.034-.312,3.586-.028,5.01,1.347,6.55,2.881,3.225,7.089,6.326,10.724,9.162-.565,1.4-5.652,1.916-7.828.793a56.09,56.09,0,0,1-8.087-5.4c-2.987-2.311-6.827-4.2-6.8-7.616a3.556,3.556,0,0,0-.089-.612c-.015-2-4.092-24.057-4.334-30.9-.208-5.88.719-15.832.719-15.832l-3.26-24.96s-2.649,14.655-5.226,24.646c-2.1,8.132-5.567,22.01-7.946,32.023-2.326,11.543-4.475,14.846-5.126,20.636-.189,1.381-2.44,14.912-3.154,18.012s-7.5,3.038-7.823-2.327c-.214-3.571,1.019-15.312,1.179-17.015" transform="translate(-51.562 -43.55)" fill="#ffa8a7"/>
        <path id="Path_582071" data-name="Path 582071" d="M208.467,192.3l3.152-17.888s10.738-1.043,14.713-4.7c0,0-5.059,6.826-12.35,7.8l-3.371,14.812,1.088,24.724Z" transform="translate(-64.769 -52.728)" fill="#f28f8f"/>
        <path id="Path_582072" data-name="Path 582072" d="M246.007,327.86a2.93,2.93,0,0,1-.58,2.945,12.583,12.583,0,0,1-9.225,2c-4.563-.639-7.021-2.078-8.833-3.627s-4.351-3.735-6.413-4.212a12.5,12.5,0,0,1-4.6-1.935c-.608-.6-.494-3.237-.494-3.237Z" transform="translate(-67.065 -99.356)" fill="#263238"/>
        <path id="Path_582073" data-name="Path 582073" d="M217.564,305.079s-.345.008-.469.617c-.148.725-.323,2.838-.637,4.028a21.328,21.328,0,0,0-.517,6.4c.238,1.354,3.357,2.326,5.348,3.109a25.434,25.434,0,0,1,6.435,4.16,18.851,18.851,0,0,0,9.6,3.691c4.545.115,7.5-1.087,8.427-2.711,1.146-2.009.924-3.85-4.274-6.326-.984-.468-4.436-2.561-5.611-3.318a26.833,26.833,0,0,1-3.526-2.683,20.4,20.4,0,0,1-1.578-1.6,7.161,7.161,0,0,1-1.306-1.7c-.058-.139-.1-.3-.148-.444a7.551,7.551,0,0,1-.327-1.228c-.079-.435-.126-1.068-.536-1.333a3.481,3.481,0,0,0-1.865-.241,22.39,22.39,0,0,0-2.832.525,2.622,2.622,0,0,0-1.957,1.339,3.834,3.834,0,0,0-.45,1.887c-.016.3-.012.612-.019.917,0,.13.05.365-.132.308s-.363-.511-.427-.667c-.141-.343-.23-.709-.385-1.047a5.512,5.512,0,0,0-.638-1.113,5.114,5.114,0,0,0-.818-.851,8.894,8.894,0,0,1-.889-.589,2.1,2.1,0,0,1-.473-1.139" transform="translate(-67.066 -94.786)" fill="#37474f"/>
        <path id="Path_582074" data-name="Path 582074" d="M249.892,324.489c-6.586.384-9.348,5.086-9.654,7.6a15.544,15.544,0,0,0,4.662,1.031c4.545.114,7.688-1.084,8.615-2.708,1.081-1.895,1.023-4.1-3.624-5.921" transform="translate(-74.64 -100.817)" fill="#fff"/>
        <path id="Path_582075" data-name="Path 582075" d="M238.849,323.817a.321.321,0,0,1-.243-.527c.928-1.112,4.232-3.229,6.621-2.943a.321.321,0,0,1-.075.638c-2.23-.261-5.317,1.835-6.053,2.717a.32.32,0,0,1-.25.115" transform="translate(-74.11 -99.521)" fill="#f0f0f0"/>
        <path id="Path_582076" data-name="Path 582076" d="M234.763,321.377a.321.321,0,0,1-.243-.527c.929-1.113,4.234-3.234,6.622-2.943a.321.321,0,0,1-.076.638c-2.229-.263-5.317,1.835-6.052,2.717a.321.321,0,0,1-.25.115" transform="translate(-72.84 -98.763)" fill="#f0f0f0"/>
        <path id="Path_582077" data-name="Path 582077" d="M230.983,318.6a.322.322,0,0,1-.243-.528c.928-1.113,4.243-3.231,6.621-2.943a.321.321,0,1,1-.076.638c-2.227-.261-5.317,1.836-6.053,2.717a.318.318,0,0,1-.25.116" transform="translate(-71.666 -97.9)" fill="#f0f0f0"/>
        <path id="Path_582078" data-name="Path 582078" d="M227.28,315.813a.318.318,0,0,1-.2-.072.321.321,0,0,1-.048-.452,9.746,9.746,0,0,1,7.169-2.97.321.321,0,0,1-.075.638,9.212,9.212,0,0,0-6.595,2.737.32.32,0,0,1-.253.119" transform="translate(-70.515 -97.025)" fill="#f0f0f0"/>
        <path id="Path_582079" data-name="Path 582079" d="M174.631,341.969c-.261,3.275-.816,5.438-2.021,7.336a4.832,4.832,0,0,1-5.623,1.845c-2.211-.611-5.026-2.177-5.6-5.019a17.924,17.924,0,0,1-.337-7.819Z" transform="translate(-49.944 -105.112)" fill="#263238"/>
        <path id="Path_582080" data-name="Path 582080" d="M165.845,308.756c-.917.052-1.257,4.536-1.878,8.933-.667,4.713-2.119,6.637-2.708,10.5-.671,4.414.019,6.407,1.512,9.116s6.928,5.452,9.716,1.676c2.272-3.078,2.437-6.542,2.33-10.966a98.453,98.453,0,0,1,.534-11.194c.249-3.31,1.447-7,.658-7.388-.144.741-.288,1.331-.363,1.807a9.643,9.643,0,0,1-.582,1.9c-.1.245-.308.5-.383.1a2.625,2.625,0,0,1,.018-.824c.16-1.217-.453-1.33-.783-1.432a40.173,40.173,0,0,0-4.236-.693c-.7-.063-3.112-.219-3.434.172a2.736,2.736,0,0,0-.335,1.274c-.092.665-.257,1.149-.272.94-.034-.478.038-1.463.056-1.763s.068-.9.079-1.19.046-.682.071-.964" transform="translate(-50.022 -95.928)" fill="#37474f"/>
        <path id="Path_582081" data-name="Path 582081" d="M160.908,340.107a11.041,11.041,0,0,0,1.57,6.762c1.493,2.71,7.37,5.47,10.158,1.694a12.579,12.579,0,0,0,2.029-6.422c-1.559-2.99-11.145-4.495-13.757-2.035" transform="translate(-49.98 -105.286)" fill="#fff"/>
        <path id="Path_582082" data-name="Path 582082" d="M174.122,335.694a.336.336,0,0,1-.112-.034,15.58,15.58,0,0,0-8.382-.994.34.34,0,1,1-.139-.666,15.984,15.984,0,0,1,8.827,1.053.34.34,0,0,1-.194.641" transform="translate(-51.332 -103.694)" fill="#f0f0f0"/>
        <path id="Path_582083" data-name="Path 582083" d="M166.076,329.815a.34.34,0,0,1-.061-.662c4.135-1.3,8.648.881,8.818.975a.337.337,0,0,1,.133.46.344.344,0,0,1-.461.134c-.038-.021-4.436-2.139-8.284-.921a.344.344,0,0,1-.144.013" transform="translate(-51.506 -102.137)" fill="#f0f0f0"/>
        <path id="Path_582084" data-name="Path 582084" d="M166.382,325.265a.34.34,0,0,1-.067-.659,12,12,0,0,1,8.986.953.34.34,0,0,1-.365.573c-.035-.023-4.169-2.3-8.4-.882a.35.35,0,0,1-.15.015" transform="translate(-51.601 -100.695)" fill="#f0f0f0"/>
        <path id="Path_582085" data-name="Path 582085" d="M166.8,320.842a.34.34,0,0,1-.072-.658c4.266-1.494,8.872.943,9.044,1.049a.339.339,0,1,1-.351.58c-.04-.023-4.507-2.377-8.468-.988a.348.348,0,0,1-.154.017" transform="translate(-51.732 -99.329)" fill="#ebebeb"/>
        <path id="Path_582086" data-name="Path 582086" d="M178.567,140.1c-4.048,7.025-6.271,12.791-7.116,33.915s-1.113,27.614-1.249,30.161-2.663,6.3-3.213,18.157c-.679,14.617-.11,26.149-.11,26.149s1.418,2.165,6.209,2.7a12.376,12.376,0,0,0,7.158-1.113s6.355-22.1,8.2-29.622,6.928-32.286,6.928-32.286l2.466,20.224s-1.5,6.9-.382,17.934,2.8,19.834,2.8,19.834a20.8,20.8,0,0,0,7.283,1.563,15.083,15.083,0,0,0,6.677-1.556s3.736-30.325,4-42.8.017-44.3-2.422-62.832Z" transform="translate(-51.779 -43.528)" fill="#37474f"/>
        <path id="Path_582087" data-name="Path 582087" d="M203.684,165.973l-4.464,23.908,2.466,20.224-.8-20.458,3.951-19.611c3.024-.657,9.946-4.119,11.937-9.231-4.74,4.751-13.095,5.169-13.095,5.169m-13.763-14.324c.574-2,1.177-4,1.851-6a29.733,29.733,0,0,0-2.83,5.671,55.674,55.674,0,0,0-1.934,6.032c-.52,2.045-.96,4.109-1.275,6.195a41.111,41.111,0,0,0-.551,6.3c.547-2.042,1.059-4.069,1.569-6.1s1.009-4.054,1.545-6.068c.512-2.02,1.064-4.028,1.627-6.035m-2.99-1.576c.705-1.217,1.414-2.436,2.066-3.721a22.571,22.571,0,0,0-2.923,3.141,30.82,30.82,0,0,0-2.4,3.555,27.4,27.4,0,0,0-1.844,3.882,16.918,16.918,0,0,0-1.056,4.17l2-3.738c.677-1.224,1.348-2.446,2.052-3.652.684-1.218,1.4-2.417,2.1-3.637m-4.21,80.057q-1.961,9.709-3.669,19.467,2.468-9.6,4.684-19.246c1.5-6.434,2.912-12.858,4.319-19.333,1.326-6.494,2.268-13.046,3.044-19.606.791-6.559,1.406-13.134,1.945-19.718-1.049,6.522-2.007,13.055-2.97,19.58-.986,6.521-1.981,13.038-3.322,19.475-1.374,6.429-2.744,12.91-4.032,19.381m34.816-32.094c.07,2.864.179,5.745.071,8.574s-.354,5.716-.56,8.578l-.617,8.6q-.624,8.6-1.051,17.223,1.2-8.55,2.085-17.132c.592-5.727,1.154-11.433,1.472-17.217.105-5.817-.265-11.541-.658-17.29-.41-5.741-.978-11.471-1.743-17.176l.711,17.233c.1,2.871.221,5.74.29,8.609" transform="translate(-55.631 -45.252)" fill="#263238"/>
        <path id="Path_582088" data-name="Path 582088" d="M253.377,110.143c-4.971,4.535-8.331,3.231-11.773.232-5.792-5.046-13.373-14.063-13.373-14.063s-3.658-13.022-.676-18.87c6.555.6,8.181,2.975,13.9,10.885,3.449,4.77,7.263,10.005,7.263,10.005s8.5-5.219,10.136-7.066a40.241,40.241,0,0,0,3.441-4.284,28.568,28.568,0,0,1,3.262-3.651c1.674-1.7,3.58-3.138,5.319-4.762a1.022,1.022,0,0,1,.418-.277c.631-.163.8.715.816,1.162a2.921,2.921,0,0,1-.668,1.669c-.454.649-.932,1.271-1.394,1.918-.122.171-.6.718-.417.942s.764-.26.923-.369a22.539,22.539,0,0,0,1.837-1.459l4.469-3.8a2.7,2.7,0,0,1,.662-.458c.988-.424,1.622.6,1.037,1.668a5.021,5.021,0,0,1-.545.8,26.059,26.059,0,0,1-2.06,2.195,8.806,8.806,0,0,0-.862.88c-.052.064-.418.511-.141.491a.354.354,0,0,0,.181-.088c1.059-.8,2.038-1.7,3.037-2.578.507-.443,1.019-.88,1.55-1.293.356-.276.931-.889,1.424-.829a.811.811,0,0,1,.434.223,1.416,1.416,0,0,1,.387,1.42,3.77,3.77,0,0,1-.38.811,5.65,5.65,0,0,1-.569.711c.789-.225,1.261.7,1.019,1.376a6.476,6.476,0,0,1-2.162,2.558c-1.111.968-1.655,1.437-3.377,2.816-.335.269-.422.592.007.354a10.772,10.772,0,0,0,1.028-.652c.419-.3.547-.4,1-.711.592-.412,1.614-1.314,2-1.3.365.011.559.485.551.82a1.538,1.538,0,0,1-.247.715,10.849,10.849,0,0,1-3.574,3.312c-1.088.733-2.183,1.455-3.278,2.178a26.97,26.97,0,0,1-6.091,2.979c-3.822,1.279-9.535,8.86-14.506,13.395" transform="translate(-70.336 -24.061)" fill="#ffa8a7"/>
        <path id="Path_582089" data-name="Path 582089" d="M289.034,90.9c1.48,1.6-.224,4.142-1.3,5.483-.215.267-1.089.8-.724.062.128-.257.261-.511.385-.769a12.73,12.73,0,0,0,.631-1.525,5.984,5.984,0,0,0,.3-2.8c-.041-.254-.062-.589.175-.687a.434.434,0,0,1,.443.138c.033.032.065.065.1.1" transform="translate(-89.144 -28.162)" fill="#f28f8f"/>
        <path id="Path_582090" data-name="Path 582090" d="M303.03,84.5a41.379,41.379,0,0,0-5.776,5.251A26.731,26.731,0,0,0,303.03,84.5" transform="translate(-92.355 -26.253)" fill="#f28f8f"/>
        <path id="Path_582091" data-name="Path 582091" d="M227.383,76.954c5.6.607,7.836,2.027,14.258,10.815,3.045,4.166,6.941,9.948,6.941,9.948l7.729-4.929a10.926,10.926,0,0,0,2.1,5.325,8.406,8.406,0,0,0,3.719,3.258s-2.084,2.711-9.719,9.576c-4.478,4.027-8.452,1.839-10.764.045-4.23-3.282-13.9-14.551-13.9-14.551-1.419-2.6-3.842-15.185-.356-19.487" transform="translate(-70.089 -23.909)" fill="#455a64"/>
        <path id="Path_582092" data-name="Path 582092" d="M256.82,106.585a10.543,10.543,0,0,0-4.625,6.491c-.805-4.8,3.886-7.581,3.886-7.581Z" transform="translate(-78.326 -32.777)" fill="#37474f"/>
        <path id="Path_582093" data-name="Path 582093" d="M191.61,76.28c-2.5.519-9.4,3.444-12.285,5.046,0,0-4.027,7.1-2.324,23.24.272,2.582.965,9.544,1.289,14.92a84.374,84.374,0,0,1-.077,13.146s6.792,5.93,24.48,4.583c13.887-1.057,18.058-6.767,18.058-6.767s-.079-18.734-.447-28.975c-.485-13.451-4.565-21.211-7.564-23.558L203.622,76.4Z" transform="translate(-54.863 -23.7)" fill="#f0f0f0"/>
        <path id="Path_582094" data-name="Path 582094" d="M188.536,76.4l.047,1.058s4.134,7.816,4.424,23.594-.02,41.037-.02,41.037-10.774-.217-18-6.02c0,0,1.335-13.686,1.177-19.959s.522-9.106-1.265-18.021C173.082,89.034,178.44,79.8,178.44,79.8c2.688-.973,4.541-1.57,10.1-3.4" transform="translate(-54.223 -23.738)" fill="#37474f"/>
        <path id="Path_582095" data-name="Path 582095" d="M215.865,75.241l8.5,1.181s5.92,4.5,7.82,16.876,2.864,42.369,2.864,42.369a21.754,21.754,0,0,1-5.935,2.237s-.571-14.769-1.365-28.374c-.959-16.414-2.235-26.417-11.754-33.1Z" transform="translate(-67.068 -23.377)" fill="#37474f"/>
        <g id="Group_283118" data-name="Group 283118" transform="translate(131.245 53.856)" opacity="0.3">
          <g id="Group_283117" data-name="Group 283117">
            <g id="Group_283116" data-name="Group 283116" clip-path="url(#clip-path-5)">
              <path id="Path_582096" data-name="Path 582096" d="M196.043,96.49l.184-.354c-1.616-.638-3.247-1.243-4.879-1.84-.218-4.815-.5-9.814-.934-14.6-.054,4.883.065,9.969.234,14.863l.008.232.223.087c1.441.56,2.885,1.112,4.339,1.642l-1.75,3.506c-.682,1.339-1.308,2.708-1.969,4.059l.132.12q2.523,2.285,5.12,4.494-2.293-2.392-4.653-4.713c1.2-2.191,2.8-5.293,3.946-7.5m27.814,2.536q-1.684-2.736-3.441-5.426l1.7-2.575.1-.153a36.039,36.039,0,0,0-8.063-12.743,59.077,59.077,0,0,1,5.915,9.406,30.084,30.084,0,0,1,1.319,3.237L219.669,93.4l-.134.2.134.2q1.807,2.723,3.677,5.407c-.787,2.075-1.556,4.154-2.271,6.258.979-2.047,1.9-4.117,2.806-6.195l.053-.119Z" transform="translate(-190.401 -78.13)"/>
            </g>
          </g>
        </g>
        <path id="Path_582097" data-name="Path 582097" d="M187.327,36.751a5.025,5.025,0,0,0-3.6,2.256,10.838,10.838,0,0,0,.115,9.372c1.895,4.224,5.352,8.207,6.124,9.38a3.436,3.436,0,0,0,2.14,1.388l-.661-5.3-.562-3.68s2.716-3,2.711-5.684a8.547,8.547,0,0,0-1.532-5.259Z" transform="translate(-56.772 -11.418)" fill="#263238"/>
        <path id="Path_582098" data-name="Path 582098" d="M207.718,36.262A13.67,13.67,0,0,0,202.8,35.7c-1.493.053-2.986.1-4.479.148l-4.8.159s-5.164-.347-5.519-3.944a5.47,5.47,0,0,1,.738-3.313,11.014,11.014,0,0,1,2.389-2.783,13.812,13.812,0,0,1,6.718-3.042,22.535,22.535,0,0,1,5.876-.064,11.327,11.327,0,0,0,3.966-.052c.92-.245,1.865-.9,1.934-1.849a4.117,4.117,0,0,1,.868,4.409,2.938,2.938,0,0,1,3.025,1.885,3.919,3.919,0,0,1-.736,3.631c.088-.138.7.829.748.911a3.166,3.166,0,0,1,.439,1.9,3.12,3.12,0,0,1-1.661,2.186,5.16,5.16,0,0,1-4.588.376" transform="translate(-58.403 -6.513)" fill="#263238"/>
        <path id="Path_582099" data-name="Path 582099" d="M187.054,55.046c2.883,1.066,3.924-1.234,3.924-1.234l.465,10.491c4.92,7.566,19,5.272,14.563-.669l-.252-3.084a12.844,12.844,0,0,0,2.359-.467c3.764-1.064,4.521-3.439,4.855-6.167.519-4.241-.187-9.994-2.312-16.492a4.578,4.578,0,0,0-2.337-3.065c-3.066-1.157-5.563,1.193-9.479,3.182-1.622.824-5.683,1.516-6.812,1.116,1.576,1.428,2.051,6.384.157,8.6a4.612,4.612,0,0,1-.915,1.47c-.814.862-1.741-1.065-2.566-1.775a3.083,3.083,0,0,0-4.664,1.569,5.021,5.021,0,0,0,3.013,6.524" transform="translate(-57.082 -10.58)" fill="#ffa8a7"/>
        <path id="Path_582100" data-name="Path 582100" d="M209.495,69.586a17.472,17.472,0,0,1-8.257-.765,10.9,10.9,0,0,1-5.474-5.686c.448,4.048,2.133,5.807,5.14,7.025a20.349,20.349,0,0,0,8.716,1Z" transform="translate(-60.823 -19.616)" fill="#f28f8f"/>
        <path id="Path_582101" data-name="Path 582101" d="M205.515,43.914l-2.291,1.849a1.545,1.545,0,0,1,.234-2.126,1.437,1.437,0,0,1,2.057.276" transform="translate(-63.041 -13.46)" fill="#263238"/>
        <path id="Path_582102" data-name="Path 582102" d="M220.594,42.982l-2.776-1.048a1.424,1.424,0,0,1,1.864-.895,1.559,1.559,0,0,1,.912,1.943" transform="translate(-67.675 -12.721)" fill="#263238"/>
        <path id="Path_582103" data-name="Path 582103" d="M205.328,49.258a1.2,1.2,0,1,0,1.028-1.35,1.2,1.2,0,0,0-1.028,1.35" transform="translate(-63.791 -14.881)" fill="#263238"/>
        <path id="Path_582104" data-name="Path 582104" d="M218.234,47.439a1.2,1.2,0,1,0,1.029-1.35,1.093,1.093,0,0,0-1.029,1.35" transform="translate(-67.799 -14.316)" fill="#263238"/>
        <path id="Path_582105" data-name="Path 582105" d="M212.412,46.4l1.735,7.5,3.869-1.878a17.887,17.887,0,0,0-5.6-5.625" transform="translate(-65.995 -14.418)" fill="#f28f8f"/>
        <path id="Path_582106" data-name="Path 582106" d="M209.046,58.842l5,.9a2.666,2.666,0,0,1-3.038,2.093,2.479,2.479,0,0,1-1.96-3" transform="translate(-64.931 -18.282)" fill="#b16668"/>
        <path id="Path_582107" data-name="Path 582107" d="M212.192,62.041A3.609,3.609,0,0,0,209,59.754a2.453,2.453,0,0,0,2.009,2.367,2.525,2.525,0,0,0,1.181-.08" transform="translate(-64.935 -18.565)" fill="#f28f8f"/>
        <path id="Path_582108" data-name="Path 582108" d="M170.838,82.168c-5.788,1.677-7.5,3.472-9.56,7.549-2.905,5.741-8.039,17.379-9.987,23.974-1.015,3.439-.909,6.781,3.162,10.217a200.563,200.563,0,0,0,16.265,11.824c1.178.766,4.906,3.5,6.027,4.072,6.806,3.473,14.613,2.465,14.613,2.465l-7.464-4.407-1.352-2.5-17.4-19.645s5.914-12.96,7.594-16.918c1.744-4.109,2.588-14.028-1.9-16.634" transform="translate(-46.838 -25.529)" fill="#ffa8a7"/>
        <path id="Path_582109" data-name="Path 582109" d="M188.912,150.731l-.008.7a1.972,1.972,0,0,0,.962,1.714l18.621,11a1.979,1.979,0,0,0,1.965.022l34.6-19.464a1.966,1.966,0,0,0,1-1.692l0-.478L209.483,163.1Z" transform="translate(-58.691 -44.282)" fill="#ba68c8"/>
        <g id="Group_283121" data-name="Group 283121" transform="translate(130.213 98.243)" opacity="0.5">
          <g id="Group_283120" data-name="Group 283120">
            <g id="Group_283119" data-name="Group 283119" clip-path="url(#clip-path-6)">
              <path id="Path_582110" data-name="Path 582110" d="M188.912,150.731l-.008.7a1.972,1.972,0,0,0,.962,1.714l18.621,11a1.979,1.979,0,0,0,1.965.022l34.6-19.464a1.966,1.966,0,0,0,1-1.692l0-.478L209.483,163.1Z" transform="translate(-188.904 -142.525)" fill="#fff"/>
            </g>
          </g>
        </g>
        <g id="Group_283124" data-name="Group 283124" transform="translate(130.213 98.243)" opacity="0.1">
          <g id="Group_283123" data-name="Group 283123">
            <g id="Group_283122" data-name="Group 283122" clip-path="url(#clip-path-6)">
              <path id="Path_582111" data-name="Path 582111" d="M188.912,150.731l-.008.7a1.972,1.972,0,0,0,.962,1.714l18.621,11a1.979,1.979,0,0,0,1.965.022l34.6-19.464a1.966,1.966,0,0,0,1-1.692l0-.478L209.483,163.1Z" transform="translate(-188.904 -142.525)"/>
            </g>
          </g>
        </g>
        <path id="Path_582112" data-name="Path 582112" d="M246.069,137.044l-20.254-12a1.171,1.171,0,0,0-1.172-.013l-35.6,20.024a.261.261,0,0,0-.005.451l20.444,12.113Z" transform="translate(-58.695 -38.8)" fill="#ba68c8"/>
        <g id="Group_283127" data-name="Group 283127" transform="translate(130.22 86.082)" opacity="0.85">
          <g id="Group_283126" data-name="Group 283126">
            <g id="Group_283125" data-name="Group 283125" clip-path="url(#clip-path-8)">
              <path id="Path_582113" data-name="Path 582113" d="M246.069,137.044l-20.254-12a1.171,1.171,0,0,0-1.172-.013l-35.6,20.024a.261.261,0,0,0-.005.451l20.444,12.113Z" transform="translate(-188.915 -124.882)" fill="#fff"/>
            </g>
          </g>
        </g>
        <path id="Path_582114" data-name="Path 582114" d="M214.053,158.562,203.129,152.1l32.04-18.018,10.982,6.433Z" transform="translate(-63.111 -41.657)" fill="#ba68c8"/>
        <g id="Group_283130" data-name="Group 283130" transform="translate(140.018 92.422)" opacity="0.6">
          <g id="Group_283129" data-name="Group 283129">
            <g id="Group_283128" data-name="Group 283128" clip-path="url(#clip-path-9)">
              <path id="Path_582115" data-name="Path 582115" d="M214.053,158.562,203.129,152.1l32.04-18.018,10.982,6.433Z" transform="translate(-203.129 -134.079)" fill="#fff"/>
            </g>
          </g>
        </g>
        <path id="Path_582116" data-name="Path 582116" d="M210.962,141.687l.2.119,5.355,3.172,9.646-5.426.2-.111-5.556-3.291Z" transform="translate(-65.544 -42.301)" fill="#ba68c8"/>
        <path id="Path_582117" data-name="Path 582117" d="M211.254,141.911l5.355,3.171,9.646-5.426-5.358-3.171Z" transform="translate(-65.635 -42.405)" fill="#ba68c8"/>
        <g id="Group_283133" data-name="Group 283133" transform="translate(145.619 94.079)" opacity="0.6">
          <g id="Group_283132" data-name="Group 283132">
            <g id="Group_283131" data-name="Group 283131" clip-path="url(#clip-path-10)">
              <path id="Path_582118" data-name="Path 582118" d="M211.254,141.911l5.355,3.171,9.646-5.426-5.358-3.171Z" transform="translate(-211.254 -136.484)" fill="#fff"/>
            </g>
          </g>
        </g>
        <path id="Path_582119" data-name="Path 582119" d="M218.752,163.1l-.014,1.308a1.951,1.951,0,0,0,.984-.25l34.6-19.464a1.964,1.964,0,0,0,1-1.692l.006-.478Z" transform="translate(-67.96 -44.281)" fill="#ba68c8"/>
        <g id="Group_283136" data-name="Group 283136" transform="translate(150.778 98.243)" opacity="0.03">
          <g id="Group_283135" data-name="Group 283135">
            <g id="Group_283134" data-name="Group 283134" clip-path="url(#clip-path-11)">
              <path id="Path_582120" data-name="Path 582120" d="M218.752,163.1l-.014,1.308a1.951,1.951,0,0,0,.984-.25l34.6-19.464a1.964,1.964,0,0,0,1-1.692l.006-.478Z" transform="translate(-218.738 -142.525)" fill="#fff"/>
            </g>
          </g>
        </g>
        <g id="Group_283139" data-name="Group 283139" transform="translate(150.778 98.243)" opacity="0.2">
          <g id="Group_283138" data-name="Group 283138">
            <g id="Group_283137" data-name="Group 283137" clip-path="url(#clip-path-11)">
              <path id="Path_582121" data-name="Path 582121" d="M218.752,163.1l-.014,1.308a1.951,1.951,0,0,0,.984-.25l34.6-19.464a1.964,1.964,0,0,0,1-1.692l.006-.478Z" transform="translate(-218.738 -142.525)"/>
            </g>
          </g>
        </g>
        <path id="Path_582122" data-name="Path 582122" d="M219.558,152.309a2.328,2.328,0,0,0,2.008-.132L256.018,132.8a2.331,2.331,0,0,0,1.15-1.615l4-22.305a2.383,2.383,0,0,0,.035-.382,2.331,2.331,0,0,0-.67-1.663l-35.8,20.142a1.729,1.729,0,0,0-.85,1.2Z" transform="translate(-68.215 -33.192)" fill="#9d61ff"/>
        <path id="Path_582124" data-name="Path 582124" d="M218.759,151.848l.232.136a2.745,2.745,0,0,0,.318.159L223.632,128a1.73,1.73,0,0,1,.85-1.2l35.8-20.142a2.34,2.34,0,0,0-.471-.367l-35.876,20.179a1.728,1.728,0,0,0-.85,1.2Z" transform="translate(-67.967 -33.027)" fill="#ba68c8"/>
        <g id="Group_283145" data-name="Group 283145" transform="translate(150.792 73.273)" opacity="0.6">
          <g id="Group_283144" data-name="Group 283144">
            <g id="Group_283143" data-name="Group 283143" clip-path="url(#clip-path-13)">
              <path id="Path_582125" data-name="Path 582125" d="M218.759,151.848l.232.136a2.745,2.745,0,0,0,.318.159L223.632,128a1.73,1.73,0,0,1,.85-1.2l35.8-20.142a2.34,2.34,0,0,0-.471-.367l-35.876,20.179a1.728,1.728,0,0,0-.85,1.2Z" transform="translate(-218.759 -106.3)" fill="#fff"/>
            </g>
          </g>
        </g>
        <path id="Path_582126" data-name="Path 582126" d="M223.963,136.571l-.547-.325a1.717,1.717,0,0,0-.327.731l-4.33,24.175.232.136a2.8,2.8,0,0,0,.318.159l4.322-24.14a1.719,1.719,0,0,1,.331-.736" transform="translate(-67.967 -42.331)" fill="#ba68c8"/>
        <g id="Group_283148" data-name="Group 283148" transform="translate(150.792 93.915)" opacity="0.5">
          <g id="Group_283147" data-name="Group 283147">
            <g id="Group_283146" data-name="Group 283146" clip-path="url(#clip-path-14)">
              <path id="Path_582127" data-name="Path 582127" d="M223.963,136.571l-.547-.325a1.717,1.717,0,0,0-.327.731l-4.33,24.175.232.136a2.8,2.8,0,0,0,.318.159l4.322-24.14a1.719,1.719,0,0,1,.331-.736" transform="translate(-218.759 -136.246)" fill="#fff"/>
            </g>
          </g>
        </g>
        <g id="Group_283151" data-name="Group 283151" transform="translate(150.792 93.915)" opacity="0.5">
          <g id="Group_283150" data-name="Group 283150">
            <g id="Group_283149" data-name="Group 283149" clip-path="url(#clip-path-14)">
              <path id="Path_582128" data-name="Path 582128" d="M223.963,136.571l-.547-.325a1.717,1.717,0,0,0-.327.731l-4.33,24.175.232.136a2.8,2.8,0,0,0,.318.159l4.322-24.14a1.719,1.719,0,0,1,.331-.736" transform="translate(-218.759 -136.246)" fill="#ba68c8"/>
            </g>
          </g>
        </g>
        <path id="Path_582129" data-name="Path 582129" d="M247.845,140.989a7.565,7.565,0,0,1,3.5-4.4c1.665-.937,2.8-.485,2.531,1.008a7.566,7.566,0,0,1-3.5,4.4c-1.665.937-2.8.485-2.53-1.008" transform="translate(-76.992 -42.286)" fill="#fff"/>
        <path id="Path_582130" data-name="Path 582130" d="M187.334,148.957c1.987,2.474,4.609,1.533,7.185,1.818s4.982.984,7.041,1.151c2.029.164,2.632,1.013,1.571,2.139-1.507,1.6-5.586.762-6.7,1.277a2.407,2.407,0,0,0-.481,3.817c1.226,1.4-6.92-1.239-8.021-2.9s-2.065-7.074-.6-7.3" transform="translate(-57.972 -46.28)" fill="#ffa8a7"/>
        <path id="Path_582131" data-name="Path 582131" d="M155.214,100.8a126.092,126.092,0,0,1,6.953-13.871c1.878-3.045,4.738-4.454,8.656-5.6,5.521,2.125,4.45,11.232,3.8,14.1s-8.9,20.025-8.9,20.025l8.588,10.009a9.963,9.963,0,0,0-4.96,2.918,9.841,9.841,0,0,0-2.812,4.858s-9.818-7.074-12.835-9.6-4.573-4.669-3.181-9.527S154,103.945,155.214,100.8" transform="translate(-46.606 -25.269)" fill="#455a64"/>
        <path id="Path_582132" data-name="Path 582132" d="M169.879,130.322c-1.82-1.689-4.954-1.2-6.49-.584a13.855,13.855,0,0,1,7.661,1.949Z" transform="translate(-50.764 -40.131)" fill="#37474f"/>
        <g id="Group_283154" data-name="Group 283154" opacity="0.2">
          <g id="Group_283153" data-name="Group 283153">
            <g id="Group_283152" data-name="Group 283152" clip-path="url(#clip-path-16)">
              <path id="Path_582133" data-name="Path 582133" d="M1.07,35.371,62.13.146C62.721-.2,63.2.082,63.2.764V104.973a2.366,2.366,0,0,1-1.07,1.853L1.07,142.05c-.591.341-1.07.065-1.07-.617V37.224a2.365,2.365,0,0,1,1.07-1.853" transform="translate(0 0)"/>
            </g>
          </g>
        </g>
        <path id="Path_582134" data-name="Path 582134" d="M8.22,143.17a.924.924,0,0,0,.456-.137l57.11-33a3.8,3.8,0,0,0,1.7-2.932V8.066c0-.632-.266-1.009-.713-1.009a1.387,1.387,0,0,0-.67.211L8.986,40.24a3.811,3.811,0,0,0-1.7,2.934v98.583a1.839,1.839,0,0,0,.294,1.033.791.791,0,0,0,.636.379" transform="translate(-2.265 -2.193)" fill="#fafafa"/>
        <path id="Path_582135" data-name="Path 582135" d="M4.187,160.405c.2.106,1.638.926,2.269,1.286a1.883,1.883,0,0,1-.681-1.553V67.608L3.407,66.222V158.8a1.8,1.8,0,0,0,.78,1.605" transform="translate(-1.059 -20.575)" fill="#ebebeb"/>
        <path id="Path_582136" data-name="Path 582136" d="M66.63,7.229c.347,0,.4.436.4.7v99.032a3.449,3.449,0,0,1-1.539,2.66l-57.113,33a.616.616,0,0,1-.3.1c-.328,0-.616-.514-.616-1.1V43.033A3.455,3.455,0,0,1,9,40.37L66.117,7.4a1.055,1.055,0,0,1,.514-.169m0-.625a1.68,1.68,0,0,0-.826.253L8.689,39.83a4.087,4.087,0,0,0-1.85,3.2v98.583c0,.933.518,1.725,1.241,1.725a1.222,1.222,0,0,0,.611-.179l57.112-33a4.083,4.083,0,0,0,1.851-3.2V7.925c0-.837-.416-1.321-1.024-1.321" transform="translate(-2.125 -2.052)" fill="#e0e0e0"/>
        <path id="Path_582137" data-name="Path 582137" d="M66.586,7.287v6.168L5.775,48.553,3.407,47.176V41.087a3.831,3.831,0,0,1,.562-1.85,3.723,3.723,0,0,1,1.288-1.35L62.374,4.913a1.324,1.324,0,0,1,1.35-.107c.338.208,1.958,1.13,2.289,1.3a.61.61,0,0,1,.141.1.887.887,0,0,1,.146.146,1.035,1.035,0,0,1,.118.185.912.912,0,0,1,.09.225,1.177,1.177,0,0,1,.056.253v.012a1.846,1.846,0,0,1,.023.264" transform="translate(-1.059 -1.45)" fill="#d9c2fe"/>
        <path id="Path_582139" data-name="Path 582139" d="M67.653,7.889v6.168L6.842,49.155V43.033a3.275,3.275,0,0,1,.225-1.148c.023-.061.045-.129.073-.191a4.6,4.6,0,0,1,.253-.5,3.715,3.715,0,0,1,1.3-1.366L65.8,6.86A1.227,1.227,0,0,1,67.22,6.8a.887.887,0,0,1,.146.146,1.035,1.035,0,0,1,.118.185.912.912,0,0,1,.09.225,1.177,1.177,0,0,1,.056.253v.012a1.846,1.846,0,0,1,.023.264" transform="translate(-2.126 -2.052)" fill="#9d61ff"/>
        <path id="Path_582140" data-name="Path 582140" d="M76.528,19.178a3.046,3.046,0,0,0-1.155,2.444c0,.982.517,1.479,1.155,1.111a3.047,3.047,0,0,0,1.155-2.444c0-.982-.517-1.479-1.155-1.111" transform="translate(-23.418 -5.921)" fill="#fafafa"/>
        <path id="Path_582141" data-name="Path 582141" d="M82.558,15.69A3.046,3.046,0,0,0,81.4,18.135c0,.982.517,1.479,1.155,1.111A3.046,3.046,0,0,0,83.712,16.8c0-.982-.517-1.479-1.155-1.111" transform="translate(-25.291 -4.837)" fill="#fafafa"/>
        <path id="Path_582142" data-name="Path 582142" d="M88.588,12.2a3.046,3.046,0,0,0-1.155,2.444c0,.982.517,1.479,1.155,1.111a3.046,3.046,0,0,0,1.155-2.444c0-.982-.517-1.479-1.155-1.111" transform="translate(-27.165 -3.753)" fill="#fafafa"/>
        <path id="Path_582143" data-name="Path 582143" d="M64.992,6.254,7.879,39.227a3.8,3.8,0,0,0-1.3,1.373l-2.35-1.361a3.684,3.684,0,0,1,1.286-1.35L62.63,4.916a1.3,1.3,0,0,1,1.343-.111c.332.2,1.867,1.077,2.257,1.286a1.339,1.339,0,0,0-1.239.163" transform="translate(-1.313 -1.45)" fill="#d9c2fe"/>
        <path id="Path_582145" data-name="Path 582145" d="M26.14,87.163a.172.172,0,0,1-.172-.172V79.655a.172.172,0,0,1,.345,0V86.99a.173.173,0,0,1-.172.172" transform="translate(-8.068 -24.695)" fill="#455a64"/>
        <path id="Path_582146" data-name="Path 582146" d="M25.369,89.377l.585.585.585-.585v.5l-.585.585-.585-.585Z" transform="translate(-7.882 -27.769)" fill="#455a64"/>
        <path id="Path_582147" data-name="Path 582147" d="M35.175,90.375a.173.173,0,0,1-.086-.322l4.829-2.788a.173.173,0,1,1,.172.3l-4.829,2.788a.171.171,0,0,1-.086.023" transform="translate(-10.875 -27.105)" fill="#455a64"/>
        <path id="Path_582148" data-name="Path 582148" d="M41.557,88.156l.214-.8-.8-.214.429-.249.8.214-.214.8Z" transform="translate(-12.73 -26.998)" fill="#455a64"/>
        <path id="Path_582149" data-name="Path 582149" d="M33.879,146.272a.172.172,0,0,1-.086-.322l4.829-2.788a.172.172,0,1,1,.172.3l-4.829,2.788a.173.173,0,0,1-.086.023" transform="translate(-10.473 -44.472)" fill="#455a64"/>
        <path id="Path_582150" data-name="Path 582150" d="M40.26,144.053l.214-.8-.8-.214.429-.249.8.214-.214.8Z" transform="translate(-12.327 -44.364)" fill="#455a64"/>
        <path id="Path_582151" data-name="Path 582151" d="M59.308,131.59a.173.173,0,0,1-.086-.322l4.829-2.788a.172.172,0,1,1,.172.3l-4.829,2.788a.171.171,0,0,1-.086.023" transform="translate(-18.373 -39.91)" fill="#455a64"/>
        <path id="Path_582152" data-name="Path 582152" d="M65.69,129.371l.214-.8-.8-.214.429-.249.8.214-.214.8Z" transform="translate(-20.228 -39.803)" fill="#455a64"/>
        <path id="Path_582153" data-name="Path 582153" d="M60.94,75.5a.173.173,0,0,1-.086-.322l4.829-2.788a.172.172,0,1,1,.172.3l-4.829,2.789a.177.177,0,0,1-.086.023" transform="translate(-18.88 -22.484)" fill="#455a64"/>
        <path id="Path_582154" data-name="Path 582154" d="M67.322,73.281l.214-.8-.8-.214.429-.249.8.214-.214.8Z" transform="translate(-20.735 -22.376)" fill="#455a64"/>
        <path id="Path_582155" data-name="Path 582155" d="M60.481,103.613a.172.172,0,0,1-.086-.322l4.829-2.788a.172.172,0,0,1,.172.3l-4.829,2.789a.179.179,0,0,1-.086.023" transform="translate(-18.738 -31.218)" fill="#455a64"/>
        <path id="Path_582156" data-name="Path 582156" d="M60.707,103.541l-.214.8.8.214-.43.249-.8-.214.214-.8Z" transform="translate(-18.661 -32.169)" fill="#455a64"/>
        <path id="Path_582157" data-name="Path 582157" d="M60.035,155.965a.173.173,0,0,1-.086-.322l4.51-2.6a.173.173,0,0,1,.172.3l-4.51,2.6a.171.171,0,0,1-.086.023" transform="translate(-18.599 -47.541)" fill="#455a64"/>
        <path id="Path_582158" data-name="Path 582158" d="M60.262,155.811l-.214.8.8.214-.429.248-.8-.214.214-.8Z" transform="translate(-18.523 -48.409)" fill="#455a64"/>
        <path id="Path_582159" data-name="Path 582159" d="M35.3,118.152a.172.172,0,0,1-.086-.322l4.829-2.788a.172.172,0,0,1,.172.3l-4.829,2.788a.173.173,0,0,1-.086.023" transform="translate(-10.913 -35.735)" fill="#455a64"/>
        <path id="Path_582160" data-name="Path 582160" d="M35.524,118.08l-.214.8.8.214-.429.248-.8-.214.214-.8Z" transform="translate(-10.837 -36.687)" fill="#455a64"/>
        <path id="Path_582161" data-name="Path 582161" d="M75.151,83.734a.172.172,0,0,1-.172-.172V77.97a.172.172,0,1,1,.345,0v5.592a.172.172,0,0,1-.172.172" transform="translate(-23.295 -24.171)" fill="#455a64"/>
        <path id="Path_582162" data-name="Path 582162" d="M74.38,85.164l.585.585.585-.585v.5l-.585.585-.585-.585Z" transform="translate(-23.109 -26.46)" fill="#455a64"/>
        <path id="Path_582163" data-name="Path 582163" d="M26.14,128.081a.172.172,0,0,1-.172-.172V123.8a.172.172,0,0,1,.345,0v3.814L59.752,108.3v-2.557a.172.172,0,0,1,.345,0V108.4a.172.172,0,0,1-.086.149L26.226,128.058a.175.175,0,0,1-.086.023" transform="translate(-8.068 -32.801)" fill="#455a64"/>
        <path id="Path_582164" data-name="Path 582164" d="M26.538,132.517l-.585-.585-.585.585v-.5l.585-.585.585.585Z" transform="translate(-7.882 -40.836)" fill="#455a64"/>
        <path id="Path_582165" data-name="Path 582165" d="M26.14,155.1a.172.172,0,0,1-.172-.172v-2.656a.172.172,0,0,1,.345,0v2.357l33.439-19.305v-4.014a.172.172,0,1,1,.345,0v4.113a.173.173,0,0,1-.086.15L26.226,155.077a.175.175,0,0,1-.086.023" transform="translate(-8.068 -40.743)" fill="#455a64"/>
        <path id="Path_582166" data-name="Path 582166" d="M75.55,131.9l-.585-.585-.585.585v-.5l.585-.585.585.585Z" transform="translate(-23.109 -40.643)" fill="#455a64"/>
        <path id="Path_582167" data-name="Path 582167" d="M14.927,149.513a.172.172,0,0,1-.172-.172V130.522a.171.171,0,0,1,.086-.15l1.827-1.055a.172.172,0,1,1,.172.3l-1.74,1.005v18.42l1.916-1.106a.172.172,0,0,1,.172.3l-2.175,1.257a.173.173,0,0,1-.086.023" transform="translate(-4.584 -40.171)" fill="#455a64"/>
        <path id="Path_582168" data-name="Path 582168" d="M17.458,157.218l.214-.8-.8-.214.429-.248.8.214-.214.8Z" transform="translate(-5.242 -48.455)" fill="#455a64"/>
        <path id="Path_582169" data-name="Path 582169" d="M84.655,134.751a.173.173,0,0,1-.086-.322l1.82-1.051V116.742l-1.569.906a.172.172,0,0,1-.172-.3l1.827-1.055a.172.172,0,0,1,.258.15v17.034a.171.171,0,0,1-.086.149l-1.906,1.1a.171.171,0,0,1-.086.023" transform="translate(-26.248 -36.124)" fill="#455a64"/>
        <path id="Path_582170" data-name="Path 582170" d="M84.881,141.6l-.214.8.8.214-.429.248-.8-.214.214-.8Z" transform="translate(-26.172 -43.993)" fill="#455a64"/>
        <path id="Path_582171" data-name="Path 582171" d="M29.08,68.035c0,1.953-2.334,4.884-5.213,6.546s-5.213,1.426-5.213-.527,2.334-4.884,5.213-6.546,5.213-1.426,5.213.527" transform="translate(-5.796 -20.63)" fill="#9d61ff"/>
        <path id="Path_582172" data-name="Path 582172" d="M53.907,157.177c0,1.953-2.334,4.883-5.213,6.546s-5.213,1.426-5.213-.527,2.334-4.884,5.213-6.546,5.213-1.426,5.213.527" transform="translate(-13.51 -48.326)" fill="#9d61ff"/>
        <path id="Path_582173" data-name="Path 582173" d="M28.593,94.469,19.1,99.95c-.284.164-.514-.01-.514-.389v-4.89a1.231,1.231,0,0,1,.514-.982l9.494-5.481c.284-.164.514.01.514.389v4.89a1.232,1.232,0,0,1-.514.982" transform="translate(-5.774 -27.386)" fill="#ba68c8"/>
        <g id="Group_283163" data-name="Group 283163" transform="translate(12.811 60.76)" opacity="0.6">
          <g id="Group_283162" data-name="Group 283162">
            <g id="Group_283161" data-name="Group 283161" clip-path="url(#clip-path-18)">
              <path id="Path_582174" data-name="Path 582174" d="M28.593,94.469,19.1,99.95c-.284.164-.514-.01-.514-.389v-4.89a1.231,1.231,0,0,1,.514-.982l9.494-5.481c.284-.164.514.01.514.389v4.89a1.232,1.232,0,0,1-.514.982" transform="translate(-18.585 -88.146)" fill="#fff"/>
            </g>
          </g>
        </g>
        <path id="Path_582175" data-name="Path 582175" d="M53.42,80.135l-9.494,5.481c-.284.164-.514-.01-.514-.389v-4.89a1.231,1.231,0,0,1,.514-.982l9.494-5.481c.284-.164.514.01.514.389v4.89a1.232,1.232,0,0,1-.514.982" transform="translate(-13.488 -22.933)" fill="#ba68c8"/>
        <g id="Group_283166" data-name="Group 283166" transform="translate(29.924 50.879)" opacity="0.6">
          <g id="Group_283165" data-name="Group 283165">
            <g id="Group_283164" data-name="Group 283164" clip-path="url(#clip-path-18)">
              <path id="Path_582176" data-name="Path 582176" d="M53.42,80.135l-9.494,5.481c-.284.164-.514-.01-.514-.389v-4.89a1.231,1.231,0,0,1,.514-.982l9.494-5.481c.284-.164.514.01.514.389v4.89a1.232,1.232,0,0,1-.514.982" transform="translate(-43.412 -73.812)" fill="#fff"/>
            </g>
          </g>
        </g>
        <path id="Path_582177" data-name="Path 582177" d="M53.42,107.983l-9.494,5.481c-.284.164-.514-.01-.514-.389v-4.89a1.231,1.231,0,0,1,.514-.982l9.494-5.481c.284-.164.514.01.514.389V107a1.232,1.232,0,0,1-.514.982" transform="translate(-13.488 -31.585)" fill="#ba68c8"/>
        <g id="Group_283169" data-name="Group 283169" transform="translate(29.924 70.075)" opacity="0.6">
          <g id="Group_283168" data-name="Group 283168">
            <g id="Group_283167" data-name="Group 283167" clip-path="url(#clip-path-18)">
              <path id="Path_582178" data-name="Path 582178" d="M53.42,107.983l-9.494,5.481c-.284.164-.514-.01-.514-.389v-4.89a1.231,1.231,0,0,1,.514-.982l9.494-5.481c.284-.164.514.01.514.389V107a1.232,1.232,0,0,1-.514.982" transform="translate(-43.412 -101.66)" fill="#fff"/>
            </g>
          </g>
        </g>
        <path id="Path_582179" data-name="Path 582179" d="M53.42,135.283l-9.494,5.481c-.284.164-.514-.01-.514-.389v-4.89a1.231,1.231,0,0,1,.514-.982l9.494-5.481c.284-.164.514.01.514.388V134.3a1.232,1.232,0,0,1-.514.982" transform="translate(-13.488 -40.067)" fill="#ba68c8"/>
        <g id="Group_283172" data-name="Group 283172" transform="translate(29.924 88.893)" opacity="0.6">
          <g id="Group_283171" data-name="Group 283171">
            <g id="Group_283170" data-name="Group 283170" clip-path="url(#clip-path-18)">
              <path id="Path_582180" data-name="Path 582180" d="M53.42,135.283l-9.494,5.481c-.284.164-.514-.01-.514-.389v-4.89a1.231,1.231,0,0,1,.514-.982l9.494-5.481c.284-.164.514.01.514.388V134.3a1.232,1.232,0,0,1-.514.982" transform="translate(-43.412 -128.96)" fill="#fff"/>
            </g>
          </g>
        </g>
        <path id="Path_582181" data-name="Path 582181" d="M77.6,121.32,68.11,126.8c-.284.164-.514-.01-.514-.389v-4.89a1.231,1.231,0,0,1,.514-.982l9.494-5.481c.284-.164.514.01.514.389v4.89a1.232,1.232,0,0,1-.514.982" transform="translate(-21.002 -35.729)" fill="#ba68c8"/>
        <g id="Group_283175" data-name="Group 283175" transform="translate(46.595 79.269)" opacity="0.6">
          <g id="Group_283174" data-name="Group 283174">
            <g id="Group_283173" data-name="Group 283173" clip-path="url(#clip-path-18)">
              <path id="Path_582182" data-name="Path 582182" d="M77.6,121.32,68.11,126.8c-.284.164-.514-.01-.514-.389v-4.89a1.231,1.231,0,0,1,.514-.982l9.494-5.481c.284-.164.514.01.514.389v4.89a1.232,1.232,0,0,1-.514.982" transform="translate(-67.596 -114.998)" fill="#fff"/>
            </g>
          </g>
        </g>
        <path id="Path_582183" data-name="Path 582183" d="M77.6,146.032l-9.494,5.481c-.284.164-.514-.01-.514-.389v-4.89a1.231,1.231,0,0,1,.514-.982l9.494-5.481c.284-.164.514.01.514.389v4.89a1.232,1.232,0,0,1-.514.982" transform="translate(-21.002 -43.407)" fill="#ba68c8"/>
        <g id="Group_283178" data-name="Group 283178" transform="translate(46.595 96.302)" opacity="0.6">
          <g id="Group_283177" data-name="Group 283177">
            <g id="Group_283176" data-name="Group 283176" clip-path="url(#clip-path-18)">
              <path id="Path_582184" data-name="Path 582184" d="M77.6,146.032l-9.494,5.481c-.284.164-.514-.01-.514-.389v-4.89a1.231,1.231,0,0,1,.514-.982l9.494-5.481c.284-.164.514.01.514.389v4.89a1.232,1.232,0,0,1-.514.982" transform="translate(-67.596 -139.709)" fill="#fff"/>
            </g>
          </g>
        </g>
        <path id="Path_582185" data-name="Path 582185" d="M28.593,122.317,19.1,127.8c-.284.164-.514-.01-.514-.389v-4.89a1.231,1.231,0,0,1,.514-.982l9.494-5.481c.284-.164.514.01.514.389v4.89a1.231,1.231,0,0,1-.514.982" transform="translate(-5.774 -36.039)" fill="#ba68c8"/>
        <g id="Group_283181" data-name="Group 283181" transform="translate(12.811 79.955)" opacity="0.6">
          <g id="Group_283180" data-name="Group 283180">
            <g id="Group_283179" data-name="Group 283179" clip-path="url(#clip-path-18)">
              <path id="Path_582186" data-name="Path 582186" d="M28.593,122.317,19.1,127.8c-.284.164-.514-.01-.514-.389v-4.89a1.231,1.231,0,0,1,.514-.982l9.494-5.481c.284-.164.514.01.514.389v4.89a1.231,1.231,0,0,1-.514.982" transform="translate(-18.585 -115.994)" fill="#fff"/>
            </g>
          </g>
        </g>
        <path id="Path_582187" data-name="Path 582187" d="M72.665,70.45,68.65,64.842a1.538,1.538,0,0,1,.48-1.79l8.03-4.636c.507-.292.791.441.48,1.236L73.624,69.9c-.243.622-.716.895-.96.554" transform="translate(-21.289 -18.129)" fill="#455a64"/>
        <path id="Path_582188" data-name="Path 582188" d="M77.361,92.324l-3.719,6.413c-.215.372-.511.543-.727.42L69.2,97.038c-.326-.186-.326-.939,0-1.5l3.719-6.414c.216-.372.511-.542.727-.42l3.719,2.119c.327.186.327.94,0,1.5" transform="translate(-21.423 -27.547)" fill="#ba68c8"/>
        <g id="Group_283184" data-name="Group 283184" transform="translate(47.528 61.116)" opacity="0.3">
          <g id="Group_283183" data-name="Group 283183">
            <g id="Group_283182" data-name="Group 283182" clip-path="url(#clip-path-25)">
              <path id="Path_582189" data-name="Path 582189" d="M77.361,92.324l-3.719,6.413c-.215.372-.511.543-.727.42L69.2,97.038c-.326-.186-.326-.939,0-1.5l3.719-6.414c.216-.372.511-.542.727-.42l3.719,2.119c.327.186.327.94,0,1.5" transform="translate(-68.951 -88.663)" fill="#9d61ff"/>
            </g>
          </g>
        </g>
        <path id="Path_582190" data-name="Path 582190" d="M28.349,147.922l-3.719,6.413c-.216.372-.511.543-.727.42l-3.719-2.119c-.326-.186-.326-.939,0-1.5L23.9,144.72c.216-.372.511-.542.727-.42l3.719,2.119c.327.186.327.94,0,1.5" transform="translate(-6.195 -44.821)" fill="#ba68c8"/>
        <g id="Group_283187" data-name="Group 283187" transform="translate(13.744 99.44)" opacity="0.3">
          <g id="Group_283186" data-name="Group 283186">
            <g id="Group_283185" data-name="Group 283185" clip-path="url(#clip-path-26)">
              <path id="Path_582191" data-name="Path 582191" d="M28.349,147.922l-3.719,6.413c-.216.372-.511.543-.727.42l-3.719-2.119c-.326-.186-.326-.939,0-1.5L23.9,144.72c.216-.372.511-.542.727-.42l3.719,2.119c.327.186.327.94,0,1.5" transform="translate(-19.939 -144.261)" fill="#fff"/>
            </g>
          </g>
        </g>
        <path id="Path_582192" data-name="Path 582192" d="M42.835,91.99a.172.172,0,0,1-.086-.322L53.958,85.2a.172.172,0,0,1,.172.3L42.921,91.967a.179.179,0,0,1-.086.023" transform="translate(-13.255 -26.463)" fill="#455a64"/>
        <path id="Path_582193" data-name="Path 582193" d="M42.835,94.347a.172.172,0,0,1-.086-.322l11.209-6.471a.172.172,0,0,1,.172.3L42.921,94.325a.179.179,0,0,1-.086.023" transform="translate(-13.255 -27.195)" fill="#e0e0e0"/>
        <path id="Path_582194" data-name="Path 582194" d="M42.835,96.706a.172.172,0,0,1-.086-.322l11.209-6.472a.173.173,0,0,1,.172.3L42.921,96.684a.179.179,0,0,1-.086.023" transform="translate(-13.255 -27.928)" fill="#e0e0e0"/>
        <path id="Path_582195" data-name="Path 582195" d="M42.835,99.065a.172.172,0,0,1-.086-.322l11.209-6.472a.173.173,0,0,1,.172.3L42.921,99.042a.179.179,0,0,1-.086.023" transform="translate(-13.255 -28.661)" fill="#e0e0e0"/>
        <path id="Path_582196" data-name="Path 582196" d="M66.361,51.665a.173.173,0,0,1-.086-.322l11.209-6.471a.172.172,0,1,1,.172.3L66.448,51.643a.177.177,0,0,1-.086.023" transform="translate(-20.565 -13.934)" fill="#455a64"/>
        <path id="Path_582197" data-name="Path 582197" d="M66.361,54.024a.173.173,0,0,1-.086-.322l11.209-6.471a.172.172,0,1,1,.172.3L66.448,54a.177.177,0,0,1-.086.023" transform="translate(-20.565 -14.667)" fill="#e0e0e0"/>
        <path id="Path_582198" data-name="Path 582198" d="M66.361,56.382a.173.173,0,0,1-.086-.322l11.209-6.471a.172.172,0,1,1,.172.3L66.448,56.358a.171.171,0,0,1-.086.023" transform="translate(-20.565 -15.4)" fill="#e0e0e0"/>
        <path id="Path_582199" data-name="Path 582199" d="M66.361,58.74a.173.173,0,0,1-.086-.322l11.209-6.471a.172.172,0,1,1,.172.3L66.448,58.717a.177.177,0,0,1-.086.023" transform="translate(-20.565 -16.132)" fill="#e0e0e0"/>
        <g id="Group_283190" data-name="Group 283190" transform="translate(221.59 2.961)" opacity="0.2">
          <g id="Group_283189" data-name="Group 283189">
            <g id="Group_283188" data-name="Group 283188" clip-path="url(#clip-path-27)">
              <path id="Path_582200" data-name="Path 582200" d="M383.6,39.667,322.538,4.442c-.591-.341-1.07-.064-1.07.618V67.742a2.365,2.365,0,0,0,1.07,1.853L383.6,104.82c.591.341,1.07.064,1.07-.618V41.52a2.365,2.365,0,0,0-1.07-1.853" transform="translate(-321.468 -4.296)"/>
            </g>
          </g>
        </g>
        <path id="Path_582201" data-name="Path 582201" d="M377.8,105.939a.93.93,0,0,1-.456-.136l-57.11-33a3.8,3.8,0,0,1-1.7-2.932V12.362c0-.632.266-1.009.713-1.009a1.387,1.387,0,0,1,.67.211l57.115,32.972a3.811,3.811,0,0,1,1.7,2.934v57.056a1.839,1.839,0,0,1-.294,1.033.791.791,0,0,1-.636.379" transform="translate(-98.968 -3.527)" fill="#fafafa"/>
        <path id="Path_582202" data-name="Path 582202" d="M407.593,123.175c-.2.106-1.639.926-2.269,1.286a1.882,1.882,0,0,0,.681-1.553v-51l2.368-1.386v51.051a1.8,1.8,0,0,1-.78,1.605" transform="translate(-125.931 -21.909)" fill="#ebebeb"/>
        <path id="Path_582203" data-name="Path 582203" d="M319.112,11.526a1.051,1.051,0,0,1,.514.169L376.74,44.667a3.456,3.456,0,0,1,1.538,2.663v57.056c0,.587-.288,1.1-.616,1.1a.617.617,0,0,1-.3-.1l-57.113-33a3.45,3.45,0,0,1-1.539-2.66V12.222c0-.26.052-.7.4-.7m0-.625c-.607,0-1.024.484-1.024,1.321V69.728a4.081,4.081,0,0,0,1.851,3.2l57.112,33a1.222,1.222,0,0,0,.611.179c.722,0,1.241-.792,1.241-1.725V47.33a4.09,4.09,0,0,0-1.85-3.2L319.938,11.154a1.678,1.678,0,0,0-.827-.253" transform="translate(-98.828 -3.387)" fill="#e0e0e0"/>
        <path id="Path_582204" data-name="Path 582204" d="M318.091,11.584v6.168L378.9,52.85l2.368-1.378V45.384a3.838,3.838,0,0,0-.562-1.85,3.729,3.729,0,0,0-1.288-1.35L322.3,9.21a1.325,1.325,0,0,0-1.35-.107c-.336.208-1.956,1.13-2.288,1.3a.607.607,0,0,0-.14.1.888.888,0,0,0-.146.146.963.963,0,0,0-.118.185.861.861,0,0,0-.091.225,1.257,1.257,0,0,0-.056.253v.012a2.072,2.072,0,0,0-.021.264" transform="translate(-98.829 -2.785)" fill="#ba68c8"/>
        <g id="Group_283193" data-name="Group 283193" transform="translate(219.262 6.18)" opacity="0.15">
          <g id="Group_283192" data-name="Group 283192">
            <g id="Group_283191" data-name="Group 283191" clip-path="url(#clip-path-28)">
              <path id="Path_582205" data-name="Path 582205" d="M318.091,11.584v6.168L378.9,52.85l2.368-1.378V45.384a3.838,3.838,0,0,0-.562-1.85,3.729,3.729,0,0,0-1.288-1.35L322.3,9.21a1.325,1.325,0,0,0-1.35-.107c-.336.208-1.956,1.13-2.288,1.3a.607.607,0,0,0-.14.1.888.888,0,0,0-.146.146.963.963,0,0,0-.118.185.861.861,0,0,0-.091.225,1.257,1.257,0,0,0-.056.253v.012a2.072,2.072,0,0,0-.021.264" transform="translate(-318.091 -8.965)"/>
            </g>
          </g>
        </g>
        <path id="Path_582206" data-name="Path 582206" d="M318.091,12.186v6.168l60.811,35.1V47.33a3.272,3.272,0,0,0-.224-1.148c-.023-.061-.045-.129-.073-.191a4.873,4.873,0,0,0-.253-.5,3.726,3.726,0,0,0-1.3-1.366L319.941,11.157a1.227,1.227,0,0,0-1.417-.056.888.888,0,0,0-.146.146.963.963,0,0,0-.118.185.861.861,0,0,0-.091.225,1.257,1.257,0,0,0-.056.253v.012a2.072,2.072,0,0,0-.021.264" transform="translate(-98.829 -3.387)" fill="#9d61ff"/>
        <path id="Path_582207" data-name="Path 582207" d="M335.586,23.474a3.046,3.046,0,0,1,1.155,2.444c0,.982-.517,1.479-1.155,1.111a3.047,3.047,0,0,1-1.155-2.444c0-.982.517-1.479,1.155-1.111" transform="translate(-103.905 -7.256)" fill="#fafafa"/>
        <path id="Path_582208" data-name="Path 582208" d="M329.556,19.986a3.046,3.046,0,0,1,1.155,2.444c0,.982-.517,1.479-1.155,1.111A3.046,3.046,0,0,1,328.4,21.1c0-.982.517-1.479,1.155-1.111" transform="translate(-102.032 -6.172)" fill="#fafafa"/>
        <path id="Path_582209" data-name="Path 582209" d="M323.525,16.5a3.046,3.046,0,0,1,1.155,2.444c0,.982-.517,1.479-1.155,1.111a3.046,3.046,0,0,1-1.155-2.444c0-.982.517-1.479,1.155-1.111" transform="translate(-100.158 -5.088)" fill="#fafafa"/>
        <path id="Path_582210" data-name="Path 582210" d="M320.214,10.55l57.112,32.973a3.8,3.8,0,0,1,1.3,1.373l2.35-1.361a3.685,3.685,0,0,0-1.286-1.35L322.576,9.212a1.3,1.3,0,0,0-1.344-.111c-.332.2-1.867,1.077-2.257,1.286a1.339,1.339,0,0,1,1.239.163" transform="translate(-99.103 -2.785)" fill="#ba68c8"/>
        <g id="Group_283196" data-name="Group 283196" transform="translate(219.872 6.178)" opacity="0.5">
          <g id="Group_283195" data-name="Group 283195">
            <g id="Group_283194" data-name="Group 283194" clip-path="url(#clip-path-29)">
              <path id="Path_582211" data-name="Path 582211" d="M320.214,10.55l57.112,32.973a3.8,3.8,0,0,1,1.3,1.373l2.35-1.361a3.685,3.685,0,0,0-1.286-1.35L322.576,9.212a1.3,1.3,0,0,0-1.344-.111c-.332.2-1.867,1.077-2.257,1.286a1.339,1.339,0,0,1,1.239.163" transform="translate(-318.975 -8.963)" fill="#fff"/>
            </g>
          </g>
        </g>
        <path id="Path_582212" data-name="Path 582212" d="M375.582,63.675,325.436,34.907c-.7-.407-1.276-.077-1.276.737V72.731a2.82,2.82,0,0,0,1.276,2.21l50.146,28.768c.7.407,1.276.077,1.276-.737V65.885a2.821,2.821,0,0,0-1.276-2.21" transform="translate(-100.714 -10.791)" fill="#ba68c8"/>
        <g id="Group_283199" data-name="Group 283199" transform="translate(223.446 23.941)" opacity="0.9">
          <g id="Group_283198" data-name="Group 283198">
            <g id="Group_283197" data-name="Group 283197" clip-path="url(#clip-path-30)">
              <path id="Path_582213" data-name="Path 582213" d="M375.582,63.675,325.436,34.907c-.7-.407-1.276-.077-1.276.737V72.731a2.82,2.82,0,0,0,1.276,2.21l50.146,28.768c.7.407,1.276.077,1.276-.737V65.885a2.821,2.821,0,0,0-1.276-2.21" transform="translate(-324.16 -34.732)" fill="#fff"/>
            </g>
          </g>
        </g>
        <g id="Group_283202" data-name="Group 283202" transform="translate(223.446 23.941)" opacity="0.3">
          <g id="Group_283201" data-name="Group 283201">
            <g id="Group_283200" data-name="Group 283200" clip-path="url(#clip-path-30)">
              <path id="Path_582214" data-name="Path 582214" d="M324.866,35.138a.752.752,0,0,1,.368.121l50.144,28.768a2.41,2.41,0,0,1,1.073,1.858v37.087c0,.188-.039.5-.3.5a.752.752,0,0,1-.368-.121L325.639,74.589a2.411,2.411,0,0,1-1.073-1.859V35.643c0-.189.039-.505.3-.505m0-.406c-.419,0-.706.334-.706.911V72.73a2.819,2.819,0,0,0,1.276,2.211l50.145,28.768a1.154,1.154,0,0,0,.57.174c.419,0,.706-.334.706-.911V65.885a2.821,2.821,0,0,0-1.277-2.211L325.436,34.906a1.154,1.154,0,0,0-.57-.174" transform="translate(-324.16 -34.732)" fill="#ba68c8"/>
            </g>
          </g>
        </g>
        <g id="Group_283205" data-name="Group 283205" transform="translate(229.462 44.663)" opacity="0.3">
          <g id="Group_283204" data-name="Group 283204">
            <g id="Group_283203" data-name="Group 283203" clip-path="url(#clip-path-32)">
              <path id="Path_582215" data-name="Path 582215" d="M373.827,107.761a82.5,82.5,0,0,0-.614-8.756c-.374-3.157-1.139-8.482-4.184-10.24s-4.187,1.419-4.627,2.984c-.571,2.03-3.548.744-3.963-2.6s-.683-14-4.25-16.057-4.721,2.9-5.126,4.282c-.8,2.718-3.142,1.969-3.907.167s-2.848-2.24-3.635.294-1.276,5.441-3.827,3.948c-2.237-1.31-1.209-3.7-3.393-4.831-1.726-.895-2.529,3.368-2.529,7.685Z" transform="translate(-333.162 -67.218)" fill="#ba68c8"/>
              <path id="Path_582216" data-name="Path 582216" d="M388.241,90.914c0,.465-.417.6-.931.3l-5.053-2.91a1.865,1.865,0,0,1-.931-1.379c0-.465.417-.6.931-.3l5.053,2.91a1.865,1.865,0,0,1,.931,1.379" transform="translate(-347.937 -71.528)" fill="#ba68c8"/>
              <path id="Path_582217" data-name="Path 582217" d="M367.717,69.24c0,.465-.417.6-.931.3l-5.053-2.91a1.865,1.865,0,0,1-.931-1.379c0-.465.417-.6.931-.3l5.053,2.91a1.865,1.865,0,0,1,.931,1.379" transform="translate(-341.56 -64.794)" fill="#ba68c8"/>
              <path id="Path_582218" data-name="Path 582218" d="M353.29,72.065c0,.465-.417.6-.931.3l-5.053-2.91a1.865,1.865,0,0,1-.931-1.379c0-.465.417-.6.931-.3l5.053,2.91a1.865,1.865,0,0,1,.931,1.379" transform="translate(-337.078 -65.672)" fill="#ba68c8"/>
              <path id="Path_582219" data-name="Path 582219" d="M339.8,75.16c0,.465-.417.6-.931.3l-5.053-2.91a1.865,1.865,0,0,1-.931-1.379c0-.465.417-.6.931-.3l5.053,2.91a1.866,1.866,0,0,1,.931,1.379" transform="translate(-332.888 -66.633)" fill="#ba68c8"/>
            </g>
          </g>
        </g>
        <line id="Line_98120" data-name="Line 98120" y2="0.406" transform="translate(265.328 66.21)" fill="none" stroke="#fff" stroke-linecap="round" stroke-linejoin="round" stroke-width="0.589"/>
        <line id="Line_98121" data-name="Line 98121" y2="13.166" transform="translate(265.328 68.165)" fill="none" stroke="#fff" stroke-linecap="round" stroke-linejoin="round" stroke-width="0.589" stroke-dasharray="1.124 2.247"/>
        <line id="Line_98122" data-name="Line 98122" y2="0.406" transform="translate(265.328 82.106)" fill="none" stroke="#fff" stroke-linecap="round" stroke-linejoin="round" stroke-width="0.589"/>
        <line id="Line_98123" data-name="Line 98123" y2="0.406" transform="translate(241.783 53.649)" fill="none" stroke="#fff" stroke-linecap="round" stroke-linejoin="round" stroke-width="0.589"/>
        <line id="Line_98124" data-name="Line 98124" y2="11.878" transform="translate(241.783 55.752)" fill="none" stroke="#fff" stroke-linecap="round" stroke-linejoin="round" stroke-width="0.589" stroke-dasharray="1.231 2.462"/>
        <line id="Line_98125" data-name="Line 98125" y2="0.406" transform="translate(241.783 68.479)" fill="none" stroke="#fff" stroke-linecap="round" stroke-linejoin="round" stroke-width="0.589"/>
        <line id="Line_98126" data-name="Line 98126" x1="0.001" y2="0.406" transform="translate(232.589 54.395)" fill="none" stroke="#fff" stroke-linecap="round" stroke-linejoin="round" stroke-width="0.589"/>
        <line id="Line_98127" data-name="Line 98127" x1="0.011" y2="6.08" transform="translate(232.575 56.321)" fill="none" stroke="#fff" stroke-linecap="round" stroke-linejoin="round" stroke-width="0.589" stroke-dasharray="1.103 2.205"/>
        <line id="Line_98128" data-name="Line 98128" x1="0.001" y2="0.406" transform="translate(232.573 63.161)" fill="none" stroke="#fff" stroke-linecap="round" stroke-linejoin="round" stroke-width="0.589"/>
        <line id="Line_98129" data-name="Line 98129" y2="0.406" transform="translate(251.679 50.175)" fill="none" stroke="#fff" stroke-linecap="round" stroke-linejoin="round" stroke-width="0.589"/>
        <line id="Line_98130" data-name="Line 98130" y2="21.169" transform="translate(251.679 52.209)" fill="none" stroke="#fff" stroke-linecap="round" stroke-linejoin="round" stroke-width="0.589" stroke-dasharray="1.181 2.362"/>
        <line id="Line_98131" data-name="Line 98131" y2="0.406" transform="translate(251.679 74.192)" fill="none" stroke="#fff" stroke-linecap="round" stroke-linejoin="round" stroke-width="0.589"/>
        <g id="Group_283208" data-name="Group 283208" transform="translate(45.665 90.437)" opacity="0.2">
          <g id="Group_283207" data-name="Group 283207">
            <g id="Group_283206" data-name="Group 283206" clip-path="url(#clip-path-33)">
              <path id="Path_582220" data-name="Path 582220" d="M66.908,153.054l37.727-21.764c.365-.211.661-.04.661.381V168.73a1.459,1.459,0,0,1-.661,1.144L66.908,191.639c-.365.211-.661.04-.661-.382V154.2a1.462,1.462,0,0,1,.661-1.145" transform="translate(-66.247 -131.2)"/>
            </g>
          </g>
        </g>
        <path id="Path_582221" data-name="Path 582221" d="M104.482,135.646,69.506,155.816a1.61,1.61,0,0,0-.729,1.261v35.78a1.59,1.59,0,0,0,.733,1.254l1.388.788a1.632,1.632,0,0,0,1.461-.008l34.976-20.168a1.61,1.61,0,0,0,.729-1.262V137.681a1.589,1.589,0,0,0-.733-1.255l-1.388-.787a1.63,1.63,0,0,0-1.461.007" transform="translate(-21.369 -42.09)" fill="#ba68c8"/>
        <g id="Group_283211" data-name="Group 283211" transform="translate(47.409 114.244)">
          <g id="Group_283210" data-name="Group 283210">
            <g id="Group_283209" data-name="Group 283209" clip-path="url(#clip-path-34)">
              <path id="Path_582222" data-name="Path 582222" d="M72.36,204.3a1.669,1.669,0,0,1-1.463.009l-1.386-.79a1.583,1.583,0,0,1-.733-1.253V166.481a1.5,1.5,0,0,1,.232-.743l2.837,1.641a1.456,1.456,0,0,0-.215.718v35.777c0,.426.3.671.729.422" transform="translate(-68.778 -165.737)" fill="#9d61ff"/>
            </g>
          </g>
        </g>
        <g id="Group_283214" data-name="Group 283214" transform="translate(47.637 93.38)">
          <g id="Group_283213" data-name="Group 283213">
            <g id="Group_283212" data-name="Group 283212" clip-path="url(#clip-path-35)">
              <path id="Path_582223" data-name="Path 582223" d="M108.157,137.549c-.057-.367-.357-.5-.72-.29L72.463,157.43a1.493,1.493,0,0,0-.514.545l-2.841-1.641a1.463,1.463,0,0,1,.5-.518l34.977-20.17a1.628,1.628,0,0,1,1.461-.007l1.386.786a1.608,1.608,0,0,1,.724,1.124" transform="translate(-69.108 -135.469)" fill="#d9c2fe"/>
            </g>
          </g>
        </g>
        <path id="Path_582224" data-name="Path 582224" d="M108.621,138.023,73.645,158.192a1.612,1.612,0,0,0-.729,1.262v35.778c0,.465.327.653.729.42l34.977-20.168a1.61,1.61,0,0,0,.729-1.262V138.444c0-.465-.326-.653-.729-.42" transform="translate(-22.654 -42.852)" fill="#fff"/>
        <path id="Path_582225" data-name="Path 582225" d="M108.767,138.613v35.61a1.047,1.047,0,0,1-.436.757L73.5,195.065v-35.61a1.046,1.046,0,0,1,.437-.757Zm.181-.689a.661.661,0,0,0-.326.1L73.645,158.192a1.612,1.612,0,0,0-.729,1.262v35.779c0,.329.164.52.4.52a.657.657,0,0,0,.325-.1l34.977-20.169a1.61,1.61,0,0,0,.729-1.262V138.444c0-.33-.164-.52-.4-.52" transform="translate(-22.654 -42.852)" fill="#9d61ff"/>
        <path id="Path_582226" data-name="Path 582226" d="M86.752,171.021v5.033c-2.178,1.257-3.941,4.629-3.941,7.531l-3.775,2.179c0-5.682,3.454-12.281,7.715-14.742" transform="translate(-24.556 -53.135)" fill="#ba68c8"/>
        <path id="Path_582227" data-name="Path 582227" d="M83.918,192.259,81.2,197.324c-1.421-1.142-2.164-3.169-2.164-5.9l3.775-2.18a3.758,3.758,0,0,0,1.106,3.012" transform="translate(-24.556 -58.798)" fill="#ba68c8"/>
        <path id="Path_582228" data-name="Path 582228" d="M95.444,176.436c0,5.682-3.455,12.284-7.716,14.745-2.217,1.279-4.011,1.3-5.551.063l2.717-5.066a2.411,2.411,0,0,0,2.834-.032c2.177-1.257,3.941-4.627,3.941-7.531s-1.764-4.236-3.941-2.979V170.6c4.261-2.461,7.716.151,7.716,5.833" transform="translate(-25.532 -52.718)" fill="#ba68c8"/>
        <g id="Group_283217" data-name="Group 283217" transform="translate(56.645 116.96)" opacity="0.4">
          <g id="Group_283216" data-name="Group 283216">
            <g id="Group_283215" data-name="Group 283215" clip-path="url(#clip-path-36)">
              <path id="Path_582229" data-name="Path 582229" d="M95.444,176.436c0,5.682-3.455,12.284-7.716,14.745-2.217,1.279-4.011,1.3-5.551.063l2.717-5.066a2.411,2.411,0,0,0,2.834-.032c2.177-1.257,3.941-4.627,3.941-7.531s-1.764-4.236-3.941-2.979V170.6c4.261-2.461,7.716.151,7.716,5.833" transform="translate(-82.177 -169.678)" fill="#fff"/>
            </g>
          </g>
        </g>
        <path id="Path_582230" data-name="Path 582230" d="M88.807,190.263a6.856,6.856,0,0,1-2.055,1.963,2.412,2.412,0,0,1-2.834.032,3.758,3.758,0,0,1-1.107-3.012l-3.775,2.179c0,2.729.743,4.757,2.165,5.9,1.54,1.236,3.334,1.217,5.551-.063a13.5,13.5,0,0,0,4.083-3.928Z" transform="translate(-24.556 -58.798)" fill="#ba68c8"/>
        <g id="Group_283220" data-name="Group 283220" transform="translate(54.481 130.449)" opacity="0.3">
          <g id="Group_283219" data-name="Group 283219">
            <g id="Group_283218" data-name="Group 283218" clip-path="url(#clip-path-37)">
              <path id="Path_582231" data-name="Path 582231" d="M88.807,190.263a6.856,6.856,0,0,1-2.055,1.963,2.412,2.412,0,0,1-2.834.032,3.758,3.758,0,0,1-1.107-3.012l-3.775,2.179c0,2.729.743,4.757,2.165,5.9,1.54,1.236,3.334,1.217,5.551-.063a13.5,13.5,0,0,0,4.083-3.928Z" transform="translate(-79.036 -189.247)"/>
            </g>
          </g>
        </g>
        <path id="Path_582232" data-name="Path 582232" d="M107.277,166.484l-2.249,1.3a.1.1,0,0,0-.045.079v2.6c0,.029.021.041.045.026l2.249-1.3a.1.1,0,0,0,.046-.079v-2.6c0-.029-.021-.041-.046-.026" transform="translate(-32.617 -51.724)" fill="#ba68c8"/>
        <g id="Group_283223" data-name="Group 283223" transform="translate(72.365 114.754)" opacity="0.4">
          <g id="Group_283222" data-name="Group 283222">
            <g id="Group_283221" data-name="Group 283221" clip-path="url(#clip-path-38)">
              <path id="Path_582233" data-name="Path 582233" d="M107.277,166.484l-2.249,1.3a.1.1,0,0,0-.045.079v2.6c0,.029.021.041.045.026l2.249-1.3a.1.1,0,0,0,.046-.079v-2.6c0-.029-.021-.041-.046-.026" transform="translate(-104.982 -166.478)" fill="#fff"/>
            </g>
          </g>
        </g>
        <path id="Path_582234" data-name="Path 582234" d="M110.645,164.659a.166.166,0,0,1-.083-.311l6.3-3.618a.167.167,0,1,1,.166.289l-6.3,3.618a.166.166,0,0,1-.083.022" transform="translate(-34.325 -49.931)" fill="#455a64"/>
        <path id="Path_582235" data-name="Path 582235" d="M110.645,166.738a.166.166,0,0,1-.083-.311l6.3-3.618a.167.167,0,1,1,.166.289l-6.3,3.618a.166.166,0,0,1-.083.022" transform="translate(-34.325 -50.577)" fill="#455a64"/>
        <path id="Path_582236" data-name="Path 582236" d="M107.277,174.191l-2.249,1.3a.1.1,0,0,0-.045.079v2.6c0,.029.021.041.045.026l2.249-1.3a.1.1,0,0,0,.046-.079v-2.6c0-.029-.021-.041-.046-.026" transform="translate(-32.617 -54.118)" fill="#ba68c8"/>
        <path id="Path_582237" data-name="Path 582237" d="M110.645,172.366a.167.167,0,0,1-.083-.311l6.3-3.618a.167.167,0,1,1,.166.289l-6.3,3.618a.167.167,0,0,1-.083.022" transform="translate(-34.325 -52.325)" fill="#455a64"/>
        <path id="Path_582238" data-name="Path 582238" d="M110.645,174.445a.166.166,0,0,1-.083-.311l6.3-3.618a.167.167,0,1,1,.166.289l-6.3,3.618a.166.166,0,0,1-.083.022" transform="translate(-34.325 -52.971)" fill="#455a64"/>
        <path id="Path_582239" data-name="Path 582239" d="M107.277,181.9l-2.249,1.3a.1.1,0,0,0-.045.079v2.6c0,.029.021.041.045.026l2.249-1.3a.1.1,0,0,0,.046-.079v-2.6c0-.029-.021-.041-.046-.026" transform="translate(-32.617 -56.513)" fill="#ba68c8"/>
        <g id="Group_283226" data-name="Group 283226" transform="translate(72.365 125.379)" opacity="0.3">
          <g id="Group_283225" data-name="Group 283225">
            <g id="Group_283224" data-name="Group 283224" clip-path="url(#clip-path-38)">
              <path id="Path_582240" data-name="Path 582240" d="M107.277,181.9l-2.249,1.3a.1.1,0,0,0-.045.079v2.6c0,.029.021.041.045.026l2.249-1.3a.1.1,0,0,0,.046-.079v-2.6c0-.029-.021-.041-.046-.026" transform="translate(-104.982 -181.892)"/>
            </g>
          </g>
        </g>
        <path id="Path_582241" data-name="Path 582241" d="M110.645,180.073a.166.166,0,0,1-.083-.311l6.3-3.618a.167.167,0,0,1,.166.29l-6.3,3.617a.166.166,0,0,1-.083.022" transform="translate(-34.325 -54.72)" fill="#455a64"/>
        <path id="Path_582242" data-name="Path 582242" d="M110.645,182.152a.166.166,0,0,1-.083-.311l6.3-3.618a.167.167,0,0,1,.166.289l-6.3,3.617a.166.166,0,0,1-.083.022" transform="translate(-34.325 -55.366)" fill="#455a64"/>
        <g id="Group_283229" data-name="Group 283229" transform="translate(206.192 90.437)" opacity="0.2">
          <g id="Group_283228" data-name="Group 283228">
            <g id="Group_283227" data-name="Group 283227" clip-path="url(#clip-path-40)">
              <path id="Path_582243" data-name="Path 582243" d="M337.519,153.054,299.792,131.29c-.365-.211-.661-.04-.661.381V168.73a1.459,1.459,0,0,0,.661,1.144l37.727,21.765c.365.211.661.04.661-.382V154.2a1.46,1.46,0,0,0-.661-1.145" transform="translate(-299.13 -131.2)"/>
            </g>
          </g>
        </g>
        <path id="Path_582244" data-name="Path 582244" d="M299.838,135.646l34.976,20.169a1.61,1.61,0,0,1,.729,1.261v35.78a1.589,1.589,0,0,1-.733,1.254l-1.388.788a1.632,1.632,0,0,1-1.461-.008l-34.976-20.168a1.61,1.61,0,0,1-.729-1.262V137.681a1.589,1.589,0,0,1,.733-1.255l1.388-.787a1.63,1.63,0,0,1,1.461.007" transform="translate(-92.045 -42.09)" fill="#9d61ff"/>
        <path id="Path_582247" data-name="Path 582247" d="M296.985,138.023l34.977,20.169a1.612,1.612,0,0,1,.729,1.262v35.778c0,.465-.327.653-.729.42l-34.977-20.168a1.61,1.61,0,0,1-.729-1.262V138.444c0-.465.326-.653.729-.42" transform="translate(-92.045 -42.852)" fill="#fff"/>
        <path id="Path_582248" data-name="Path 582248" d="M296.839,138.613,331.669,158.7a1.046,1.046,0,0,1,.437.757v35.61L297.274,174.98a1.046,1.046,0,0,1-.436-.757Zm-.18-.689c-.24,0-.4.19-.4.52v35.778a1.609,1.609,0,0,0,.729,1.262l34.977,20.169a.656.656,0,0,0,.325.1c.24,0,.4-.19.4-.52V159.454a1.612,1.612,0,0,0-.729-1.262l-34.977-20.169a.662.662,0,0,0-.325-.1" transform="translate(-92.044 -42.852)" fill="#ba68c8"/>
        <path id="Path_582249" data-name="Path 582249" d="M310.842,158.849a6.96,6.96,0,0,0-2.905-5.552,1.794,1.794,0,0,0-2.055-.051,2.73,2.73,0,0,0-.851,2.248,6.959,6.959,0,0,0,2.906,5.552,1.792,1.792,0,0,0,2.054.051,2.729,2.729,0,0,0,.851-2.248m-8.245,6.13,10.678,6.165-.174-1.993c-.22-2.517-1.549-5.061-3.117-5.966l-4.1-2.364a1.78,1.78,0,0,0-2.06-.008,3.3,3.3,0,0,0-1.057,2.375Z" transform="translate(-94.015 -47.52)" fill="#9d61ff"/>
        <path id="Path_582250" data-name="Path 582250" d="M307.722,185.467a6.958,6.958,0,0,0-2.905-5.552,1.793,1.793,0,0,0-2.055-.052,2.731,2.731,0,0,0-.851,2.249,6.959,6.959,0,0,0,2.906,5.552,1.794,1.794,0,0,0,2.054.052,2.732,2.732,0,0,0,.851-2.249" transform="translate(-93.802 -55.79)" fill="#455a64"/>
        <path id="Path_582251" data-name="Path 582251" d="M323.064,194a6.959,6.959,0,0,0-2.905-5.552,1.793,1.793,0,0,0-2.055-.052,2.732,2.732,0,0,0-.851,2.249,6.961,6.961,0,0,0,2.906,5.552,1.8,1.8,0,0,0,2.055.052,2.734,2.734,0,0,0,.851-2.249" transform="translate(-98.568 -58.441)" fill="#ba68c8"/>
        <path id="Path_582252" data-name="Path 582252" d="M338.4,202.531a6.958,6.958,0,0,0-2.905-5.552,1.794,1.794,0,0,0-2.055-.052,2.732,2.732,0,0,0-.851,2.249,6.959,6.959,0,0,0,2.906,5.552,1.8,1.8,0,0,0,2.055.052,2.734,2.734,0,0,0,.851-2.249" transform="translate(-103.334 -61.092)" fill="#ba68c8"/>
        <g id="Group_283238" data-name="Group 283238" transform="translate(229.259 135.539)" opacity="0.5">
          <g id="Group_283237" data-name="Group 283237">
            <g id="Group_283236" data-name="Group 283236" clip-path="url(#clip-path-41)">
              <path id="Path_582253" data-name="Path 582253" d="M338.4,202.531a6.958,6.958,0,0,0-2.905-5.552,1.794,1.794,0,0,0-2.055-.052,2.732,2.732,0,0,0-.851,2.249,6.959,6.959,0,0,0,2.906,5.552,1.8,1.8,0,0,0,2.055.052,2.734,2.734,0,0,0,.851-2.249" transform="translate(-332.593 -196.631)" fill="#fff"/>
            </g>
          </g>
        </g>
        <path id="Path_582254" data-name="Path 582254" d="M336.143,172.4a.327.327,0,0,0,.162-.61l-12.356-7.1a.327.327,0,1,0-.327.567l12.357,7.1a.324.324,0,0,0,.163.043" transform="translate(-100.496 -51.154)" fill="#455a64"/>
        <path id="Path_582255" data-name="Path 582255" d="M336.143,176.478a.327.327,0,0,0,.162-.61l-12.356-7.1a.327.327,0,1,0-.327.567l12.357,7.1a.324.324,0,0,0,.163.043" transform="translate(-100.496 -52.422)" fill="#455a64"/>
        <path id="Path_582256" data-name="Path 582256" d="M336.143,184.037a.327.327,0,0,0,.162-.61l-12.356-7.1a.327.327,0,1,0-.327.567l12.357,7.1a.324.324,0,0,0,.163.043" transform="translate(-100.496 -54.77)" fill="#e0e0e0"/>
        <path id="Path_582257" data-name="Path 582257" d="M336.143,188.116a.327.327,0,0,0,.162-.61l-12.356-7.1a.327.327,0,1,0-.327.567l12.357,7.1a.324.324,0,0,0,.163.043" transform="translate(-100.496 -56.038)" fill="#e0e0e0"/>
        <path id="Path_582258" data-name="Path 582258" d="M108.134,92.426l2.708,1.563,4.457-2.573V37l2.971-1.715-5.1-3.919-2.708-1.563-5.3,9.923,2.708,1.563.263-.152Z" transform="translate(-32.673 -9.26)" fill="#ba68c8"/>
        <g id="Group_283241" data-name="Group 283241" transform="translate(72.49 20.545)" opacity="0.8">
          <g id="Group_283240" data-name="Group 283240">
            <g id="Group_283239" data-name="Group 283239" clip-path="url(#clip-path-42)">
              <path id="Path_582259" data-name="Path 582259" d="M108.134,92.426l2.708,1.563,4.457-2.573V37l2.971-1.715-5.1-3.919-2.708-1.563-5.3,9.923,2.708,1.563.263-.152Z" transform="translate(-105.163 -29.806)" fill="#fff"/>
            </g>
          </g>
        </g>
        <path id="Path_582260" data-name="Path 582260" d="M112.062,94.694l4.457-2.573V37.707l2.971-1.715-5.1-3.919L109.091,42l2.971-1.716Z" transform="translate(-33.894 -9.965)" fill="#ba68c8"/>
        <g id="Group_283244" data-name="Group 283244" transform="translate(75.197 22.109)" opacity="0.7">
          <g id="Group_283243" data-name="Group 283243">
            <g id="Group_283242" data-name="Group 283242" clip-path="url(#clip-path-43)">
              <path id="Path_582261" data-name="Path 582261" d="M112.062,94.694l4.457-2.573V37.707l2.971-1.715-5.1-3.919L109.091,42l2.971-1.716Z" transform="translate(-109.091 -32.074)" fill="#fff"/>
            </g>
          </g>
        </g>
        <path id="Path_582262" data-name="Path 582262" d="M109.473,96.83l2.708,1.563V43.98l-2.708,1.563Z" transform="translate(-34.013 -13.664)" fill="#ba68c8"/>
        <g id="Group_283247" data-name="Group 283247" transform="translate(75.46 30.316)" opacity="0.5">
          <g id="Group_283246" data-name="Group 283246">
            <g id="Group_283245" data-name="Group 283245" clip-path="url(#clip-path-44)">
              <path id="Path_582263" data-name="Path 582263" d="M109.473,96.83l2.708,1.563V43.98l-2.708,1.563Z" transform="translate(-109.473 -43.98)" fill="#fff"/>
            </g>
          </g>
        </g>
        <path id="Path_582264" data-name="Path 582264" d="M126.85,88.454l2.029,1.172,3.34-1.929V43.478l2.227-1.286-3.82-2.936L128.6,38.085l-3.973,7.436,2.029,1.172.2-.114Z" transform="translate(-38.72 -11.833)" fill="#9d61ff"/>
        <g id="Group_283250" data-name="Group 283250" transform="translate(85.904 26.252)" opacity="0.1">
          <g id="Group_283249" data-name="Group 283249">
            <g id="Group_283248" data-name="Group 283248" clip-path="url(#clip-path-45)">
              <path id="Path_582265" data-name="Path 582265" d="M126.653,46.692l3.973-7.436L128.6,38.085l-3.973,7.436Z" transform="translate(-124.624 -38.085)" fill="#fff"/>
            </g>
          </g>
        </g>
        <g id="Group_283259" data-name="Group 283259" transform="translate(244.571 92.422)" opacity="0.15">
          <g id="Group_283258" data-name="Group 283258">
            <g id="Group_283257" data-name="Group 283257" clip-path="url(#clip-path-46)">
              <path id="Path_582269" data-name="Path 582269" d="M354.807,135.133c0-.942.661-1.323,1.476-.852l12.326,7.127a3.26,3.26,0,0,1,1.476,2.557v18.684c0,.942-.661,1.323-1.476.853l-12.327-7.127a3.263,3.263,0,0,1-1.476-2.557Z" transform="translate(-354.807 -134.079)"/>
            </g>
          </g>
        </g>
        <path id="Path_582270" data-name="Path 582270" d="M362.756,143.735l-12.326-7.127a3.262,3.262,0,0,0-2.952,0l-1.2.694a3.263,3.263,0,0,0-1.477,2.557v18.684a3.262,3.262,0,0,0,1.477,2.557l12.326,7.127a3.262,3.262,0,0,0,2.952,0l1.2-.694a3.261,3.261,0,0,0,1.476-2.557V146.291a3.263,3.263,0,0,0-1.476-2.557" transform="translate(-107.127 -42.333)" fill="#37474f"/>
        <path id="Path_582271" data-name="Path 582271" d="M344.8,141.008c0-.942.661-1.323,1.476-.852l12.326,7.127a3.262,3.262,0,0,1,1.476,2.557v18.684c0,.942-.661,1.323-1.476.853l-12.327-7.127a3.264,3.264,0,0,1-1.476-2.557Z" transform="translate(-107.127 -43.483)" fill="#455a64"/>
        <path id="Path_582272" data-name="Path 582272" d="M370.568,168.844a3.261,3.261,0,0,1-1.477,2.557l-1.2.694a3.3,3.3,0,0,1-2.7.119c.7.263,1.224-.13,1.224-.971V152.558a3.023,3.023,0,0,0-.432-1.455l4.154-2.4a3.019,3.019,0,0,1,.432,1.454Z" transform="translate(-113.462 -46.202)" fill="#263238"/>
        <path id="Path_582273" data-name="Path 582273" d="M355.709,162.436l-2.388-1.381c-.1-.06-.18.02-.18.174a.477.477,0,0,0,.18.38l2.388,1.381c.1.054.181-.02.181-.174a.463.463,0,0,0-.181-.38m-2.048-6.392.013.04c.067.26.134.547.194.847a17.986,17.986,0,0,1,.227,3.657v.38l.854.487v-.3a14.075,14.075,0,0,1,.234-3.389,3.527,3.527,0,0,1,.194-.633l.019-.047-.046-.054a5.087,5.087,0,0,1-.574-.813c-.093-.174-.187-.341-.267-.514l-.007-.02a1.346,1.346,0,0,1-.26.2,1.108,1.108,0,0,1-.58.16m2.048,7.419-2.388-1.374c-.1-.06-.18.014-.18.167a3.615,3.615,0,0,0,1.374,2.91c.753.44,1.368-.154,1.368-1.321a.492.492,0,0,0-.174-.38m-1.014-14.278a2.127,2.127,0,0,0-2.735-.013,4.631,4.631,0,0,0-1.148,3.463,11.256,11.256,0,0,0,1.821,5.945,2.948,2.948,0,0,1,.494,1.581.418.418,0,0,0,.161.341l.48.274v-.254a18.3,18.3,0,0,0-.221-3.583c-.067-.34-.14-.64-.213-.894l-.027-.08a.631.631,0,0,1-.314-.107,1.484,1.484,0,0,1-.547-.527.908.908,0,0,1-.14-.68c.04-.181.147-.287.287-.287a.424.424,0,0,1,.187.053,2.281,2.281,0,0,1,.721,1.128l.013.04.06.007a.892.892,0,0,0,.48-.141.9.9,0,0,0,.253-.221l-.013-.046a3.29,3.29,0,0,1-.247-1.661c.054-.2.167-.314.314-.314a.384.384,0,0,1,.194.06A1.08,1.08,0,0,1,355,154a1.97,1.97,0,0,1-.254,1.388l-.017.027c.08.18.2.4.29.567a3.93,3.93,0,0,0,.553.781.685.685,0,0,1,.527-.354.435.435,0,0,1,.234.066.982.982,0,0,1,.414.667c.046.274-.02.467-.181.547a.41.41,0,0,1-.167.033.815.815,0,0,1-.407-.127,2.42,2.42,0,0,1-.294-.213,4.42,4.42,0,0,0-.2.613,14.223,14.223,0,0,0-.221,3.283c0,.093.007.24.007.374l.46.267a.09.09,0,0,0,.113-.007.226.226,0,0,0,.047-.147c0-.534.18-.914.487-1.014,1.148-.381,1.841-1.888,1.821-3.937-.033-2.963-1.608-6.385-3.516-7.626m-1.9,5.6a.237.237,0,0,0-.1-.029c-.152,0-.141.2-.107.3a.868.868,0,0,0,.254.363.616.616,0,0,0,.209.128c.051.017.185.054.178-.037a.616.616,0,0,0-.074-.217q-.044-.1-.1-.188a.765.765,0,0,0-.263-.314m1.825.1a1.379,1.379,0,0,0,.139-.843.47.47,0,0,0-.21-.338.215.215,0,0,0-.105-.033c-.044,0-.122.017-.161.155a2.154,2.154,0,0,0,.139.993.472.472,0,0,0,.056.114.06.06,0,0,0,.032.028.051.051,0,0,0,.023,0,.121.121,0,0,0,.09-.076m1.372,2.368a.66.66,0,0,0,.323.108.254.254,0,0,0,.119-.03.181.181,0,0,0,.072-.2.45.45,0,0,0-.2-.323.274.274,0,0,0-.137-.036.537.537,0,0,0-.381.245.07.07,0,0,0-.012.017.066.066,0,0,0,0,.048c.021.066.079.092.132.128a.5.5,0,0,0,.083.048" transform="translate(-108.995 -46.195)" fill="#ba68c8"/>
        <g id="Group_283262" data-name="Group 283262" transform="translate(241.816 102.488)" opacity="0.85">
          <g id="Group_283261" data-name="Group 283261">
            <g id="Group_283260" data-name="Group 283260" clip-path="url(#clip-path-47)">
              <path id="Path_582274" data-name="Path 582274" d="M355.709,162.436l-2.388-1.381c-.1-.06-.18.02-.18.174a.477.477,0,0,0,.18.38l2.388,1.381c.1.054.181-.02.181-.174a.463.463,0,0,0-.181-.38m-2.048-6.392.013.04c.067.26.134.547.194.847a17.986,17.986,0,0,1,.227,3.657v.38l.854.487v-.3a14.075,14.075,0,0,1,.234-3.389,3.527,3.527,0,0,1,.194-.633l.019-.047-.046-.054a5.087,5.087,0,0,1-.574-.813c-.093-.174-.187-.341-.267-.514l-.007-.02a1.346,1.346,0,0,1-.26.2,1.108,1.108,0,0,1-.58.16m2.048,7.419-2.388-1.374c-.1-.06-.18.014-.18.167a3.615,3.615,0,0,0,1.374,2.91c.753.44,1.368-.154,1.368-1.321a.492.492,0,0,0-.174-.38m-1.014-14.278a2.127,2.127,0,0,0-2.735-.013,4.631,4.631,0,0,0-1.148,3.463,11.256,11.256,0,0,0,1.821,5.945,2.948,2.948,0,0,1,.494,1.581.418.418,0,0,0,.161.341l.48.274v-.254a18.3,18.3,0,0,0-.221-3.583c-.067-.34-.14-.64-.213-.894l-.027-.08a.631.631,0,0,1-.314-.107,1.484,1.484,0,0,1-.547-.527.908.908,0,0,1-.14-.68c.04-.181.147-.287.287-.287a.424.424,0,0,1,.187.053,2.281,2.281,0,0,1,.721,1.128l.013.04.06.007a.892.892,0,0,0,.48-.141.9.9,0,0,0,.253-.221l-.013-.046a3.29,3.29,0,0,1-.247-1.661c.054-.2.167-.314.314-.314a.384.384,0,0,1,.194.06A1.08,1.08,0,0,1,355,154a1.97,1.97,0,0,1-.254,1.388l-.017.027c.08.18.2.4.29.567a3.93,3.93,0,0,0,.553.781.685.685,0,0,1,.527-.354.435.435,0,0,1,.234.066.982.982,0,0,1,.414.667c.046.274-.02.467-.181.547a.41.41,0,0,1-.167.033.815.815,0,0,1-.407-.127,2.42,2.42,0,0,1-.294-.213,4.42,4.42,0,0,0-.2.613,14.223,14.223,0,0,0-.221,3.283c0,.093.007.24.007.374l.46.267a.09.09,0,0,0,.113-.007.226.226,0,0,0,.047-.147c0-.534.18-.914.487-1.014,1.148-.381,1.841-1.888,1.821-3.937-.033-2.963-1.608-6.385-3.516-7.626m-1.9,5.6a.237.237,0,0,0-.1-.029c-.152,0-.141.2-.107.3a.868.868,0,0,0,.254.363.616.616,0,0,0,.209.128c.051.017.185.054.178-.037a.616.616,0,0,0-.074-.217q-.044-.1-.1-.188a.765.765,0,0,0-.263-.314m1.825.1a1.379,1.379,0,0,0,.139-.843.47.47,0,0,0-.21-.338.215.215,0,0,0-.105-.033c-.044,0-.122.017-.161.155a2.154,2.154,0,0,0,.139.993.472.472,0,0,0,.056.114.06.06,0,0,0,.032.028.051.051,0,0,0,.023,0,.121.121,0,0,0,.09-.076m1.372,2.368a.66.66,0,0,0,.323.108.254.254,0,0,0,.119-.03.181.181,0,0,0,.072-.2.45.45,0,0,0-.2-.323.274.274,0,0,0-.137-.036.537.537,0,0,0-.381.245.07.07,0,0,0-.012.017.066.066,0,0,0,0,.048c.021.066.079.092.132.128a.5.5,0,0,0,.083.048" transform="translate(-350.811 -148.683)" fill="#fff"/>
            </g>
          </g>
        </g>
        <g id="Group_283265" data-name="Group 283265" transform="translate(265.883 104.709)" opacity="0.15">
          <g id="Group_283264" data-name="Group 283264">
            <g id="Group_283263" data-name="Group 283263" clip-path="url(#clip-path-48)">
              <path id="Path_582275" data-name="Path 582275" d="M385.725,152.959c0-.942.661-1.323,1.476-.852l12.326,7.127A3.262,3.262,0,0,1,401,161.79v18.684c0,.942-.661,1.323-1.476.853L387.2,174.2a3.263,3.263,0,0,1-1.476-2.557Z" transform="translate(-385.725 -151.905)"/>
            </g>
          </g>
        </g>
        <path id="Path_582276" data-name="Path 582276" d="M393.675,161.561l-12.326-7.127a3.262,3.262,0,0,0-2.952,0l-1.2.694a3.263,3.263,0,0,0-1.477,2.557v18.684a3.262,3.262,0,0,0,1.477,2.557l12.326,7.127a3.262,3.262,0,0,0,2.952,0l1.2-.694a3.261,3.261,0,0,0,1.477-2.557V164.117a3.263,3.263,0,0,0-1.477-2.557" transform="translate(-116.733 -47.872)" fill="#ba68c8"/>
        <g id="Group_283268" data-name="Group 283268" transform="translate(258.985 106.209)" opacity="0.7">
          <g id="Group_283267" data-name="Group 283267">
            <g id="Group_283266" data-name="Group 283266" clip-path="url(#clip-path-49)">
              <path id="Path_582277" data-name="Path 582277" d="M393.675,161.561l-12.326-7.127a3.262,3.262,0,0,0-2.952,0l-1.2.694a3.263,3.263,0,0,0-1.477,2.557v18.684a3.262,3.262,0,0,0,1.477,2.557l12.326,7.127a3.262,3.262,0,0,0,2.952,0l1.2-.694a3.261,3.261,0,0,0,1.477-2.557V164.117a3.263,3.263,0,0,0-1.477-2.557" transform="translate(-375.718 -154.081)" fill="#fff"/>
            </g>
          </g>
        </g>
        <path id="Path_582278" data-name="Path 582278" d="M375.718,158.834c0-.942.661-1.323,1.477-.852l12.326,7.127A3.26,3.26,0,0,1,391,167.665v18.684c0,.942-.661,1.323-1.476.853l-12.327-7.127a3.263,3.263,0,0,1-1.476-2.557Z" transform="translate(-116.733 -49.021)" fill="#ba68c8"/>
        <g id="Group_283271" data-name="Group 283271" transform="translate(258.985 108.759)" opacity="0.4">
          <g id="Group_283270" data-name="Group 283270">
            <g id="Group_283269" data-name="Group 283269" clip-path="url(#clip-path-50)">
              <path id="Path_582279" data-name="Path 582279" d="M375.718,158.834c0-.942.661-1.323,1.477-.852l12.326,7.127A3.26,3.26,0,0,1,391,167.665v18.684c0,.942-.661,1.323-1.476.853l-12.327-7.127a3.263,3.263,0,0,1-1.476-2.557Z" transform="translate(-375.718 -157.78)" fill="#9d61ff"/>
            </g>
          </g>
        </g>
        <path id="Path_582280" data-name="Path 582280" d="M401.486,186.67a3.261,3.261,0,0,1-1.477,2.557l-1.2.694a3.3,3.3,0,0,1-2.7.119c.7.263,1.224-.13,1.224-.971V170.384a3.021,3.021,0,0,0-.432-1.455l4.154-2.4a3.019,3.019,0,0,1,.432,1.454Z" transform="translate(-123.068 -51.74)" fill="#ba68c8"/>
        <g id="Group_283274" data-name="Group 283274" transform="translate(273.04 114.791)" opacity="0.2">
          <g id="Group_283273" data-name="Group 283273">
            <g id="Group_283272" data-name="Group 283272" clip-path="url(#clip-path-51)">
              <path id="Path_582281" data-name="Path 582281" d="M401.486,186.67a3.261,3.261,0,0,1-1.477,2.557l-1.2.694a3.3,3.3,0,0,1-2.7.119c.7.263,1.224-.13,1.224-.971V170.384a3.021,3.021,0,0,0-.432-1.455l4.154-2.4a3.019,3.019,0,0,1,.432,1.454Z" transform="translate(-396.108 -166.531)" fill="#fff"/>
            </g>
          </g>
        </g>
        <path id="Path_582282" data-name="Path 582282" d="M378.627,172.423a10.707,10.707,0,0,0,.084,1.325.327.327,0,0,0,.119.217l1.031.75a1.57,1.57,0,0,1,.523.846l0,0a.032.032,0,0,0,.006.017.941.941,0,0,1-.079.836l-.645.715a.225.225,0,0,0,0,.214,14.645,14.645,0,0,0,1.361,2.589c.049.074.116.11.162.088l.809-.4c.183-.088.434.017.664.274a.051.051,0,0,0,.014.014,1.677,1.677,0,0,1,.405.931l.121,1.446a.352.352,0,0,0,.111.221,7.61,7.61,0,0,0,.962.664,5.364,5.364,0,0,0,.96.44c.061.02.1-.018.111-.1l.116-1.309c.026-.292.18-.469.406-.465,0,0,.009,0,.013,0a.894.894,0,0,1,.662.485l.813,1.327c.047.077.112.119.161.1a2.907,2.907,0,0,0,1.357-1.032.24.24,0,0,0-.008-.219l-.645-1.457a1.26,1.26,0,0,1-.081-.926c0-.006,0-.009,0-.014a.373.373,0,0,1,.523-.247l1.034.432c.059.028.107,0,.118-.079a8.661,8.661,0,0,0,.08-1.228,10.707,10.707,0,0,0-.086-1.328.336.336,0,0,0-.116-.216l-1.037-.755a1.539,1.539,0,0,1-.52-.837.119.119,0,0,1-.006-.028.941.941,0,0,1,.077-.834l.643-.713a.221.221,0,0,0,0-.214,14.491,14.491,0,0,0-1.359-2.591c-.05-.072-.116-.11-.163-.086l-.809.392c-.179.09-.434-.017-.662-.269,0-.008-.008-.009-.013-.016a1.689,1.689,0,0,1-.407-.933l-.121-1.447a.342.342,0,0,0-.11-.221,6.491,6.491,0,0,0-1.922-1.1c-.058-.017-.1.018-.111.1l-.116,1.309c-.025.29-.18.469-.407.467,0,0-.007,0-.011,0a.917.917,0,0,1-.663-.49l-.813-1.327c-.048-.074-.112-.114-.16-.1a2.868,2.868,0,0,0-1.355,1.03.235.235,0,0,0,0,.217l.647,1.455a1.266,1.266,0,0,1,.083.924c0,.01,0,.017-.007.025a.37.37,0,0,1-.521.238l-1.031-.436c-.061-.025-.107.009-.118.079a9.082,9.082,0,0,0-.079,1.239m2.787,1.6c0-2.1,1.27-3.07,2.839-2.171a6.832,6.832,0,0,1,2.852,5.44c0,2.093-1.269,3.063-2.841,2.162a6.818,6.818,0,0,1-2.85-5.431" transform="translate(-117.637 -52.087)" fill="#fff"/>
        <path id="Path_582283" data-name="Path 582283" d="M250.138,20.687a15.222,15.222,0,0,0-6.967,8.787l-.411,1.7a15.26,15.26,0,0,0,29.382,7.882l.494-1.677a15.261,15.261,0,0,0-22.5-16.692" transform="translate(-75.345 -5.793)" fill="#fff"/>
        <path id="Path_582284" data-name="Path 582284" d="M247.837,18.967a16.59,16.59,0,0,0-7.28,20.111l-3.235,4a.963.963,0,0,0,.895,1.556l5.087-.779a16.566,16.566,0,1,0,4.533-24.892m21.5,6.756a15.22,15.22,0,0,1,1.614,11.1l-.5,1.676a15.26,15.26,0,0,1-29.369-7.934l.415-1.7a15.261,15.261,0,0,1,27.836-3.141" transform="translate(-73.667 -5.209)" fill="#455a64"/>
        <path id="Path_582285" data-name="Path 582285" d="M257.762,45.615a2.4,2.4,0,0,1-1.748-.758l-5.429-5.8a2.395,2.395,0,0,1,3.5-3.274l3.526,3.765,8.342-10.566a2.395,2.395,0,1,1,3.759,2.968L259.642,44.7a2.394,2.394,0,0,1-1.778.909l-.1,0" transform="translate(-77.654 -8.722)" fill="#9d61ff"/>
      </g>
    </g>
  </g>
</svg>
