<svg xmlns="http://www.w3.org/2000/svg" xmlns:xlink="http://www.w3.org/1999/xlink" width="30" height="30" viewBox="0 0 30 30">
  <defs>
    <linearGradient id="linear-gradient" x1="0.342" y1="0.5" x2="0.934" y2="0.5" gradientUnits="objectBoundingBox">
      <stop offset="0" stop-color="#9b5dff"/>
      <stop offset="1" stop-color="#438ffe"/>
    </linearGradient>
    <filter id="Rectangle_234589" x="-9" y="-6" width="48" height="48" filterUnits="userSpaceOnUse">
      <feOffset dy="3" input="SourceAlpha"/>
      <feGaussianBlur stdDeviation="3" result="blur"/>
      <feFlood flood-opacity="0.11"/>
      <feComposite operator="in" in2="blur"/>
      <feComposite in="SourceGraphic"/>
    </filter>
    <clipPath id="clip-path">
      <g transform="matrix(1, 0, 0, 1, 0, 0)" filter="url(#Rectangle_234589)">
        <rect id="Rectangle_234589-2" data-name="Rectangle 234589" width="30" height="30" transform="translate(631 2951)" stroke="#707070" stroke-width="1" fill="url(#linear-gradient)"/>
      </g>
    </clipPath>
    <filter id="Path_580351" x="-2.957" y="-5" width="34.94" height="21.099" filterUnits="userSpaceOnUse">
      <feOffset dy="3" input="SourceAlpha"/>
      <feGaussianBlur stdDeviation="3" result="blur-2"/>
      <feFlood flood-opacity="0.11"/>
      <feComposite operator="in" in2="blur-2"/>
      <feComposite in="SourceGraphic"/>
    </filter>
    <filter id="Path_580352" x="-2.897" y="-0.297" width="34.821" height="19.715" filterUnits="userSpaceOnUse">
      <feOffset dy="3" input="SourceAlpha"/>
      <feGaussianBlur stdDeviation="3" result="blur-3"/>
      <feFlood flood-opacity="0.11"/>
      <feComposite operator="in" in2="blur-3"/>
      <feComposite in="SourceGraphic"/>
    </filter>
    <filter id="Path_580353" x="-5" y="3.068" width="39.029" height="31.293" filterUnits="userSpaceOnUse">
      <feOffset dy="3" input="SourceAlpha"/>
      <feGaussianBlur stdDeviation="3" result="blur-4"/>
      <feFlood flood-opacity="0.11"/>
      <feComposite operator="in" in2="blur-4"/>
      <feComposite in="SourceGraphic"/>
    </filter>
    <filter id="Path_580354" x="-2.901" y="18.018" width="34.828" height="23.312" filterUnits="userSpaceOnUse">
      <feOffset dy="3" input="SourceAlpha"/>
      <feGaussianBlur stdDeviation="3" result="blur-5"/>
      <feFlood flood-opacity="0.11"/>
      <feComposite operator="in" in2="blur-5"/>
      <feComposite in="SourceGraphic"/>
    </filter>
  </defs>
  <g id="Mask_Group_266130" data-name="Mask Group 266130" transform="translate(-631 -2951)" clip-path="url(#clip-path)">
    <g id="mobile-app" transform="translate(569.5 2952.5)">
      <g id="Group_282041" data-name="Group 282041" transform="translate(67.543 -0.5)">
        <g transform="matrix(1, 0, 0, 1, -6.04, -1)" filter="url(#Path_580351)">
          <path id="Path_580351-2" data-name="Path 580351" d="M104.249-.5h13.279A2.509,2.509,0,0,1,119.3,2.6H102.478A2.509,2.509,0,0,1,104.249-.5Z" transform="translate(-96.38 1.5)" fill-rule="evenodd" opacity="0.995" fill="url(#linear-gradient)"/>
        </g>
      </g>
      <g id="Group_282042" data-name="Group 282042" transform="translate(67.603 4.203)">
        <g transform="matrix(1, 0, 0, 1, -6.1, -5.7)" filter="url(#Path_580352)">
          <path id="Path_580352-2" data-name="Path 580352" d="M103.5,84.5h16.821v1.715H103.5Z" transform="translate(-97.4 -78.8)" fill-rule="evenodd" opacity="0.969" fill="url(#linear-gradient)"/>
        </g>
      </g>
      <g id="Group_282043" data-name="Group 282043" transform="translate(65.5 7.568)">
        <g transform="matrix(1, 0, 0, 1, -4, -9.07)" filter="url(#Path_580353)">
          <path id="Path_580353-2" data-name="Path 580353" d="M66,145.325q10.077-.041,20.14.083a.855.855,0,0,1,.36.415q.083,6.2-.055,12.394a.855.855,0,0,1-.415.36q-10.077.083-20.14-.055a.855.855,0,0,1-.36-.415q-.055-6.142,0-12.283A.892.892,0,0,1,66,145.325Zm10.513,2.822q1.212-.095,1.024,1.107-.788,3.012-1.549,6.031a.808.808,0,0,1-1.024.47,1.014,1.014,0,0,1-.553-.775q.815-3.165,1.632-6.335A.892.892,0,0,1,76.511,148.147Zm-4.26,1.273q1.243.107.8,1.273-.637.624-1.245,1.273.607.649,1.245,1.273.433,1.015-.636,1.273a1.24,1.24,0,0,1-.443-.138l-1.964-1.964a.777.777,0,0,1,0-.885l1.964-1.964A2.143,2.143,0,0,0,72.25,149.419Zm7.193,0a1.092,1.092,0,0,1,.609.138l1.964,1.964a.777.777,0,0,1,0,.885l-1.964,1.964q-1.015.406-1.217-.664a.713.713,0,0,1,.138-.47q.637-.624,1.245-1.273-.607-.649-1.245-1.273A.836.836,0,0,1,79.443,149.419Z" transform="translate(-61.5 -136.25)" fill-rule="evenodd" opacity="0.992" fill="url(#linear-gradient)"/>
        </g>
      </g>
      <g id="Group_282044" data-name="Group 282044" transform="translate(67.599 22.518)">
        <g transform="matrix(1, 0, 0, 1, -6.1, -24.02)" filter="url(#Path_580354)">
          <path id="Path_580354-2" data-name="Path 580354" d="M118.491,420.812H105.211a2.313,2.313,0,0,1-1.743-1.771q-.041-1.77-.028-3.541h16.821q.014,1.771-.028,3.541A2.313,2.313,0,0,1,118.491,420.812Zm-8.078-3.873a30.508,30.508,0,0,1,3.1.083.8.8,0,0,1,.415,1.19,1.014,1.014,0,0,1-.636.36,22.6,22.6,0,0,1-3.1-.055.8.8,0,0,1-.415-1.19A1.283,1.283,0,0,1,110.413,416.939Z" transform="translate(-97.34 -391.48)" fill-rule="evenodd" opacity="0.995" fill="url(#linear-gradient)"/>
        </g>
      </g>
    </g>
  </g>
</svg>
