<svg xmlns="http://www.w3.org/2000/svg" xmlns:xlink="http://www.w3.org/1999/xlink" width="48" height="48" viewBox="0 0 48 48">
  <defs>
    <linearGradient id="linear-gradient" x1="0.342" y1="0.5" x2="0.934" y2="0.5" gradientUnits="objectBoundingBox">
      <stop offset="0" stop-color="#9b5dff"/>
      <stop offset="1" stop-color="#438ffe"/>
    </linearGradient>
    <filter id="Path_580349" x="0" y="0" width="48" height="25.416" filterUnits="userSpaceOnUse">
      <feOffset dy="3" input="SourceAlpha"/>
      <feGaussianBlur stdDeviation="3" result="blur"/>
      <feFlood flood-opacity="0.11"/>
      <feComposite operator="in" in2="blur"/>
      <feComposite in="SourceGraphic"/>
    </filter>
    <filter id="Path_580350" x="0" y="9.27" width="48" height="38.73" filterUnits="userSpaceOnUse">
      <feOffset dy="3" input="SourceAlpha"/>
      <feGaussianBlur stdDeviation="3" result="blur-2"/>
      <feFlood flood-opacity="0.11"/>
      <feComposite operator="in" in2="blur-2"/>
      <feComposite in="SourceGraphic"/>
    </filter>
  </defs>
  <g id="web-development" transform="translate(9.5 5.5)">
    <g id="Group_282034" data-name="Group 282034" transform="translate(-0.5 0.5)">
      <g transform="matrix(1, 0, 0, 1, -9, -6)" filter="url(#Path_580349)">
        <path id="Path_580349-2" data-name="Path 580349" d="M29.5,2.663V7.916H-.5V2.663A2.845,2.845,0,0,1,1.551.531q12.949-.062,25.9,0A2.845,2.845,0,0,1,29.5,2.663ZM19.773,4.208q2.637-.015,5.273.031a.927.927,0,0,1,.791,1.205.992.992,0,0,1-.791.587q-2.637.062-5.273,0-1.168-.285-.674-1.452A1.236,1.236,0,0,1,19.773,4.208ZM3.66,4.27Q4.9,4.145,4.744,5.444a.856.856,0,0,1-1.377.34A.984.984,0,0,1,3.66,4.27Zm3.516,0Q8.42,4.145,8.26,5.444a.856.856,0,0,1-1.377.34A.984.984,0,0,1,7.176,4.27Zm3.516,0q1.244-.125,1.084,1.174a.856.856,0,0,1-1.377.34A.984.984,0,0,1,10.691,4.27Z" transform="translate(9.5 5.5)" fill-rule="evenodd" opacity="0.994" fill="url(#linear-gradient)"/>
      </g>
    </g>
    <g id="Group_282035" data-name="Group 282035" transform="translate(-0.5 9.77)">
      <g transform="matrix(1, 0, 0, 1, -9, -15.27)" filter="url(#Path_580350)">
        <path id="Path_580350-2" data-name="Path 580350" d="M-.5,150.5h30v18.714a2.745,2.745,0,0,1-2.051,1.987q-12.949.058-25.9,0A2.746,2.746,0,0,1-.5,169.214Zm17.344,2.649q1.244-.117,1.084,1.094-2.691,6.207-5.449,12.38a.885.885,0,0,1-1.406-.288,1.429,1.429,0,0,1,0-.576l5.391-12.323A3.7,3.7,0,0,0,16.844,153.149Zm-7.91,2.591q1.366-.084,1.025,1.209a2.086,2.086,0,0,1-.205.259Q7.977,158.585,6.238,160q1.816,1.482,3.662,2.937a.878.878,0,0,1-.264,1.238,1.067,1.067,0,0,1-.937-.058q-2.172-1.76-4.395-3.455a.9.9,0,0,1,0-1.324Q6.61,157.518,8.934,155.74Zm10.547,0a1.461,1.461,0,0,1,.82.144q2.172,1.76,4.395,3.455a.9.9,0,0,1,0,1.324q-2.223,1.695-4.395,3.455a.886.886,0,0,1-1.318-.374,1,1,0,0,1,.176-.864q1.817-1.426,3.6-2.879-1.787-1.453-3.6-2.879A.884.884,0,0,1,19.48,155.74Z" transform="translate(9.5 -135.23)" fill-rule="evenodd" opacity="0.994" fill="url(#linear-gradient)"/>
      </g>
    </g>
  </g>
</svg>
