<svg xmlns="http://www.w3.org/2000/svg" xmlns:xlink="http://www.w3.org/1999/xlink" width="267.333" height="77.199" viewBox="0 0 267.333 77.199">
  <defs>
    <linearGradient id="linear-gradient" x1="0.927" y1="0.283" x2="-0.248" y2="0.5" gradientUnits="objectBoundingBox">
      <stop offset="0" stop-color="#eef4fd"/>
      <stop offset="1" stop-color="#cecee0"/>
    </linearGradient>
    <filter id="Rectangle_160448" x="0" y="0" width="267.333" height="77.199" filterUnits="userSpaceOnUse">
      <feOffset dx="2" dy="2" input="SourceAlpha"/>
      <feGaussianBlur stdDeviation="6" result="blur"/>
      <feFlood flood-color="#247cff" flood-opacity="0.149"/>
      <feComposite operator="in" in2="blur"/>
      <feComposite in="SourceGraphic"/>
    </filter>
  </defs>
  <g id="Group_283808" data-name="Group 283808" transform="translate(8.555 16)">
    <g transform="matrix(1, 0, 0, 1, -8.56, -16)" filter="url(#Rectangle_160448)">
      <g id="Rectangle_160448-2" data-name="Rectangle 160448" transform="translate(16 16)" stroke="#fff" stroke-width="1.5" fill="url(#linear-gradient)">
        <rect width="231.333" height="41.199" rx="1" stroke="none"/>
        <rect x="0.75" y="0.75" width="229.833" height="39.699" rx="0.25" fill="none"/>
      </g>
    </g>
    <g id="vuesax_linear_search-normal" data-name="vuesax/linear/search-normal" transform="translate(27.37 12.826)">
      <g id="search-normal">
        <path id="Vector" d="M0,6.154A6.154,6.154,0,1,0,6.154,0,6.154,6.154,0,0,0,0,6.154Z" transform="translate(1.943 1.295)" fill="none" stroke="#8136fb" stroke-linecap="round" stroke-linejoin="round" stroke-width="1.5"/>
        <path id="Vector-2" data-name="Vector" d="M0,1.3,1.3,0" transform="translate(1.295 12.955)" fill="none" stroke="#8136fb" stroke-linecap="round" stroke-linejoin="round" stroke-width="1.5"/>
        <g id="Vector-3" data-name="Vector" fill="none" opacity="0">
          <path d="M15.546,0H0V15.546H15.546Z" stroke="none"/>
          <path d="M 1.000003814697266 1.000003814697266 L 1.000003814697266 14.54592323303223 L 14.54592323303223 14.54592323303223 L 14.54592323303223 1.000003814697266 L 1.000003814697266 1.000003814697266 M 3.814697265625e-06 3.814697265625e-06 L 15.54592323303223 3.814697265625e-06 L 15.54592323303223 15.54592323303223 L 3.814697265625e-06 15.54592323303223 L 3.814697265625e-06 3.814697265625e-06 Z" stroke="none" fill="#8136fb"/>
        </g>
      </g>
    </g>
    <text id="Search" transform="translate(54.543 24.603)" fill="#141414" font-size="12" font-family="Nunito-Medium, Nunito" font-weight="500"><tspan x="0" y="0">Search</tspan></text>
  </g>
</svg>
