<svg xmlns="http://www.w3.org/2000/svg" xmlns:xlink="http://www.w3.org/1999/xlink" width="64.53" height="76.5" viewBox="0 0 64.53 76.5">
  <defs>
    <clipPath id="clip-path">
      <rect id="Rectangle_234577" data-name="Rectangle 234577" width="64.53" height="76.501" transform="translate(-1 -1)" fill="none"/>
    </clipPath>
    <linearGradient id="linear-gradient" x1="0.342" y1="0.5" x2="0.934" y2="0.5" gradientUnits="objectBoundingBox">
      <stop offset="0" stop-color="#4e05c2"/>
      <stop offset="1" stop-color="#0a4cad"/>
    </linearGradient>
    <linearGradient id="linear-gradient-2" x1="0.342" y1="0.5" x2="0.934" y2="0.5" gradientUnits="objectBoundingBox">
      <stop offset="0" stop-color="#8236fb"/>
      <stop offset="1" stop-color="#0d6bf4"/>
    </linearGradient>
    <filter id="Path_580342" x="-0.114" y="9.491" width="58.481" height="61.7" filterUnits="userSpaceOnUse">
      <feOffset dy="3" input="SourceAlpha"/>
      <feGaussianBlur stdDeviation="6" result="blur"/>
      <feFlood flood-opacity="0.188"/>
      <feComposite operator="in" in2="blur"/>
      <feComposite in="SourceGraphic"/>
    </filter>
  </defs>
  <g id="Group_283811" data-name="Group 283811" transform="translate(1 1)">
    <g id="Group_274843" data-name="Group 274843" clip-path="url(#clip-path)">
      <path id="Path_580338" data-name="Path 580338" d="M58.053,53.41C48.779,70.173,31.159,79.021,18.7,73.174S3.656,49,12.93,32.236,39.824,6.625,52.284,12.473,67.327,36.648,58.053,53.41" transform="translate(-3.089 -4.476)" fill="url(#linear-gradient)"/>
      <path id="Path_580339" data-name="Path 580339" d="M19.523,71.02l3.986,1.871,33.586-60.7-3.986-1.871Z" transform="translate(-8.189 -4.328)" fill="#873bec"/>
      <path id="Path_580340" data-name="Path 580340" d="M50.688,49.954C41.414,66.717,23.794,75.565,11.333,69.718S-3.709,45.542,5.565,28.78,32.459,3.169,44.92,9.017s15.043,24.175,5.768,40.938" transform="translate(0 -3.026)" fill="url(#linear-gradient-2)"/>
      <path id="Path_580341" data-name="Path 580341" d="M50.054,53.539c-6.645,12.01-19.269,18.35-28.2,14.16S11.078,50.377,17.723,38.367s19.269-18.35,28.2-14.16S56.7,41.529,50.054,53.539" transform="translate(-5.761 -9.612)" fill="#fff"/>
      <g transform="matrix(1, 0, 0, 1, -1, -1)" filter="url(#Path_580342)">
        <path id="Path_580342-2" data-name="Path 580342" d="M49.343,57.545c-3.706,6.7-10.748,10.235-15.727,7.9S27.6,55.781,31.31,49.082s10.748-10.235,15.728-7.9,6.012,9.662,2.305,16.361" transform="translate(-11.2 -15.97)" fill="url(#linear-gradient-2)"/>
      </g>
      <path id="Path_580343" data-name="Path 580343" d="M48.723,61.05c-1.136,2.052-3.292,3.135-4.817,2.419s-1.842-2.959-.707-5.011,3.292-3.135,4.818-2.419,1.842,2.959.706,5.011" transform="translate(-17.834 -23.413)" fill="#fff"/>
      <path id="Path_580344" data-name="Path 580344" d="M35.143,38.374,28.851,28.05,18.838,11.622,16.561,7.885A.977.977,0,0,0,14.894,8.9l6.292,10.323L31.2,35.653l2.278,3.736a.977.977,0,0,0,1.667-1.016" transform="translate(-6.184 -3.116)" fill="#f35959"/>
      <path id="Path_580345" data-name="Path 580345" d="M11.325,9.822,6.059,9.383l2.06,3.379a4.677,4.677,0,0,0,1.09.153l-.867.212L9.9,15.69l1.7.048-1.386.471,1.514,2.485L17,19.132Z" transform="translate(-2.541 -3.936)" fill="#3cb1ee"/>
      <path id="Path_580346" data-name="Path 580346" d="M17.97,4.881,19.993,0l2.06,3.379a4.7,4.7,0,0,1-.364,1.039l.586-.673,1.561,2.561L23.1,7.842l1.054-1.017L25.668,9.31l-2.023,4.881Z" transform="translate(-7.537)" fill="#3cb1ee"/>
    </g>
  </g>
</svg>
