<svg xmlns="http://www.w3.org/2000/svg" width="293.892" height="280.089" viewBox="0 0 293.892 280.089">
  <g id="teamwork_business_character_1_" transform="translate(-296.594 -576.809)">
    <g id="character_4_" transform="translate(504.09 576.808)">
      <g id="Group_1591" data-name="Group 1591" transform="translate(34.495 38.779)">
        <g id="Group_1590" data-name="Group 1590">
          <rect id="Rectangle_270" data-name="Rectangle 270" width="16.793" height="19.974" transform="translate(0.001)" fill="#f0b297"/>
          <path id="Path_1294" data-name="Path 1294" d="M1940.447,832.747v6.143a29.5,29.5,0,0,1-16.793,6.143V832.747h16.793Z" transform="translate(-1923.654 -832.747)" fill="#d1785e"/>
        </g>
      </g>
      <g id="Group_1598" data-name="Group 1598" transform="translate(26.81 7.138)">
        <g id="Group_1593" data-name="Group 1593">
          <g id="Group_1592" data-name="Group 1592" transform="translate(0 19.892)">
            <path id="Path_1295" data-name="Path 1295" d="M2035.62,765.565a3.227,3.227,0,0,0,2.258-.29,7.475,7.475,0,0,0,1.825-1.384c1.452-1.4,2.8-3.16,2.7-5.135a2.464,2.464,0,0,0-.775-1.781,2.355,2.355,0,0,0-2.312-.291,3.931,3.931,0,0,0-1.8,1.55Z" transform="translate(-2010.679 -756.512)" fill="#f0b297"/>
            <path id="Path_1296" data-name="Path 1296" d="M1880.572,765.565a3.225,3.225,0,0,1-2.258-.29,7.455,7.455,0,0,1-1.826-1.384c-1.452-1.4-2.8-3.16-2.7-5.135a2.465,2.465,0,0,1,.775-1.781,2.355,2.355,0,0,1,2.312-.291,3.937,3.937,0,0,1,1.8,1.55Z" transform="translate(-1873.784 -756.512)" fill="#f0b297"/>
          </g>
          <path id="Path_1297" data-name="Path 1297" d="M1908.59,657.336c.575-6.178,2.185-9.78,3.181-13.349.711-2.674,1.431-7.243-1.679-11.271-3.072-4.185-10.784-6.562-17.844-4.561-7.11,2-11.055,6.161-10.194,10.893.435,2.834.843,6.753,1.316,9.677.393,2.43-.346,4.867.553,7.235,1.673,4.074,8.14,11.219,13.234,11.219C1901.32,667.178,1908.192,660.031,1908.59,657.336Z" transform="translate(-1880.681 -627.435)" fill="#f0b297"/>
        </g>
        <path id="Path_1298" data-name="Path 1298" d="M1981.58,778.386a2.149,2.149,0,0,1-.151.342.65.65,0,0,1-.232.282c-.1.056-.262.016-.384-.161a.768.768,0,0,1-.121-.34,1.006,1.006,0,0,1,.05-.43.994.994,0,0,1,.23-.364.74.74,0,0,1,.306-.184c.2-.058.351.013.4.124a.663.663,0,0,1,0,.368A2.139,2.139,0,0,1,1981.58,778.386Z" transform="translate(-1964.211 -754.383)" fill="#f2f2f2"/>
        <path id="Path_1299" data-name="Path 1299" d="M1972.654,775.922c-.02-.085-.037-.161-.05-.228s-.024-.127-.032-.187a1.416,1.416,0,0,1-.009-.21c0-.079.012-.166.023-.256a2.974,2.974,0,0,0,.041-.518.5.5,0,0,0-.141-.362.2.2,0,0,0-.268-.011,1.186,1.186,0,0,0-.305.384,1.933,1.933,0,0,0-.245.761,1.515,1.515,0,0,0,.033.475,2.028,2.028,0,0,0,.157.441,2.539,2.539,0,0,0,.223.377,3.074,3.074,0,0,0,.249.3,4.044,4.044,0,0,0,.453.419c.265.2.422.277.509.137s.074-.295-.069-.53c-.069-.118-.173-.254-.286-.418a2.881,2.881,0,0,1-.166-.267A1.37,1.37,0,0,1,1972.654,775.922Z" transform="translate(-1956.578 -751.499)" fill="#d1785e"/>
        <g id="Group_1597" data-name="Group 1597" transform="translate(7.455 17.905)">
          <path id="Path_1300" data-name="Path 1300" d="M2003.724,743.958a5.96,5.96,0,0,1,2.1-.1,6.025,6.025,0,0,1,2.02.635c.628.335.35.972-.278.821a17.08,17.08,0,0,0-1.869-.355,16.654,16.654,0,0,0-1.895-.139C2003.162,744.807,2003.038,744.121,2003.724,743.958Z" transform="translate(-1990.764 -743.78)" fill="#1a1a1a"/>
          <path id="Path_1301" data-name="Path 1301" d="M1926.613,743.741a5.968,5.968,0,0,0-2.106-.053,6.032,6.032,0,0,0-2.007.678c-.622.348-.331.979.294.815a17.078,17.078,0,0,1,1.862-.4,16.7,16.7,0,0,1,1.892-.179C1927.191,744.578,1927.3,743.889,1926.613,743.741Z" transform="translate(-1922.156 -743.619)" fill="#1a1a1a"/>
          <g id="Group_1596" data-name="Group 1596" transform="translate(0.917 2.314)">
            <g id="Group_1594" data-name="Group 1594">
              <path id="Path_1302" data-name="Path 1302" d="M1930.99,761.7l-.009-1.642a1.441,1.441,0,0,0-1.445-1.429h0a1.441,1.441,0,0,0-1.429,1.445l.009,1.642C1928.121,762.508,1930.994,762.493,1930.99,761.7Z" transform="translate(-1928.107 -758.632)" fill="#1a1a1a"/>
            </g>
            <g id="Group_1595" data-name="Group 1595" transform="translate(12.758)">
              <path id="Path_1303" data-name="Path 1303" d="M2010.89,761.7l.009-1.642a1.441,1.441,0,0,1,1.445-1.429h0a1.44,1.44,0,0,1,1.429,1.445l-.009,1.642C2013.759,762.508,2010.885,762.493,2010.89,761.7Z" transform="translate(-2010.89 -758.632)" fill="#1a1a1a"/>
            </g>
          </g>
        </g>
        <path id="Path_1304" data-name="Path 1304" d="M1957.535,810.527a7.5,7.5,0,0,0,7.447-1.063c.32-.254-.132-.7-.449-.449a6.878,6.878,0,0,1-6.828.9.32.32,0,0,0-.391.222.328.328,0,0,0,.222.391Z" transform="translate(-1944.431 -780.969)" fill="#a33939"/>
      </g>
      <path id="Path_1305" data-name="Path 1305" d="M2110.4,962.519c1.833,1.43,4.992,4.374,5.18,5.951s6.188,43.5,6.564,46.219c.751,5.443-16.6-.144-17.258-3.694s-7.906-29.4-7.906-29.4l7-20.526S2108.47,961.011,2110.4,962.519Z" transform="translate(-2035.777 -902.515)" fill="#29253b"/>
      <path id="Path_1306" data-name="Path 1306" d="M1956.32,1370.67c4.4,27.022.594,76.819-.548,84.148-1.154,7.411-16.459-4.827-16.954-12.3-.178-2.686.528-5.359.533-8.05,0-2.377-1.037-4.662-1.076-7.048-.342-20.831-4.448-23.756-7.425-36.6l-4.82-20.148Z" transform="translate(-1891.169 -1248.992)" fill="#232033"/>
      <g id="Group_1599" data-name="Group 1599" transform="translate(0 254.215)">
        <path id="Path_1307" data-name="Path 1307" d="M1749.334,2253.645c3.256-1.556,6.126-3.2,6.933-4.872l.36-14.8c.126-1.1.364-2.444-.711-2.592l-4.889-.676a1.908,1.908,0,0,0-2.107,1.418c-.545,2.04-2.458,8.79-2.458,8.79l-9.543,9.409c-.971.958-2,1.934-2.1,3.324C1734.82,2253.69,1749.334,2253.645,1749.334,2253.645Z" transform="translate(-1729.428 -2230.686)" fill="#b3b3b3"/>
        <path id="Path_1308" data-name="Path 1308" d="M1726.924,2277.389c-.308-.047.8,7.909-2.829,8.5a5.165,5.165,0,0,1-.7.059l-.287-3.36s-5.151-2.379-9.011-2.078l-.892,1.833-10.974,6.039c-.908.9-2.28,2.248-2.407,4.115a1.474,1.474,0,0,0,.313.88h27.734S1727.232,2277.435,1726.924,2277.389Z" transform="translate(-1699.819 -2270.191)" fill="#1a1a1a"/>
      </g>
      <g id="Group_1600" data-name="Group 1600" transform="translate(53.806 254.716)">
        <path id="Path_1309" data-name="Path 1309" d="M2088.966,2256.343a13.476,13.476,0,0,0-1.4-3.309l-7.25-9.5s-.913-6.146-1.159-8a1.734,1.734,0,0,0-1.675-1.523l-4.326-.073a1.741,1.741,0,0,0-1.748,1.741l-.494,13.382a69.835,69.835,0,0,0,2.935,7.242Z" transform="translate(-2067.528 -2233.938)" fill="#b3b3b3"/>
        <path id="Path_1310" data-name="Path 1310" d="M2069.716,2291.374l-4.9-6.427-.678-2.037c-3.323-.785-8.067.592-8.067.592l-.623,2.892a4.59,4.59,0,0,1-.6-.147c-3.086-1.008-2.1-6.3-2.372-6.3s-3.508,15.6-3.508,15.6h22.367c.011-.084.02-.169.025-.255A6.086,6.086,0,0,0,2069.716,2291.374Z" transform="translate(-2048.958 -2272.856)" fill="#1a1a1a"/>
      </g>
      <path id="Path_1311" data-name="Path 1311" d="M1821.931,1360.669c-4.5,27.022-2.274,76.819-1.108,84.148,1.18,7.411,16.819-4.827,17.325-12.3.182-2.686-.54-5.359-.545-8.05a30.537,30.537,0,0,1,1.1-7.048c3.043-12.846,9.469-25.693,12.513-38.539v-18.211h-29.284Z" transform="translate(-1800.83 -1240.532)" fill="#232033"/>
      <path id="Path_1312" data-name="Path 1312" d="M1810.884,1847.394c-.19-10.642-.009-21.286.172-31.929q.136-8.02.273-16.04c.128-7.533.568-15.164,3.342-22.271.828-2.12,14.156-7.593,15.8-5.37,0,0,1.11,10.483,1.805,15.23.457,3.124-.164,6.286-.783,9.387-3.364,16.855-5.123,34.138-8.487,50.993h-12.123Z" transform="translate(-1793.699 -1587.849)" fill="#232033"/>
      <path id="Path_1313" data-name="Path 1313" d="M2021.358,1856.7c.187-10.642-.258-20.6-.435-31.246q-.134-8.02-.267-16.041c-.126-7.533-.557-15.164-3.271-22.27-.81-2.121-13.853-7.594-15.463-5.37,0,0-1.086,10.483-1.766,15.23-.448,3.124.16,6.286.766,9.387,3.293,16.855,4.861,33.5,8.153,50.354Z" transform="translate(-1953.74 -1596.303)" fill="#232033"/>
      <path id="Path_1314" data-name="Path 1314" d="M1813.508,996.887c-.5,0-.831,0-.964,0-2.5-.031-9.943-2.193-11.021-3.876,2.772-14.33,1.085-22.966-.546-31.32-.917-4.7-1.964-14.882-1.964-14.882-1-1.881-2.16-15.941-1.306-21.739l18.418-7.743,8.53,2.553h1.72l8.53-2.553,18.418,7.743c.854,5.8-.3,19.858-1.306,21.739,0,0-1.292,10.426-2.467,15.168-1.989,8.026-4.045,16.325-1.256,30.515l.012.063c-.554.836-4.7,2.982-6.716,3.3C1835.105,996.876,1814.387,996.887,1813.508,996.887Z" transform="translate(-1782.37 -865.511)" fill="#cfd7e9"/>
      <g id="Group_1605" data-name="Group 1605" transform="translate(28.666 47.595)">
        <path id="Path_1315" data-name="Path 1315" d="M1937.555,936.946l3.218-3.12-1.913-5.23-4.546-.4-4.545.4-1.914,5.23,3.218,3.12-5.042,49.037,8.283,9.686,8.284-9.686Z" transform="translate(-1919.835 -922.298)" fill="#9e63ff"/>
        <g id="Group_1602" data-name="Group 1602" transform="translate(14.479)">
          <g id="Group_1601" data-name="Group 1601">
            <path id="Path_1316" data-name="Path 1316" d="M1988.635,889.95l-8.855,5.893,3.24.662,2.6,13.446,8.639-13.6Z" transform="translate(-1979.78 -889.95)" fill="#fff"/>
          </g>
        </g>
        <g id="Group_1604" data-name="Group 1604">
          <g id="Group_1603" data-name="Group 1603">
            <path id="Path_1317" data-name="Path 1317" d="M1891.453,889.95l8.855,5.893-3.241.662-2.6,13.446-8.64-13.6Z" transform="translate(-1885.83 -889.95)" fill="#fff"/>
          </g>
        </g>
      </g>
      <path id="Path_1318" data-name="Path 1318" d="M1718.722,960.975c-1.833,1.43-4.992,4.374-5.18,5.951s-4.223,34.94-5.27,44.1c-.65,8.826,16.056,8.927,17.085,6.489s6.785-37.461,6.785-37.461l-7-20.526S1720.656,959.466,1718.722,960.975Z" transform="translate(-1706.954 -901.208)" fill="#29253b"/>
      <path id="Path_1319" data-name="Path 1319" d="M2049.513,928.062l-16.909-6.835-5.192,40.088-.657,49.833c6.487,4.423,18.449,2.9,19.761,1.236s-.83-12.824-1.108-14.969c-2.937-22.682,1.385-46.894,1.385-46.894S2050.513,933.558,2049.513,928.062Z" transform="translate(-1976.37 -868.812)" fill="#29253b"/>
      <path id="Path_1320" data-name="Path 1320" d="M1809.382,960.978l-5.848-39.748-16.448,6.483c-1,5.5,2.258,22.812,2.258,22.812s5.722,23.816,2.054,46.161c-.16,1.95-2.436,14.132-1.49,15.488s15.073,4.475,20.823.668Z" transform="translate(-1773.476 -868.815)" fill="#29253b"/>
      <g id="Group_1607" data-name="Group 1607" transform="translate(25.417 0)">
        <g id="Group_1606" data-name="Group 1606">
          <path id="Path_1321" data-name="Path 1321" d="M1893.079,603.453a5.172,5.172,0,0,1-1.8-.446c-1.487-.679-3.12-1.129-3.939-2.429-1.1-1.743-.033-4.165-1.614-4.643-2.509-.759-7.5,1.581-9.723.3a3.56,3.56,0,0,1-1.158-1.069,10.265,10.265,0,0,1-2.081,2.022c-1.373,1.071-2.884,2.3-2.975,3.931a9.22,9.22,0,0,0,.724,2.915c.522,1.841-.951,7.349-.951,7.349a28.085,28.085,0,0,1-2.482-4.729c-.455-1.373-.235-2.858-.575-4.258-.364-1.5-1.358-2.846-1.665-4.36a5.323,5.323,0,0,1,1.643-4.848,10.689,10.689,0,0,1-.039-2.524,6.56,6.56,0,0,1,2.633-4.7,5.464,5.464,0,0,1,5.046-.608c2.78-2.394,6.047-4.571,9.781-4.2,3.36.337,5.984,2.677,9.078,3.9,1.812.714,3.788,1.041,5.619,1.716s3.6,1.814,4.222,3.5a3.206,3.206,0,0,1-.247,2.625,2.723,2.723,0,0,1,1.079,1.514,5.226,5.226,0,0,1-.976,3.806c-.7,1.172-3.738,2.74-3.977,4.053-.269,1.483-2.9,9.12-2.9,9.12l-1.787-7.961A4.685,4.685,0,0,1,1893.079,603.453Z" transform="translate(-1864.746 -581.115)" fill="#2c1e1c"/>
        </g>
      </g>
      <g id="Group_1609" data-name="Group 1609" transform="translate(20.228 92.706)">
        <g id="Group_1608" data-name="Group 1608" transform="translate(5.612 3.119)">
          <path id="Path_1322" data-name="Path 1322" d="M1923.356,1222.146c.167-1.11-3.547-11.818-7.955-13.344s-46.334-5.889-46.334-5.889-2.17,3.638-1.426,6.461c0,0,30.965,10.468,35.059,11.727S1923.189,1223.256,1923.356,1222.146Z" transform="translate(-1867.485 -1202.914)" fill="#f0b297"/>
        </g>
        <path id="Path_1323" data-name="Path 1323" d="M1840.062,1186.352s-8.446-3.4-8.989-3.678v12.282l7.775-2.624Z" transform="translate(-1831.073 -1182.674)" fill="#f0b297"/>
        <path id="Path_1324" data-name="Path 1324" d="M1906.038,1192.19l-2.682,12.425s27.993,8.663,39.486,11.07,16.344-1.914,15.367-5.84a15.718,15.718,0,0,0-11.419-11.484C1939.669,1196.619,1906.038,1192.19,1906.038,1192.19Z" transform="translate(-1892.216 -1190.723)" fill="#29253b"/>
      </g>
      <g id="Group_1614" data-name="Group 1614" transform="translate(7.289 98.727)">
        <g id="Group_1610" data-name="Group 1610" transform="translate(0 2.262)">
          <path id="Path_1325" data-name="Path 1325" d="M1747.119,1250.939c.043-1.122,3.641-13.791,8.255-14.472s51.675,6.265,51.675,6.265-2.1,6.469-3.817,7.166c0,0-23.589.894-31.981,1.924C1767,1252.344,1747.076,1252.061,1747.119,1250.939Z" transform="translate(-1747.119 -1236.42)" fill="#f0b297"/>
        </g>
        <g id="Group_1613" data-name="Group 1613" transform="translate(51.513)">
          <g id="Group_1612" data-name="Group 1612">
            <g id="Group_1611" data-name="Group 1611">
              <path id="Path_1326" data-name="Path 1326" d="M2082.4,1249.184c2.551,1.389,5.468,1.742,8.222,2.52,1.123.317,2.464.576,3.255-.2a3.269,3.269,0,0,0,.719-1.732c.413-2.025-1.344-4.927-.931-7.574.29-1.858.391-5.806-.562-5.7-2.51.29-6.608,4.339-9.245,5.666a2.265,2.265,0,0,0-.92.856C2082.068,1244.465,2080.237,1248.006,2082.4,1249.184Z" transform="translate(-2081.384 -1234.221)" fill="#f0b297"/>
              <path id="Path_1327" data-name="Path 1327" d="M2149.22,1251.88a24.1,24.1,0,0,0,6.583-.553c1.321-.311,2.771-1.457,6.745-3.835,1.478-.884-.531-1.976-2.1-1.258a27.022,27.022,0,0,1-4.8,1.939c-2.354.763-4.538-.215-6.863.134C2147.218,1248.539,2147.63,1251.841,2149.22,1251.88Z" transform="translate(-2137.562 -1242.262)" fill="#f0b297"/>
              <path id="Path_1328" data-name="Path 1328" d="M2144.34,1275.24c3.75-.26,5.043.139,7.433-.48,1.815-.47,2.7-1.222,5.618-2.329,2-.76.77-2.961-1.225-2.2-2.983,1.134-4.031,1.565-4.031,1.565-3.055.852-6.231.111-9.331.584C2140.719,1272.7,2142.229,1275.387,2144.34,1275.24Z" transform="translate(-2132.495 -1262.624)" fill="#f0b297"/>
              <path id="Path_1329" data-name="Path 1329" d="M2144.495,1298.129a27.089,27.089,0,0,0,7.726.613c.7-.116,3.642-1.3,4.459-1.59a7.218,7.218,0,0,0,2.235-1.346c.548-.629-.164-1.674-1.031-1.471-1.011.236-4.263,1.4-6.465,1.777-3.124.53-4.946-1.151-8.066-.994C2141.254,1295.221,2142.41,1297.731,2144.495,1298.129Z" transform="translate(-2132.863 -1283.125)" fill="#f0b297"/>
              <path id="Path_1330" data-name="Path 1330" d="M2140.944,1318.758a25.173,25.173,0,0,0,5.041.3c.571.016,2.648-.352,3.939-.393.694-.022,2.626-.383,2.626-.383a.79.79,0,0,0-.62-1.329c-.832.038-2.385.159-4.181.115-2.549-.062-4.917-1.251-7.42-1.651C2138.644,1315.149,2139.255,1318.487,2140.944,1318.758Z" transform="translate(-2130.4 -1300.969)" fill="#f0b297"/>
              <path id="Path_1331" data-name="Path 1331" d="M2122.19,1230.582c1.154-2.289,1.831-3.857,2.91-4.252a24.185,24.185,0,0,0,3.419-1.444,3.441,3.441,0,0,0,1.464-2.258c.147-1.669-2.916-.552-5.209-.123a6.429,6.429,0,0,0-3.584,1.766c-.992.95-4.382,4.341-4.382,4.341Z" transform="translate(-2111.349 -1221.74)" fill="#f0b297"/>
            </g>
          </g>
        </g>
      </g>
      <path id="Path_1332" data-name="Path 1332" d="M1782.439,1239.9l2.695-12.839s-41.718-4.566-45.279-5-9.458,4.22-10.214,8.921-.151,8.513,4.688,9.556S1782.439,1239.9,1782.439,1239.9Z" transform="translate(-1724.816 -1123.259)" fill="#29253b"/>
    </g>
    <g id="character_3_" transform="translate(405.654 588.826)">
      <path id="Path_1333" data-name="Path 1333" d="M1072.431,1231.8a3.33,3.33,0,0,1-3.88-.4s.13-30.732.775-33.53,5.011-5.987,7.046-4.165c1.788,1.6,3.217,3.458,3.043,7.494S1072.431,1231.8,1072.431,1231.8Z" transform="translate(-1067.399 -1110.864)" fill="#f2ae83"/>
      <g id="Group_1618" data-name="Group 1618" transform="translate(0 113.135)">
        <g id="Group_1617" data-name="Group 1617">
          <g id="Group_1616" data-name="Group 1616">
            <g id="Group_1615" data-name="Group 1615">
              <path id="Path_1334" data-name="Path 1334" d="M1090.041,1429.752s-.874,5.812-.692,6.631,2.109,6.6,1.665,7.572-1.785.188-2.318-1.512-1.782-5.919-1.711-6.647-.356-3.521-.26-4.316S1088.818,1427.05,1090.041,1429.752Z" transform="translate(-1082.76 -1423.289)" fill="#f2ae83"/>
              <path id="Path_1335" data-name="Path 1335" d="M1071.915,1444.327c.85.986.423,4.676.622,4.973s2.492,4.1,3.126,5.459-.757,1.538-1.981.117a29.155,29.155,0,0,1-3.094-4.731c-.218-.531-1.842-4.809-2.048-5.939S1070.692,1442.906,1071.915,1444.327Z" transform="translate(-1067.379 -1435.589)" fill="#f2ae83"/>
              <path id="Path_1336" data-name="Path 1336" d="M1064.379,1442c.85.986.771,4.773.97,5.07s3.146,3.167,3.78,4.526-.757,1.537-1.981.117-4-3.626-4.219-4.156-1.029-4.517-1.234-5.646S1063.155,1440.579,1064.379,1442Z" transform="translate(-1061.583 -1433.635)" fill="#f2ae83"/>
              <path id="Path_1337" data-name="Path 1337" d="M1068.982,1399.809a7.3,7.3,0,0,1-1.061,2.826c-.405-.081-.812-.151-1.218-.212-1.5-.229-3.008-.36-4.513-.621-.335-.058-.67-.123-1.005-.2-.448-2.939.335-9.731,4.369-8.154C1065.555,1393.45,1068.914,1398.579,1068.982,1399.809Z" transform="translate(-1061.074 -1393.216)" fill="#f2ae83"/>
            </g>
            <path id="Path_1338" data-name="Path 1338" d="M1083.212,1394.53s2.778,2.205,3.711,3.087c.668.632,2.4,2.9,2.636,3.1s-.659,4.174-.925,4.7-1.2.359-1.875-.957a5.145,5.145,0,0,1-.04-3.294s-3.6-1.915-4.438-3.405S1083.212,1394.53,1083.212,1394.53Z" transform="translate(-1078.821 -1394.327)" fill="#f2ae83"/>
          </g>
        </g>
      </g>
      <g id="Group_1619" data-name="Group 1619" transform="translate(13.863 5.704)">
        <path id="Path_1339" data-name="Path 1339" d="M1355.3,723.532c2.976,7.047,3.261,21.541,4.9,36.741l-3.459-.09-2.368-34.564Z" transform="translate(-1323.033 -719.306)" fill="#a3400f"/>
        <path id="Path_1340" data-name="Path 1340" d="M1152.153,701.357c-1.949,14.394-.779,30.291-.778,46.191a114.014,114.014,0,0,0,34.842.836,304.841,304.841,0,0,0-3.328-41.871s-3.671-10.9-12.792-10.382S1152.153,701.357,1152.153,701.357Z" transform="translate(-1151.026 -696.112)" fill="#a3400f"/>
      </g>
      <path id="Path_1341" data-name="Path 1341" d="M1401.22,1074.271a12.935,12.935,0,0,0,2.372-6.589c-.09-2-8.588-23.634-8.588-23.634s-9.908,3.152-10.259,7.374c0,0,9.2,21.308,9.967,21.991C1396.429,1074.935,1400.221,1075.414,1401.22,1074.271Z" transform="translate(-1334.864 -984.723)" fill="#f2ae83"/>
      <path id="Path_1342" data-name="Path 1342" d="M1357.452,936.47c1.9.85,5.273,2.733,5.774,4.063s7.172,17.219,10.04,24.953c-2.349,4.646-7.49,5.363-12.568,6.53-3.884-5.609-5.537-11.416-7.72-17.879l-1.518-17.581S1355.448,935.573,1357.452,936.47Z" transform="translate(-1306.708 -893.405)" fill="#29253b"/>
      <g id="Group_1621" data-name="Group 1621" transform="translate(3.528 116.088)">
        <path id="Path_1343" data-name="Path 1343" d="M1121.985,1692.146c.749-7.256.817-12.623,7.95-12.866,4.822-.165,7.648.347,7.97,4.793,0,0-3.371,23.127-4.876,35.851-1.36,11.494-3.277,33.109-4.262,48.551l-6-.267c-.307-4.783-3.767-38.352-4.566-46.936C1116.314,1701.017,1121.284,1698.933,1121.985,1692.146Z" transform="translate(-1112.565 -1638.125)" fill="#f2ae83"/>
        <path id="Path_1344" data-name="Path 1344" d="M1165.616,1464.159l8.635-47.969s-8.959-2.267-13.487-3.571c-14.368-4.137-7.518,45.306-7.5,49.514C1153.289,1468.63,1163.606,1469.906,1165.616,1464.159Z" transform="translate(-1141.19 -1412.374)" fill="#f8a588"/>
        <g id="Group_1620" data-name="Group 1620" transform="translate(0 122.75)">
          <path id="Path_1345" data-name="Path 1345" d="M1102.715,2230.916c-.039-3.276-2.124-3.958-2.124-3.958l-6.857,2.69s-11.3,22.841-9.594,23.353l12.2.327c3.516.077,2.6-5.508,3.965-8.469l-.064,8.547h1.531l.714-11.905a7.471,7.471,0,0,0,.229-1.041C1102.886,2239.054,1102.766,2235.294,1102.715,2230.916Z" transform="translate(-1083.965 -2224.172)" fill="#92372b"/>
          <path id="Path_1346" data-name="Path 1346" d="M1120.444,2211.022c-.6,1.677-3.164,8.16-3.823,10.221-.485,1.514-1.549,4.812-2.3,7.142a2.036,2.036,0,0,0,1.867,2.66l5.226.183,5.427-18.139c.065-.534.1-3.287-1.047-3.973S1121.042,2209.345,1120.444,2211.022Z" transform="translate(-1109.557 -2208.885)" fill="#f2ae83"/>
        </g>
      </g>
      <g id="Group_1623" data-name="Group 1623" transform="translate(35.848 121.293)">
        <path id="Path_1347" data-name="Path 1347" d="M1293.69,1712.576c0-2.154.4-6.889,7.534-7.133,4.823-.165,6.751,1.721,7.073,6.167,0,0,1.95,8.529,4.6,20.22,2.461,10.876-9.152,34.256-7.1,56.142l-6-.267c-.307-4.784-1.3-27.991-2.1-36.576C1295.815,1730.875,1293.69,1712.576,1293.69,1712.576Z" transform="translate(-1293.69 -1665.476)" fill="#f2ae83"/>
        <g id="Group_1622" data-name="Group 1622" transform="translate(4.208 115.198)">
          <path id="Path_1348" data-name="Path 1348" d="M1329.812,2225.72s4.169,16.1,4.751,18.747-.368,6.228-1.284,7.222-9.8.734-11.684.182,1.256-25.186,1.256-25.186Z" transform="translate(-1320.993 -2220.779)" fill="#92372b"/>
          <path id="Path_1349" data-name="Path 1349" d="M1331.536,2195.962c0,1.81-.25,8.8-.174,11.023.091,2.668.336,10.47.336,10.47s6.836.479,7.678-.338c2.389-2.318,1.321-7.176,1.321-7.176l-2.028-11.75c-.125-.577-1.069-3.545-2.466-4.285S1331.536,2194.152,1331.536,2195.962Z" transform="translate(-1329.752 -2193.657)" fill="#f2ae83"/>
        </g>
        <path id="Path_1350" data-name="Path 1350" d="M1294.1,1496.174l-.405-48.738s9.213-.72,13.9-1.24c14.86-1.65-1.652,43.514-1.472,47.719C1306.341,1499.145,1295.1,1502.177,1294.1,1496.174Z" transform="translate(-1293.692 -1446.152)" fill="#f8c8b8"/>
      </g>
      <path id="Path_1351" data-name="Path 1351" d="M1169.78,957.123c-1.642-1.72-5.887-19.619-5.887-19.619h-28.209s-4.245,17.9-5.887,19.619c-5.874,6.152.81,18.291,3.051,21.8,3.094,10.123,2.261,14.648,2.319,24.008a75.259,75.259,0,0,0,29.243,0c.058-9.359-.775-13.884,2.319-24.008C1168.971,975.413,1175.655,963.273,1169.78,957.123Z" transform="translate(-1117.212 -894.599)" fill="#869ac9"/>
      <path id="Path_1352" data-name="Path 1352" d="M1157.06,1373.605c1.9-17.032.069-49.255-.572-55.069s-6.415-13.992-9.323-19.96c-11.03.019-17.74-.921-28.347,2.1-2.821,4.846-7.378,9.991-9.147,16.205s-.862,37.9-2.562,55.975C1120.12,1375.226,1153.036,1376.126,1157.06,1373.605Z" transform="translate(-1100.015 -1199.921)" fill="#9e63ff"/>
      <g id="Group_1626" data-name="Group 1626" transform="translate(21.562 30.734)">
        <g id="Group_1625" data-name="Group 1625" transform="translate(1.942)">
          <g id="Group_1624" data-name="Group 1624">
            <rect id="Rectangle_271" data-name="Rectangle 271" width="16.635" height="19.787" transform="translate(0 0)" fill="#f2ae83"/>
            <path id="Path_1353" data-name="Path 1353" d="M1230.23,858.527v6.085a29.228,29.228,0,0,1-16.635,6.085V858.527h16.635Z" transform="translate(-1213.594 -858.527)" fill="#c2713e"/>
          </g>
        </g>
        <path id="Path_1354" data-name="Path 1354" d="M1203.291,947.7s-2.277,3.205-2.3,5.1c-.02,1.364,9.405,13.7,10.983,13.7s11.135-13.4,11.365-14.275a3.327,3.327,0,0,0-1.385-3.315,9.773,9.773,0,0,0-3.495-1.451Z" transform="translate(-1200.987 -933.751)" fill="#f2ae83"/>
      </g>
      <g id="Group_1627" data-name="Group 1627" transform="translate(8.101 41.507)">
        <path id="Path_1355" data-name="Path 1355" d="M1123.752,931.518s-4.731,18.629-5.848,19.8c-2.667,2.793-3.224,6.983-1.656,12.452a41.52,41.52,0,0,0,4.595,9.994s1.138,9.5-.389,14.7-6.813,16.76-6.813,16.76,15.011.474,15.4.537c.555-22.347,1.3-53.142,0-75.113Z" transform="translate(-1113.641 -930.307)" fill="#29253b"/>
        <path id="Path_1356" data-name="Path 1356" d="M1323.159,949.441c-1.117-1.17-5.087-19.611-5.087-19.611l-7.961-1.4c-1.265,22.579-3.972,52.571,0,74.581.679-.1,16.222-.427,16.9-.544,0,0-6.017-13.113-7.163-16.133a26.165,26.165,0,0,1,.367-14.448,41.512,41.512,0,0,0,4.594-9.994C1326.385,956.423,1325.827,952.233,1323.159,949.441Z" transform="translate(-1278.073 -928.431)" fill="#29253b"/>
      </g>
      <path id="Path_1357" data-name="Path 1357" d="M1079.1,1090.907a12.939,12.939,0,0,1-3.738-5.922c-.344-1.969,3.286-24.93,3.286-24.93s10.354.939,11.609,4.987c0,0-4.855,23.031-5.614,23.725S1080.318,1091.807,1079.1,1090.907Z" transform="translate(-1073.138 -998.263)" fill="#f2ae83"/>
      <path id="Path_1358" data-name="Path 1358" d="M1082.911,937.551c-1.828.993-4.284,3.547-4.486,4.954s-3.287,18.361-4.419,26.531a20.842,20.842,0,0,0,14.692,7.048c2.582-6.315,1.933-15.726,2.669-22.508l-.248-17.484S1085.16,936.33,1082.911,937.551Z" transform="translate(-1072.013 -893.405)" fill="#29253b"/>
      <g id="Group_1632" data-name="Group 1632" transform="translate(14.886 0)">
        <g id="Group_1629" data-name="Group 1629" transform="translate(0.595 4.119)">
          <g id="Group_1628" data-name="Group 1628" transform="translate(0.221 18.986)">
            <path id="Path_1359" data-name="Path 1359" d="M1317.42,817.661a3.078,3.078,0,0,0,2.155-.277,7.127,7.127,0,0,0,1.743-1.32c1.385-1.335,2.674-3.016,2.576-4.9a2.353,2.353,0,0,0-.739-1.7,2.248,2.248,0,0,0-2.206-.277,3.752,3.752,0,0,0-1.717,1.479Z" transform="translate(-1293.616 -809.02)" fill="#f2ae83"/>
            <path id="Path_1360" data-name="Path 1360" d="M1169.439,817.661a3.079,3.079,0,0,1-2.155-.277,7.126,7.126,0,0,1-1.743-1.32c-1.385-1.335-2.674-3.016-2.575-4.9a2.353,2.353,0,0,1,.739-1.7,2.248,2.248,0,0,1,2.207-.277,3.754,3.754,0,0,1,1.717,1.479Z" transform="translate(-1162.96 -809.02)" fill="#f2ae83"/>
          </g>
          <path id="Path_1361" data-name="Path 1361" d="M1188.382,713.167c.548-5.649,2.086-8.943,3.036-12.208.678-2.446,1.366-6.624-1.6-10.307-2.933-3.827-10.293-6-17.032-4.171-6.786,1.832-12,6.808-11.175,11.135.415,2.591,2.25,5,2.7,7.675.375,2.222-.331,4.451.527,6.616,1.6,3.725,7.77,10.26,12.632,10.26C1181.444,722.168,1188,715.632,1188.382,713.167Z" transform="translate(-1161.524 -685.823)" fill="#f2ae83"/>
        </g>
        <path id="Path_1362" data-name="Path 1362" d="M1284.328,795.49a5.751,5.751,0,0,1,3.68.447,4.3,4.3,0,0,1,1.471,1.137c-.6-.165-1.159-.329-1.719-.455a16.3,16.3,0,0,0-1.668-.3,15.95,15.95,0,0,0-1.691-.115C1283.829,796.2,1283.716,795.625,1284.328,795.49Z" transform="translate(-1264.461 -774.366)" fill="#1a1a1a"/>
        <path id="Path_1363" data-name="Path 1363" d="M1205.59,794.952a5.707,5.707,0,0,0-1.879-.044,5.645,5.645,0,0,0-1.791.564,4.275,4.275,0,0,0-1.447,1.165c.6-.177,1.151-.352,1.709-.488a16.252,16.252,0,0,1,1.661-.328,15.938,15.938,0,0,1,1.688-.148C1206.106,795.648,1206.2,795.075,1205.59,794.952Z" transform="translate(-1193.877 -773.929)" fill="#1a1a1a"/>
        <path id="Path_1364" data-name="Path 1364" d="M1264.684,836.088a2.163,2.163,0,0,1-.145.327.62.62,0,0,1-.221.27c-.1.053-.25.016-.366-.154a.729.729,0,0,1-.116-.324.925.925,0,0,1,.267-.759.709.709,0,0,1,.292-.175c.2-.055.335.013.379.118a.633.633,0,0,1,0,.351A2.223,2.223,0,0,1,1264.684,836.088Z" transform="translate(-1247.47 -808.105)" fill="#fff"/>
        <path id="Path_1365" data-name="Path 1365" d="M1256.161,833.738c-.019-.081-.035-.153-.048-.218s-.022-.121-.03-.178a1.278,1.278,0,0,1-.009-.2c0-.075.011-.159.022-.244a2.781,2.781,0,0,0,.039-.494.481.481,0,0,0-.134-.345.187.187,0,0,0-.256-.011,1.134,1.134,0,0,0-.292.367,1.844,1.844,0,0,0-.234.726,1.464,1.464,0,0,0,.032.453,1.952,1.952,0,0,0,.15.421,2.44,2.44,0,0,0,.214.359,2.8,2.8,0,0,0,.238.29,3.812,3.812,0,0,0,.433.4c.252.194.4.265.486.13s.07-.281-.066-.506c-.066-.113-.165-.243-.273-.4a2.681,2.681,0,0,1-.158-.255A1.429,1.429,0,0,1,1256.161,833.738Z" transform="translate(-1240.181 -805.354)" fill="#d67344"/>
        <g id="Group_1630" data-name="Group 1630" transform="translate(19.727 23.395)">
          <path id="Path_1366" data-name="Path 1366" d="M1285.67,812.974a2.572,2.572,0,0,1,2.1-2.073h0a1.413,1.413,0,0,1,1.4,1.416l0,.673C1289.164,813.764,1285.67,813.8,1285.67,812.974Z" transform="translate(-1285.67 -810.901)" fill="#1a1a1a"/>
          <path id="Path_1367" data-name="Path 1367" d="M1297.18,811.012a2.659,2.659,0,0,1,1.9.4,1.466,1.466,0,0,0,1.495.275,1.506,1.506,0,0,1-1.612.283,1.743,1.743,0,0,0-1.309-.236Z" transform="translate(-1295.406 -810.965)" fill="#1a1a1a"/>
        </g>
        <g id="Group_1631" data-name="Group 1631" transform="translate(6.745 23.395)">
          <path id="Path_1368" data-name="Path 1368" d="M1215.712,812.974a2.572,2.572,0,0,0-2.1-2.073h0a1.412,1.412,0,0,0-1.4,1.416l0,.673C1212.216,813.764,1215.712,813.8,1215.712,812.974Z" transform="translate(-1210.548 -810.901)" fill="#1a1a1a"/>
          <path id="Path_1369" data-name="Path 1369" d="M1204.822,811.012a2.66,2.66,0,0,0-1.9.4,1.465,1.465,0,0,1-1.495.275,1.507,1.507,0,0,0,1.612.283,1.743,1.743,0,0,1,1.309-.236Z" transform="translate(-1201.432 -810.965)" fill="#1a1a1a"/>
        </g>
        <path id="Path_1370" data-name="Path 1370" d="M1186.423,674.594a1.767,1.767,0,0,0-.1-.615c-.39-.477-.683,5.536-.683,5.536-6.349-.629-22.736.286-22.736.286l-.708-5.894c-1.1,1.289-.475,14.146-.475,14.146-1.624-4.426-3.747-12.212-4.05-16.77a4.532,4.532,0,0,1,3.552-4.64c1-4.232,4.551-5.747,8.852-7a15.741,15.741,0,0,1,14.553,3.573c3.85,3.464,5.948,7.321,4.959,12.341-1.033,5.242-.613,9.468-3.419,13.788C1186.172,689.344,1186.606,677.481,1186.423,674.594Z" transform="translate(-1157.665 -659.097)" fill="#a3400f"/>
        <path id="Path_1371" data-name="Path 1371" d="M1246.51,856.409a8.4,8.4,0,0,0,3.07-1.156c-.805,1.5-1.625,2.934-3.914,3.179a3.326,3.326,0,0,1-3.928-2.571A8.558,8.558,0,0,0,1246.51,856.409Z" transform="translate(-1228.782 -825.023)" fill="#fff"/>
      </g>
      <g id="Group_1633" data-name="Group 1633" transform="translate(1.651 55.89)">
        <path id="Path_1372" data-name="Path 1372" d="M1101.9,1024.049l-2.72-2.121-27.391,24.084,5.281-.422S1088.266,1044.157,1101.9,1024.049Z" transform="translate(-1071.79 -1021.902)" fill="#856861"/>
        <path id="Path_1373" data-name="Path 1373" d="M1112.888,1201.67l-5.711-.029-35.387-26.789,5.79-.612Z" transform="translate(-1071.79 -1150.742)" fill="#856861"/>
        <path id="Path_1374" data-name="Path 1374" d="M1103.139,1191.964l-13.094-10.174-3.625.382,14.369,10.879Z" transform="translate(-1084.166 -1157.128)" fill="#fff"/>
        <path id="Path_1375" data-name="Path 1375" d="M1107.11,1045.3s12.565-14.124,24.944-23.535l29.954,33.716-19.244,17.212Z" transform="translate(-1101.667 -1021.762)" fill="#b28b81"/>
      </g>
      <g id="Group_1642" data-name="Group 1642" transform="translate(16.747 87.115)">
        <g id="Group_1641" data-name="Group 1641">
          <g id="Group_1640" data-name="Group 1640" transform="translate(0 1.975)">
            <g id="Group_1635" data-name="Group 1635" transform="translate(5.553)">
              <g id="Group_1634" data-name="Group 1634">
                <path id="Path_1376" data-name="Path 1376" d="M1207.695,1237.742c-2.006.622-.685,2-1.919,9.545-.047.288,7.169,1.227,10.686-1.643C1220.338,1242.481,1216.148,1235.122,1207.695,1237.742Z" transform="translate(-1205.775 -1237.188)" fill="#f2ae83"/>
              </g>
            </g>
            <g id="Group_1639" data-name="Group 1639" transform="translate(0 1.495)">
              <g id="Group_1636" data-name="Group 1636">
                <path id="Path_1377" data-name="Path 1377" d="M1177.419,1249.872l-5.124,2.667a1.839,1.839,0,0,1-2.353-.431h0a1.445,1.445,0,0,1,.735-2.038l6.328-3.139C1177.854,1246.49,1178.269,1249.43,1177.419,1249.872Z" transform="translate(-1169.744 -1246.887)" fill="#f2ae83"/>
                <path id="Path_1378" data-name="Path 1378" d="M1169.75,1263.55a1.062,1.062,0,0,0,.108.338,1.564,1.564,0,0,0,1.811.709,22.024,22.024,0,0,0,3.415-1.647c1.084-.537,2.078-1.173,3.128-1.751a1.787,1.787,0,0,1-.788.78l-5.124,2.667a1.839,1.839,0,0,1-2.353-.43h0A1.184,1.184,0,0,1,1169.75,1263.55Z" transform="translate(-1169.749 -1258.994)" fill="#c2713e"/>
              </g>
              <g id="Group_1637" data-name="Group 1637" transform="translate(1.44 2.724)">
                <path id="Path_1379" data-name="Path 1379" d="M1186.77,1267.267l-5.124,2.667a1.839,1.839,0,0,1-2.353-.431h0a1.444,1.444,0,0,1,.734-2.038l5.125-2.667a1.839,1.839,0,0,1,2.353.43h0A1.445,1.445,0,0,1,1186.77,1267.267Z" transform="translate(-1179.094 -1264.562)" fill="#f2ae83"/>
                <path id="Path_1380" data-name="Path 1380" d="M1179.09,1283.489a1.058,1.058,0,0,0,.108.338,1.5,1.5,0,0,0,1.811.709,36.537,36.537,0,0,0,3.393-1.676,12.1,12.1,0,0,1,2.362-.943l-5.124,2.667a1.839,1.839,0,0,1-2.353-.431h0A1.2,1.2,0,0,1,1179.09,1283.489Z" transform="translate(-1179.09 -1279.212)" fill="#c2713e"/>
              </g>
              <g id="Group_1638" data-name="Group 1638" transform="translate(3.325 5.037)">
                <path id="Path_1381" data-name="Path 1381" d="M1199,1282l-5.15,2.474a1.944,1.944,0,0,1-2.343-.358h0c-.435-.607-.093-1.439.761-1.849l5.15-2.474a1.945,1.945,0,0,1,2.343.358h0C1200.2,1280.762,1199.854,1281.594,1199,1282Z" transform="translate(-1191.318 -1279.571)" fill="#f2ae83"/>
                <path id="Path_1382" data-name="Path 1382" d="M1191.329,1296.659a.866.866,0,0,0,.1.3,1.6,1.6,0,0,0,1.8.616,26.143,26.143,0,0,0,3.457-1.667,8.413,8.413,0,0,1,2.322-.772l-5.15,2.474a1.943,1.943,0,0,1-2.343-.357h0A.969.969,0,0,1,1191.329,1296.659Z" transform="translate(-1191.327 -1292.708)" fill="#c2713e"/>
              </g>
              <path id="Path_1383" data-name="Path 1383" d="M1216.333,1292.612l-3.987,2.123a1.418,1.418,0,0,1-1.844-.369h0a1.174,1.174,0,0,1,.558-1.648l3.987-2.123c.661-.352,4.556-.824,4.91-.269C1219.956,1290.325,1220.28,1290.681,1216.333,1292.612Z" transform="translate(-1204.085 -1283.416)" fill="#f2ae83"/>
            </g>
          </g>
          <path id="Path_1384" data-name="Path 1384" d="M1199.125,1227.428a12.547,12.547,0,0,0-2.816-2.322c-1.124-.493-5.562-.422-7.3-.708s-1.156,2.094.761,2.643a3.376,3.376,0,0,1,2.221,2.65Z" transform="translate(-1185.161 -1224.375)" fill="#f2ae83"/>
        </g>
      </g>
      <path id="Path_1385" data-name="Path 1385" d="M1281.779,1178.573c-.417-.833-7.339-2.344-10.875-1.905s-26.913,10.541-26.913,10.541-.7,4.476,1.18,6.289c0,0,32.286-3.983,35.064-5.672C1285.814,1184.434,1282.2,1179.407,1281.779,1178.573Z" transform="translate(-1215.694 -1096.839)" fill="#f2ae83"/>
    </g>
    <g id="character" transform="translate(296.594 577.967)">
      <g id="Group_1684" data-name="Group 1684" transform="translate(34.495 37.286)">
        <g id="Group_1683" data-name="Group 1683">
          <rect id="Rectangle_274" data-name="Rectangle 274" width="16.793" height="19.974" fill="#ffa58f"/>
          <path id="Path_1467" data-name="Path 1467" d="M594.027,830.576v6.143a29.505,29.505,0,0,1-16.793,6.143V830.576h16.793Z" transform="translate(-577.234 -830.576)" fill="#b3624b"/>
        </g>
      </g>
      <path id="Path_1468" data-name="Path 1468" d="M763.984,960.349c1.833,1.43,4.992,4.374,5.18,5.951s6.189,43.5,6.563,46.219c.752,5.443-16.6-.144-17.258-3.694s-7.906-29.4-7.906-29.4l7-20.526S762.05,958.841,763.984,960.349Z" transform="translate(-689.356 -901.837)" fill="#29253b"/>
      <path id="Path_1469" data-name="Path 1469" d="M609.9,1368.5c4.4,27.021.593,76.82-.548,84.148-1.154,7.411-16.459-4.827-16.954-12.3-.178-2.686.528-5.359.534-8.05,0-2.378-1.037-4.663-1.076-7.049-.342-20.831-4.447-23.756-7.425-36.6l-4.819-20.148Z" transform="translate(-544.747 -1248.314)" fill="#232033"/>
      <g id="Group_1685" data-name="Group 1685" transform="translate(0 252.722)">
        <path id="Path_1470" data-name="Path 1470" d="M402.915,2251.476c3.256-1.556,6.126-3.2,6.933-4.873l.36-14.8c.126-1.1.364-2.445-.711-2.593l-4.888-.675a1.907,1.907,0,0,0-2.107,1.418c-.545,2.04-2.458,8.789-2.458,8.789l-9.543,9.41c-.971.957-2,1.935-2.1,3.324C388.4,2251.52,402.915,2251.476,402.915,2251.476Z" transform="translate(-383.008 -2228.516)" fill="#b3b3b3"/>
        <path id="Path_1471" data-name="Path 1471" d="M380.5,2275.219c-.308-.047.8,7.909-2.829,8.5a5.129,5.129,0,0,1-.7.059l-.287-3.359s-5.151-2.379-9.011-2.078l-.892,1.833-10.973,6.038c-.908.9-2.28,2.248-2.407,4.115a1.471,1.471,0,0,0,.313.879h27.733S380.811,2275.265,380.5,2275.219Z" transform="translate(-353.398 -2268.021)" fill="#1a1a1a"/>
      </g>
      <g id="Group_1686" data-name="Group 1686" transform="translate(53.806 253.225)">
        <path id="Path_1472" data-name="Path 1472" d="M742.544,2254.183a13.465,13.465,0,0,0-1.4-3.309l-7.251-9.5s-.913-6.146-1.159-8a1.734,1.734,0,0,0-1.675-1.523l-4.326-.073a1.741,1.741,0,0,0-1.748,1.74l-.494,13.383a69.757,69.757,0,0,0,2.936,7.243Z" transform="translate(-721.106 -2231.778)" fill="#b3b3b3"/>
        <path id="Path_1473" data-name="Path 1473" d="M723.293,2289.2l-4.905-6.427-.677-2.037c-3.323-.785-8.067.592-8.067.592l-.624,2.891a4.529,4.529,0,0,1-.6-.146c-3.087-1.009-2.1-6.3-2.371-6.3s-3.508,15.6-3.508,15.6H724.9c.011-.084.02-.169.025-.254A6.1,6.1,0,0,0,723.293,2289.2Z" transform="translate(-702.536 -2270.688)" fill="#1a1a1a"/>
      </g>
      <path id="Path_1474" data-name="Path 1474" d="M475.508,1358.49c-4.5,27.022-2.274,76.82-1.108,84.148,1.179,7.411,16.82-4.827,17.325-12.3.181-2.686-.54-5.359-.545-8.05a30.562,30.562,0,0,1,1.1-7.048c3.043-12.847,9.47-25.693,12.513-38.539V1358.49Z" transform="translate(-454.408 -1239.847)" fill="#232033"/>
      <path id="Path_1475" data-name="Path 1475" d="M464.46,1845.224c-.191-10.642-.009-21.286.172-31.928q.137-8.021.273-16.041c.128-7.533.569-15.164,3.342-22.27.828-2.121,14.156-7.594,15.8-5.37,0,0,1.11,10.482,1.8,15.229.457,3.124-.164,6.286-.783,9.387-3.365,16.854-5.123,34.138-8.487,50.992Z" transform="translate(-447.276 -1587.172)" fill="#232033"/>
      <path id="Path_1476" data-name="Path 1476" d="M674.934,1854.535c.187-10.642-.258-20.6-.435-31.246l-.267-16.041c-.125-7.533-.556-15.164-3.271-22.27-.81-2.121-13.853-7.594-15.463-5.37,0,0-1.086,10.482-1.766,15.229-.447,3.124.16,6.286.766,9.387,3.293,16.855,4.861,33.5,8.153,50.354Z" transform="translate(-607.317 -1595.626)" fill="#232033"/>
      <path id="Path_1477" data-name="Path 1477" d="M467.084,994.717c-.5,0-.83,0-.964,0-2.5-.031-9.943-2.193-11.021-3.876,2.772-14.33,1.085-22.966-.547-31.32-.917-4.7-1.964-14.882-1.964-14.882-1-1.881-2.16-15.941-1.306-21.74l18.418-7.743,8.53,2.553h1.72l8.53-2.553L506.9,922.9c.854,5.8-.3,19.858-1.306,21.74,0,0-1.292,10.426-2.467,15.168-1.989,8.026-4.045,16.325-1.256,30.515l.012.063c-.554.836-4.7,2.982-6.716,3.3C488.681,994.706,467.963,994.717,467.084,994.717Z" transform="translate(-435.947 -864.833)" fill="#cfd7e9"/>
      <g id="Group_1691" data-name="Group 1691" transform="translate(28.666 46.102)">
        <path id="Path_1478" data-name="Path 1478" d="M591.132,934.775l3.217-3.12-1.913-5.23-4.546-.4-4.546.4-1.913,5.23,3.218,3.12-5.043,49.037,8.284,9.686,8.284-9.686Z" transform="translate(-573.412 -920.128)" fill="#9e62ff"/>
        <g id="Group_1688" data-name="Group 1688" transform="translate(14.479)">
          <g id="Group_1687" data-name="Group 1687">
            <path id="Path_1479" data-name="Path 1479" d="M642.214,887.779l-8.855,5.894,3.241.662,2.6,13.446,8.64-13.6Z" transform="translate(-633.359 -887.779)" fill="#fff"/>
          </g>
        </g>
        <g id="Group_1690" data-name="Group 1690">
          <g id="Group_1689" data-name="Group 1689">
            <path id="Path_1480" data-name="Path 1480" d="M545.031,887.779l8.855,5.894-3.241.662-2.6,13.446-8.639-13.6Z" transform="translate(-539.407 -887.779)" fill="#fff"/>
          </g>
        </g>
      </g>
      <path id="Path_1481" data-name="Path 1481" d="M372.3,958.8c-1.833,1.43-4.992,4.373-5.18,5.951s-4.223,34.94-5.27,44.1c-.65,8.826,16.056,8.927,17.085,6.489s6.785-37.461,6.785-37.461l-7-20.526S374.229,957.3,372.3,958.8Z" transform="translate(-360.528 -900.53)" fill="#29253b"/>
      <path id="Path_1482" data-name="Path 1482" d="M703.092,925.892l-16.91-6.835-5.191,40.088-.657,49.833c6.487,4.423,18.449,2.9,19.761,1.237s-.83-12.824-1.107-14.969c-2.937-22.681,1.385-46.894,1.385-46.894S704.091,931.388,703.092,925.892Z" transform="translate(-629.95 -868.135)" fill="#29253b"/>
      <path id="Path_1483" data-name="Path 1483" d="M462.955,958.808l-5.849-39.748-16.448,6.483c-1,5.5,2.258,22.812,2.258,22.812s5.723,23.816,2.054,46.161c-.16,1.95-2.436,14.132-1.491,15.488s15.073,4.475,20.824.668Z" transform="translate(-427.05 -868.138)" fill="#29253b"/>
      <g id="Group_1693" data-name="Group 1693" transform="translate(20.227 91.213)">
        <g id="Group_1692" data-name="Group 1692" transform="translate(5.611 3.119)">
          <path id="Path_1484" data-name="Path 1484" d="M576.93,1219.976c.166-1.11-3.547-11.818-7.955-13.343s-46.334-5.889-46.334-5.889-2.17,3.638-1.425,6.461c0,0,30.965,10.468,35.059,11.727S576.764,1221.086,576.93,1219.976Z" transform="translate(-521.06 -1200.744)" fill="#ffa58f"/>
        </g>
        <path id="Path_1485" data-name="Path 1485" d="M493.639,1184.182s-8.446-3.4-8.989-3.678v12.282l7.775-2.624Z" transform="translate(-484.65 -1180.504)" fill="#ffa58f"/>
        <path id="Path_1486" data-name="Path 1486" d="M559.612,1190.02l-2.682,12.424s27.993,8.663,39.486,11.07,16.344-1.913,15.368-5.84a15.721,15.721,0,0,0-11.419-11.485C593.244,1194.449,559.612,1190.02,559.612,1190.02Z" transform="translate(-545.791 -1188.553)" fill="#29253b"/>
      </g>
      <g id="Group_1698" data-name="Group 1698" transform="translate(7.289 97.234)">
        <g id="Group_1694" data-name="Group 1694" transform="translate(0 2.262)">
          <path id="Path_1487" data-name="Path 1487" d="M400.695,1248.769c.042-1.122,3.641-13.791,8.255-14.472s51.675,6.265,51.675,6.265-2.1,6.468-3.818,7.166c0,0-23.589.894-31.981,1.925C420.575,1250.174,400.652,1249.891,400.695,1248.769Z" transform="translate(-400.695 -1234.25)" fill="#ffa58f"/>
        </g>
        <g id="Group_1697" data-name="Group 1697" transform="translate(51.514)">
          <g id="Group_1696" data-name="Group 1696">
            <g id="Group_1695" data-name="Group 1695">
              <path id="Path_1488" data-name="Path 1488" d="M735.977,1247.015c2.551,1.389,5.467,1.742,8.222,2.52,1.123.317,2.464.576,3.256-.2a3.275,3.275,0,0,0,.719-1.732c.412-2.025-1.344-4.927-.932-7.574.29-1.858.392-5.806-.561-5.7-2.51.291-6.609,4.339-9.246,5.666a2.257,2.257,0,0,0-.919.856C735.645,1242.3,733.813,1245.837,735.977,1247.015Z" transform="translate(-734.961 -1232.052)" fill="#ffa58f"/>
              <path id="Path_1489" data-name="Path 1489" d="M802.8,1249.7a24.081,24.081,0,0,0,6.583-.554c1.322-.311,2.771-1.457,6.746-3.834,1.477-.884-.531-1.977-2.1-1.258a27,27,0,0,1-4.8,1.938c-2.355.763-4.538-.214-6.863.134C800.8,1246.36,801.208,1249.662,802.8,1249.7Z" transform="translate(-791.14 -1240.083)" fill="#ffa58f"/>
              <path id="Path_1490" data-name="Path 1490" d="M797.92,1273.07c3.749-.26,5.043.139,7.432-.48,1.815-.47,2.7-1.221,5.618-2.329,2-.76.771-2.961-1.225-2.2-2.983,1.134-4.031,1.565-4.031,1.565-3.055.852-6.232.111-9.331.584C794.3,1270.526,795.808,1273.217,797.92,1273.07Z" transform="translate(-786.073 -1260.454)" fill="#ffa58f"/>
              <path id="Path_1491" data-name="Path 1491" d="M798.075,1295.959a27.088,27.088,0,0,0,7.726.613c.7-.117,3.642-1.3,4.459-1.591a7.215,7.215,0,0,0,2.235-1.346c.548-.629-.164-1.674-1.03-1.472-1.011.236-4.263,1.4-6.465,1.777-3.123.53-4.946-1.151-8.065-.994C794.834,1293.051,795.99,1295.561,798.075,1295.959Z" transform="translate(-786.443 -1280.955)" fill="#ffa58f"/>
              <path id="Path_1492" data-name="Path 1492" d="M794.52,1316.578a25.2,25.2,0,0,0,5.041.3c.571.016,2.648-.352,3.938-.393.694-.022,2.626-.383,2.626-.383a.79.79,0,0,0-.62-1.329c-.832.038-2.385.159-4.181.115-2.548-.062-4.917-1.251-7.42-1.651C792.221,1312.971,792.832,1316.309,794.52,1316.578Z" transform="translate(-783.977 -1298.791)" fill="#ffa58f"/>
              <path id="Path_1493" data-name="Path 1493" d="M775.768,1228.411c1.154-2.289,1.831-3.857,2.91-4.251a24.241,24.241,0,0,0,3.419-1.444,3.442,3.442,0,0,0,1.464-2.258c.147-1.669-2.916-.552-5.209-.122a6.424,6.424,0,0,0-3.584,1.766c-.992.95-4.382,4.341-4.382,4.341Z" transform="translate(-764.927 -1219.57)" fill="#ffa58f"/>
            </g>
          </g>
        </g>
      </g>
      <path id="Path_1494" data-name="Path 1494" d="M436.018,1237.733l2.695-12.839s-41.718-4.565-45.279-5-9.458,4.22-10.214,8.922-.151,8.513,4.687,9.556S436.018,1237.733,436.018,1237.733Z" transform="translate(-378.395 -1122.581)" fill="#29253b"/>
      <g id="Group_1705" data-name="Group 1705" transform="translate(26.997 6.795)">
        <g id="Group_1700" data-name="Group 1700">
          <g id="Group_1699" data-name="Group 1699" transform="translate(0 19.457)">
            <path id="Path_1495" data-name="Path 1495" d="M686.867,767.832a3.155,3.155,0,0,0,2.208-.284,7.3,7.3,0,0,0,1.786-1.353c1.42-1.367,2.74-3.091,2.639-5.022a2.412,2.412,0,0,0-.758-1.742,2.3,2.3,0,0,0-2.261-.284,3.847,3.847,0,0,0-1.76,1.515Z" transform="translate(-662.473 -758.977)" fill="#ffa58f"/>
            <path id="Path_1496" data-name="Path 1496" d="M535.216,767.832a3.156,3.156,0,0,1-2.208-.284,7.3,7.3,0,0,1-1.786-1.353c-1.42-1.367-2.74-3.091-2.639-5.022a2.411,2.411,0,0,1,.758-1.742,2.3,2.3,0,0,1,2.261-.284,3.847,3.847,0,0,1,1.76,1.515Z" transform="translate(-528.577 -758.977)" fill="#ffa58f"/>
          </g>
          <path id="Path_1497" data-name="Path 1497" d="M562.618,661.972c.562-6.043,2.138-9.566,3.112-13.057.7-2.616,1.4-7.085-1.641-11.024-3.005-4.093-10.548-6.418-17.454-4.461-6.955,1.96-10.813,6.026-9.971,10.655.425,2.772.825,6.605,1.288,9.465.384,2.377-.339,4.761.54,7.077,1.637,3.984,7.963,10.973,12.945,10.973C555.508,671.6,562.229,664.608,562.618,661.972Z" transform="translate(-535.321 -632.725)" fill="#ffa58f"/>
        </g>
        <path id="Path_1498" data-name="Path 1498" d="M632.826,786.715a2.2,2.2,0,0,1-.148.335.638.638,0,0,1-.227.276c-.1.054-.256.016-.375-.157a.745.745,0,0,1-.119-.333.974.974,0,0,1,.048-.421.96.96,0,0,1,.225-.356.727.727,0,0,1,.3-.18c.2-.057.343.013.388.121a.651.651,0,0,1,0,.36A2.218,2.218,0,0,1,632.826,786.715Z" transform="translate(-616.021 -762.259)" fill="#f2f2f2"/>
        <path id="Path_1499" data-name="Path 1499" d="M624.09,784.306c-.019-.083-.036-.157-.049-.223s-.023-.124-.031-.183a1.315,1.315,0,0,1-.009-.206c0-.077.012-.163.023-.25a2.875,2.875,0,0,0,.04-.507.493.493,0,0,0-.137-.354.192.192,0,0,0-.263-.011,1.161,1.161,0,0,0-.3.375,1.893,1.893,0,0,0-.239.744,1.5,1.5,0,0,0,.032.464,2,2,0,0,0,.154.431,2.5,2.5,0,0,0,.219.368,2.9,2.9,0,0,0,.243.3,3.886,3.886,0,0,0,.444.409c.258.2.413.271.5.134s.072-.288-.068-.518c-.068-.115-.169-.249-.279-.409a2.723,2.723,0,0,1-.161-.262A1.4,1.4,0,0,1,624.09,784.306Z" transform="translate(-608.549 -759.44)" fill="#d16343"/>
        <g id="Group_1704" data-name="Group 1704" transform="translate(6.885 17.384)">
          <path id="Path_1500" data-name="Path 1500" d="M656.067,745.937a5.589,5.589,0,0,1,2.225-.117c.741.108,2.505,1.924,1.842,1.743a16.162,16.162,0,0,0-1.977-.425,15.561,15.561,0,0,0-2-.166C655.473,746.953,655.342,746.132,656.067,745.937Z" transform="translate(-642.893 -745.724)" fill="#1a1a1a"/>
          <path id="Path_1501" data-name="Path 1501" d="M577.438,745.676a5.582,5.582,0,0,0-2.226-.063c-.739.126-2.471,1.984-1.811,1.787a16.211,16.211,0,0,1,1.969-.473,15.524,15.524,0,0,1,2-.214C578.049,746.679,578.166,745.854,577.438,745.676Z" transform="translate(-573.253 -745.53)" fill="#1a1a1a"/>
          <g id="Group_1703" data-name="Group 1703" transform="translate(1.06 2.466)">
            <g id="Group_1701" data-name="Group 1701">
              <path id="Path_1502" data-name="Path 1502" d="M582.949,764.537l-.009-1.606a1.409,1.409,0,0,0-1.413-1.4h0a1.409,1.409,0,0,0-1.4,1.413l.009,1.606C580.143,765.326,582.953,765.31,582.949,764.537Z" transform="translate(-580.13 -761.534)" fill="#1a1a1a"/>
            </g>
            <g id="Group_1702" data-name="Group 1702" transform="translate(12.478)">
              <path id="Path_1503" data-name="Path 1503" d="M661.1,764.537l.009-1.606a1.409,1.409,0,0,1,1.413-1.4h0a1.41,1.41,0,0,1,1.4,1.413l-.009,1.606C663.9,765.326,661.093,765.31,661.1,764.537Z" transform="translate(-661.097 -761.534)" fill="#1a1a1a"/>
            </g>
          </g>
        </g>
        <path id="Path_1504" data-name="Path 1504" d="M612.823,811.823A4.351,4.351,0,0,0,618,813.357a.33.33,0,0,0,.125-.447.336.336,0,0,0-.447-.125A3.68,3.68,0,0,1,613.4,811.5c-.237-.345-.812-.028-.572.321Z" transform="translate(-599.792 -783.825)" fill="#c2502f"/>
      </g>
      <g id="Group_1706" data-name="Group 1706" transform="translate(26.839)">
        <path id="Path_1505" data-name="Path 1505" d="M559.015,608.891a14.9,14.9,0,0,0,.177-5.181c-.443-2.677-2.127-5.311-4.735-6.181,1.425-.941,1.556-3.1.673-4.546a7.913,7.913,0,0,0-4.085-2.93c-5.388-2.081-11.791-1.989-16.714,1.008-4.9,2.985-7.654,10.044-6.521,14.573s1.627,6.891,4.756,6.714c2.77-.156,5.222-1.786,7.331-3.562s5.272-4.975,7.768-6.169a8.264,8.264,0,0,1,6.382-.479c2.3,4.988,1.714,10.706,1.955,16.6.705-2.146,1.755-4.766,2.349-7C558.6,610.8,558.835,609.851,559.015,608.891Z" transform="translate(-527.556 -588.631)" fill="#693529"/>
        <path id="Path_1506" data-name="Path 1506" d="M535.009,693.617l1.363-14.94s-2.147-1.908-3.207-1.023S535.009,693.617,535.009,693.617Z" transform="translate(-532.104 -663.736)" fill="#693529"/>
      </g>
    </g>
  </g>
</svg>
