<svg xmlns="http://www.w3.org/2000/svg" xmlns:xlink="http://www.w3.org/1999/xlink" width="40" height="40" viewBox="0 0 40 40">
  <defs>
    <clipPath id="clip-path">
      <rect id="Rectangle_234648" data-name="Rectangle 234648" width="40" height="40" transform="translate(-2562.164 -269.164)" fill="#c9b3f6"/>
    </clipPath>
  </defs>
  <g id="Mask_Group_266149" data-name="Mask Group 266149" transform="translate(2562.164 269.164)" opacity="0.978" clip-path="url(#clip-path)">
    <g id="laptop" transform="translate(-2556.681 -263.681)">
      <g id="Group_282955" data-name="Group 282955" transform="translate(10.329)">
        <path id="Path_582002" data-name="Path 582002" d="M198.847,35.442q1.1-.016,2.208.032a1.845,1.845,0,0,1,.487.292,3.27,3.27,0,0,1,.422.877,9.6,9.6,0,0,1,2.4.942,1.508,1.508,0,0,1,1.624-.032l1.2,1.2a1.364,1.364,0,0,1-.1,1.624,7.348,7.348,0,0,1,1.007,2.4,3.27,3.27,0,0,1,.877.422,1.846,1.846,0,0,1,.292.487,18.784,18.784,0,0,1,0,2.208,1.846,1.846,0,0,1-.292.487,3.27,3.27,0,0,1-.877.422,8.019,8.019,0,0,1-1.007,2.436,1.31,1.31,0,0,1,.1,1.591l-1.2,1.2A1.508,1.508,0,0,1,204.367,52,13.27,13.27,0,0,1,201.9,53.01a1.4,1.4,0,0,1-.844,1.1,18.777,18.777,0,0,1-2.208,0A1.26,1.26,0,0,1,198,53.042,17.456,17.456,0,0,1,195.534,52a1.507,1.507,0,0,1-1.624.032q-.7-.669-1.331-1.4a1.672,1.672,0,0,1-.1-.552,4.522,4.522,0,0,1,.227-1.007,11.143,11.143,0,0,1-.974-2.338,1.224,1.224,0,0,1-1.169-1.169,7.663,7.663,0,0,1,.065-1.883,1.267,1.267,0,0,1,1.1-.844,11.143,11.143,0,0,1,.974-2.338,4.522,4.522,0,0,1-.227-1.007,1.1,1.1,0,0,1,.227-.747q.669-.7,1.4-1.331a1.362,1.362,0,0,1,1.4.227,9.333,9.333,0,0,1,2.436-1.039,6.006,6.006,0,0,1,.357-.779A2.718,2.718,0,0,1,198.847,35.442Zm.455,4.481q4.513-.172,5.488,4.222A4.894,4.894,0,0,1,195.567,47a5.129,5.129,0,0,1,.52-5.261A4.967,4.967,0,0,1,199.3,39.923Z" transform="translate(-190.536 -35.438)" fill="#c9b3f6" fill-rule="evenodd" opacity="0.979"/>
      </g>
      <g id="Group_282956" data-name="Group 282956" transform="translate(1.295 6.361)">
        <path id="Path_582003" data-name="Path 582003" d="M52.676,133.383q4.157-.032,8.313.065a1.175,1.175,0,0,1-.13.227,2.161,2.161,0,0,0-1.331,1.981,8.973,8.973,0,0,0,.065,1.948,2.468,2.468,0,0,0,1.3,1.494q.287.8.649,1.559a6.077,6.077,0,0,0-.065,1.429,3.067,3.067,0,0,0,.325.779,11.189,11.189,0,0,0,1.786,1.721,2.283,2.283,0,0,0,1.007.227q.507-.058,1.007-.1.789.36,1.591.682a1.957,1.957,0,0,0,1.266,1.2,6.37,6.37,0,0,0,2.858,0,2.576,2.576,0,0,0,1.3-1.234,10.759,10.759,0,0,0,1.494-.649,7.049,7.049,0,0,0,1.494.065,3.067,3.067,0,0,0,.779-.325q.793-.7,1.526-1.461.049,4.189.032,8.378-4.092-.016-8.183.032a1.466,1.466,0,0,0-1.364,1.266h-7.4a1.467,1.467,0,0,0-1.364-1.266q-4.092-.049-8.183-.032-.016-8.346.032-16.692A1.744,1.744,0,0,1,52.676,133.383Z" transform="translate(-51.437 -133.375)" fill="#c9b3f6" fill-rule="evenodd" opacity="0.987"/>
      </g>
      <g id="Group_282957" data-name="Group 282957" transform="translate(0 25.33)">
        <path id="Path_582004" data-name="Path 582004" d="M31.89,425.441q4.514-.016,9.028.032a.543.543,0,0,1,.357.162q.151.449.26.909a.938.938,0,0,0,.357.162q4.157.065,8.313,0a.543.543,0,0,0,.357-.162q.137-.45.26-.909a.458.458,0,0,1,.292-.162q4.514-.065,9.028,0a.4.4,0,0,1,.422.292,2.246,2.246,0,0,1-1.526,2.89q-12.99.065-25.979,0a1.972,1.972,0,0,1-1.526-1.526,7.176,7.176,0,0,1,0-1.364A.81.81,0,0,1,31.89,425.441Z" transform="translate(-31.5 -425.437)" fill="#c9b3f6" fill-rule="evenodd" opacity="0.98"/>
      </g>
    </g>
  </g>
</svg>
