<svg xmlns="http://www.w3.org/2000/svg" xmlns:xlink="http://www.w3.org/1999/xlink" width="40" height="40" viewBox="0 0 40 40">
  <defs>
    <clipPath id="clip-path">
      <rect id="Rectangle_234653" data-name="Rectangle 234653" width="40" height="40" transform="translate(-2487 -281)" fill="#cbb5f6"/>
    </clipPath>
  </defs>
  <g id="Mask_Group_266153" data-name="Mask Group 266153" transform="translate(2487 281)" opacity="0.978" clip-path="url(#clip-path)">
    <g id="Group_282977" data-name="Group 282977" transform="translate(-2481.667 -275.667)">
      <g id="_24-hours" data-name="24-hours" transform="translate(0)">
        <g id="Group_282973" data-name="Group 282973">
          <path id="Path_582016" data-name="Path 582016" d="M1.758-.5H3.437a21.292,21.292,0,0,0,.782,2.2A2.583,2.583,0,0,0,6.1,2.887q2.779.058,5.558,0a2.6,2.6,0,0,0,2.113-1.65q.267-.874.55-1.737H16A2.857,2.857,0,0,1,18.23,1.758q.043,1.679.029,3.358Q14.5,5.1,10.732,5.145A4.988,4.988,0,0,0,5.956,9.053a13.378,13.378,0,0,0-.145,1.534q.07,6.7.087,13.4a2.577,2.577,0,0,0,3.04,2,2.821,2.821,0,0,0,.868-.347q1.519-1.064,3.069-2.084,2.692-.043,5.385-.029.015,1.679-.029,3.358A2.857,2.857,0,0,1,16,29.144H1.758A2.943,2.943,0,0,1-.5,26.886V1.758A2.943,2.943,0,0,1,1.758-.5Z" transform="translate(0.5 0.5)" fill="#cbb5f6" fill-rule="evenodd" opacity="0.992"/>
        </g>
        <g id="Group_282974" data-name="Group 282974" transform="translate(5.732)">
          <path id="Path_582017" data-name="Path 582017" d="M98.5-.5h7.3a8.277,8.277,0,0,1-.434,1.39,1.088,1.088,0,0,1-.318.261q-1.443.1-2.895.087-1.452.012-2.895-.087a.906.906,0,0,1-.434-.492Q98.632.085,98.5-.5Z" transform="translate(-98.5 0.5)" fill="#cbb5f6" fill-rule="evenodd" opacity="0.97"/>
        </g>
        <g id="Group_282975" data-name="Group 282975" transform="translate(8.048 7.35)">
          <path id="Path_582018" data-name="Path 582018" d="M160.684,129.053v9.727a3.31,3.31,0,0,1-2.676,2.576l-14.453.058q-1.879,1.279-3.806,2.49a.972.972,0,0,1-1.219-.55q-.059-7.15,0-14.3a3.358,3.358,0,0,1,2.409-2.519q8.531-.144,17.07-.058A3.31,3.31,0,0,1,160.684,129.053Zm-7.613.811a1.079,1.079,0,0,1,.8.521,11.654,11.654,0,0,1,.089,1.969,2.472,2.472,0,0,1,3,1.563,4.43,4.43,0,0,1,.119.753,15.913,15.913,0,0,1-.059,2.663.9.9,0,0,1-1.427.289.95.95,0,0,1-.238-.579q-.03-1.361-.059-2.721a.576.576,0,0,0-.624-.347.644.644,0,0,0-.684.405q-.03,1.418-.059,2.837a.9.9,0,0,1-1.279.55,1.183,1.183,0,0,1-.387-.492q-.059-3.387,0-6.774A1.031,1.031,0,0,1,153.071,129.864Zm-8.921.926a2.237,2.237,0,0,1,2.349,2.548,3.609,3.609,0,0,1-.238.753q-.655,1.043-1.4,2.026.593.072,1.19.087a.855.855,0,0,1,.684,1.129,1.156,1.156,0,0,1-.565.492q-1.606.058-3.212,0a.867.867,0,0,1-.506-1.361q1.075-1.365,2.082-2.779a1,1,0,0,0,.178-.984.49.49,0,0,0-.833,0,.946.946,0,0,1-1.517.666,1.092,1.092,0,0,1-.03-1.419A2.391,2.391,0,0,1,144.15,130.79Zm5.115.058a1.211,1.211,0,0,1,1.457.926q.045,1.447.03,2.895a.806.806,0,0,1,.565,1.274,1.038,1.038,0,0,1-.506.347,8.273,8.273,0,0,0-.089.984.873.873,0,0,1-1.4.405,1.117,1.117,0,0,1-.268-.405,8.177,8.177,0,0,1-.03-.984q-1.071.014-2.141-.029a.872.872,0,0,1-.565-1.071q1-1.823,2.082-3.59A2.275,2.275,0,0,1,149.265,130.848Z" transform="translate(-138.5 -126.444)" fill="#cbb5f6" fill-rule="evenodd" opacity="0.988"/>
          <rect id="Rectangle_234652" data-name="Rectangle 234652" width="6.667" height="8.667" transform="translate(12.929 2.961)" fill="#cbb5f6"/>
        </g>
        <g id="Group_282976" data-name="Group 282976" transform="translate(17.89 14.822)">
          <path id="Path_582019" data-name="Path 582019" d="M308.847,255.5a2.121,2.121,0,0,1,.058.695,1.445,1.445,0,0,1-.405-.029Q308.687,255.835,308.847,255.5Z" transform="translate(-308.5 -255.5)" fill="#cbb5f6" fill-rule="evenodd" opacity="0.756"/>
        </g>
      </g>
      <text id="About_Us" data-name="About Us" transform="translate(30.233 16.466)" fill="#cbb5f6" font-size="1" font-family="Nunito-Black, Nunito" font-weight="800"><tspan x="0" y="0">/7</tspan></text>
    </g>
    <text id="About_Us-2" data-name="About Us" transform="translate(-2461 -257)" fill="#fff" font-size="9" font-family="Nunito-Bold, Nunito" font-weight="700"><tspan x="0" y="0">/7</tspan></text>
  </g>
</svg>
