<svg xmlns="http://www.w3.org/2000/svg" xmlns:xlink="http://www.w3.org/1999/xlink" width="40" height="40" viewBox="0 0 40 40">
  <defs>
    <filter id="Rectangle_234644" x="-9" y="-6" width="58" height="58" filterUnits="userSpaceOnUse">
      <feOffset dy="3" input="SourceAlpha"/>
      <feGaussianBlur stdDeviation="3" result="blur"/>
      <feFlood flood-opacity="0.11"/>
      <feComposite operator="in" in2="blur"/>
      <feComposite in="SourceGraphic"/>
    </filter>
    <clipPath id="clip-path">
      <g transform="matrix(1, 0, 0, 1, 0, 0)" filter="url(#Rectangle_234644)">
        <rect id="Rectangle_234644-2" data-name="Rectangle 234644" width="40" height="40" transform="translate(-2710 -266)" fill="#c2aaf6"/>
      </g>
    </clipPath>
  </defs>
  <g id="Mask_Group_266145" data-name="Mask Group 266145" transform="translate(2710 266)" opacity="0.994" clip-path="url(#clip-path)">
    <g id="Group_282935" data-name="Group 282935" transform="translate(-2706.173 -260.734)">
      <path id="Subtraction_13" data-name="Subtraction 13" d="M5.613,30.11c-1.247,0-2.513,0-3.762,0-.01-4.194,0-8.376.031-12.429a6.811,6.811,0,0,1,3.7-1.139,7.328,7.328,0,0,1,2.387.42c.358.148.715.317,1.062.5l.04.031,1.583,1.218c1.935.08,3.89.123,5.809.125a1.932,1.932,0,0,1,1.343,2.342,1.841,1.841,0,0,1-1.343,1.343c-2.158,0-4.343.044-6.5.124A.915.915,0,0,0,9.441,23.8a.9.9,0,0,0,.843.593c1.047.021,2.108.031,3.155.031s2.108-.01,3.154-.031a2.169,2.169,0,0,0,1.468-.718c1.7-2.193,3.479-4.368,5.279-6.465a2.37,2.37,0,0,1,1.1-.279,2.468,2.468,0,0,1,.84.154,2.119,2.119,0,0,1,1,1.28V19.3a10.593,10.593,0,0,1-.781,1.311l-3.164,4.571-.016.023L20.434,27.92a5.858,5.858,0,0,1-3.655,2.155C13,30.1,9.244,30.11,5.613,30.11Zm12.2-12.621h0a3.956,3.956,0,0,0-1.842-.531L11.221,16.9a8.389,8.389,0,0,0-5.507-2.156,9.555,9.555,0,0,0-3.05.533c-.383.16-.761.339-1.125.531A9.181,9.181,0,0,1,.071,11.93a11.313,11.313,0,0,1,.973-6.193A11.174,11.174,0,0,1,5.349,1.218,11.64,11.64,0,0,1,9.16,0h2.248A11.271,11.271,0,0,1,16.76,2.259,11.267,11.267,0,0,1,20.122,7a10.969,10.969,0,0,1,.413,5.079A10.945,10.945,0,0,1,18.5,16.74a5.893,5.893,0,0,1-.687.749ZM7.941,8.405a.248.248,0,0,0-.259.187c-.017.341-.017.687,0,1.027a.889.889,0,0,0,.126.251c1.256,1.362,2.491,2.774,3.671,4.2l.1.05c.258.008.528.013.8.013s.542,0,.8-.013a.266.266,0,0,0,.138-.388c-1.1-1.339-2.241-2.676-3.4-3.972.228-.05.474-.107.752-.175A3.1,3.1,0,0,0,12.932,7.19c.433-.02.88-.033,1.328-.037a.175.175,0,0,0,.088-.063,3.017,3.017,0,0,0,.038-.539,3.012,3.012,0,0,0-.038-.538.192.192,0,0,0-.163-.088l-.612-.012h-.027L12.907,5.9c-.12-.26-.234-.534-.339-.815-.044-.074-.09-.146-.137-.213h.061c.591,0,1.194-.017,1.793-.049a.31.31,0,0,0,.088-.163,7.268,7.268,0,0,0,0-.852.352.352,0,0,0-.138-.188C12.607,3.609,11,3.6,9.451,3.6l-1.656,0a1,1,0,0,0-.113.15c-.017.382-.017.77,0,1.153a.193.193,0,0,0,.088.138c.553.028,1.127.053,1.754.076.138.017.281.043.426.075a1.489,1.489,0,0,1,1,.689C9.9,5.9,8.834,5.92,7.77,5.949a.193.193,0,0,0-.088.138,8.612,8.612,0,0,0,0,.927.194.194,0,0,0,.138.138c.8.009,1.629.014,2.452.014h.806a1.543,1.543,0,0,1-.213.476,2.1,2.1,0,0,1-1.416.714c-.5.03-1,.047-1.5.05h0Z" transform="translate(5.748)" fill="#c2aaf6" opacity="0.9"/>
      <g id="Group_282934" data-name="Group 282934" transform="translate(0 16.362)" opacity="0.9">
        <path id="Path_581982" data-name="Path 581982" d="M3,285.553H.062a1.569,1.569,0,0,1-.562-.625v-13.8a1.348,1.348,0,0,1,.562-.593q1.468-.062,2.936,0a2.849,2.849,0,0,1,2.155,2.155q.106,2.668.094,5.34.012,2.673-.094,5.34A2.951,2.951,0,0,1,3,285.553Z" transform="translate(0.5 -270.5)" fill="#c2aaf6" fill-rule="evenodd" opacity="0.9"/>
      </g>
    </g>
  </g>
</svg>
