<svg xmlns="http://www.w3.org/2000/svg" xmlns:xlink="http://www.w3.org/1999/xlink" width="40" height="40" viewBox="0 0 40 40">
  <defs>
    <clipPath id="clip-path">
      <rect id="Rectangle_234650" data-name="Rectangle 234650" width="40" height="40" transform="translate(-2412 -281)" fill="#cab4f6"/>
    </clipPath>
  </defs>
  <g id="Mask_Group_266151" data-name="Mask Group 266151" transform="translate(2412 281)" clip-path="url(#clip-path)">
    <g id="Group_282966" data-name="Group 282966" transform="translate(-2410 -277)">
      <g id="scrum">
        <g id="Group_282962" data-name="Group 282962" transform="translate(25.082 0)">
          <path id="Path_582008" data-name="Path 582008" d="M357.755,42.46q4.9-.127,5.471,4.731a4.743,4.743,0,0,1-9.426.739Q353.532,43.544,357.755,42.46Zm2.144,2.957q.942-.076.7.813l-2.624,2.624a.6.6,0,0,1-.739-.074,4.879,4.879,0,0,1-1.035-1.22.735.735,0,0,1,.591-.591,2.93,2.93,0,0,1,.887.665Q358.829,46.56,359.9,45.417Z" transform="translate(-353.784 -42.456)" fill="#cab4f6" fill-rule="evenodd" opacity="0.971"/>
        </g>
        <g id="Group_282963" data-name="Group 282963" transform="translate(2.272 1.232)">
          <path id="Path_582009" data-name="Path 582009" d="M58.489,59.152a14.57,14.57,0,0,1,8.5,2.07,6.014,6.014,0,0,0,3.4,6.69,8.045,8.045,0,0,0,2.587.554,14.282,14.282,0,0,1-1.7,13.233q-3.622.148-7.245,0,5.946-3.732,4.546-10.645a9.348,9.348,0,1,0-17.89,5.4,9.648,9.648,0,0,0,5.877,5.877q.73.22,1.479.37,7.87.163,15.746.111a8.216,8.216,0,0,1,.074-1.552Q76.3,83.209,78.6,85.322l-4.731,4.066a9.009,9.009,0,0,1-.074-1.626q-7.836.019-15.672-.037A14.4,14.4,0,0,1,46.7,79.852a14.784,14.784,0,0,1-.887-10.5,14.265,14.265,0,0,1,9.721-9.647A20.833,20.833,0,0,1,58.489,59.152Z" transform="translate(-45.237 -59.124)" fill="#cab4f6" fill-rule="evenodd" opacity="0.981"/>
        </g>
        <g id="Group_282964" data-name="Group 282964" transform="translate(9.684 8.653)">
          <path id="Path_582010" data-name="Path 582010" d="M151.34,159.5h2.144q.111.63.259,1.257a.369.369,0,0,0,.185.259,5.25,5.25,0,0,1,1.331.554,10.98,10.98,0,0,0,1.035-.628.4.4,0,0,1,.37-.074,17.813,17.813,0,0,1,1.331,1.4,11.164,11.164,0,0,1-.739,1.294,6.22,6.22,0,0,1,.591,1.4,5.425,5.425,0,0,0,1.479.37v2.144q-.747.15-1.479.37a6.231,6.231,0,0,1-.591,1.4q.394.634.739,1.294a20.812,20.812,0,0,1-1.442,1.515q-.647-.434-1.331-.813a4.114,4.114,0,0,1-1.442.591l-.3,1.479H151.34q-.183-.732-.3-1.479a4.389,4.389,0,0,1-1.515-.591l-1.257.813-1.515-1.515.813-1.257a6.593,6.593,0,0,1-.628-1.442,12.367,12.367,0,0,0-1.442-.37V165.34q.742-.134,1.479-.3a4.813,4.813,0,0,1,.591-1.479q-.393-.656-.813-1.294a20.812,20.812,0,0,1,1.515-1.442q.66.346,1.294.739a6.218,6.218,0,0,1,1.4-.591A10.021,10.021,0,0,0,151.34,159.5Zm.591,4.436a3.078,3.078,0,0,0-1.663,1.183,2.505,2.505,0,1,0,4.583,1.848Q155,163.913,151.932,163.936Z" transform="translate(-145.5 -159.5)" fill="#cab4f6" fill-rule="evenodd" opacity="0.972"/>
        </g>
        <g id="Group_282965" data-name="Group 282965" transform="translate(0 24.907)">
          <path id="Path_582011" data-name="Path 582011" d="M14.5,379.384q2.219-.037,4.436.074a16.136,16.136,0,0,0,6.358,4.879q-5.4.111-10.793.074Z" transform="translate(-14.5 -379.375)" fill="#cab4f6" fill-rule="evenodd" opacity="0.956"/>
        </g>
      </g>
    </g>
  </g>
</svg>
