<svg xmlns="http://www.w3.org/2000/svg" xmlns:xlink="http://www.w3.org/1999/xlink" width="40" height="40" viewBox="0 0 40 40">
  <defs>
    <clipPath id="clip-path">
      <rect id="Rectangle_234646" data-name="Rectangle 234646" width="40" height="40" transform="translate(-2635.777 -265.777)" fill="#c8b2f6"/>
    </clipPath>
  </defs>
  <g id="Mask_Group_266147" data-name="Mask Group 266147" transform="translate(2635.777 265.776)" clip-path="url(#clip-path)">
    <g id="on-time" transform="translate(-2629.942 -260.628)">
      <g id="Group_282942" data-name="Group 282942" transform="translate(9.563 0)">
        <path id="Path_581988" data-name="Path 581988" d="M179.453,31.442q3.107-.016,6.214.033a1.041,1.041,0,0,1,.556.491,3.3,3.3,0,0,1,.065,1.243,1.034,1.034,0,0,1-1.079.72,5.963,5.963,0,0,1-.065,1.243,14.394,14.394,0,0,0-5.1-.065V33.927a1.041,1.041,0,0,1-1.21-.72A1.458,1.458,0,0,1,179.453,31.442Z" transform="translate(-178.75 -31.438)" fill="#c8b2f6" fill-rule="evenodd" opacity="0.977"/>
      </g>
      <g id="Group_282943" data-name="Group 282943" transform="translate(0 3.517)">
        <path id="Path_581989" data-name="Path 581989" d="M36.145,85.225a1.255,1.255,0,0,1,1.57,1.145,1.668,1.668,0,0,1-.327.752,7.883,7.883,0,0,0,.589.621,13.668,13.668,0,0,0-2.747,2.747.163.163,0,0,1-.2,0A5.546,5.546,0,0,0,34.51,90a1.15,1.15,0,0,1-1.733-1.5Q34.421,86.8,36.145,85.225Z" transform="translate(-32.551 -85.206)" fill="#c8b2f6" fill-rule="evenodd" opacity="0.957"/>
      </g>
      <path id="Subtraction_15" data-name="Subtraction 15" d="M12.435,24.881a13.521,13.521,0,0,1-2.559-.239,12.27,12.27,0,0,1-2.382-.716,12.574,12.574,0,0,1-2.206-1.193,14.471,14.471,0,0,1-2.029-1.671c-.322-.378-.625-.769-.9-1.161A13.914,13.914,0,0,1,1.607,18.7,13.006,13.006,0,0,1,1,17.446a12.512,12.512,0,0,1-.785-2.633A13.109,13.109,0,0,1,.037,13.43,14.072,14.072,0,0,1,.006,12c.014-.481.052-.976.114-1.471a16.238,16.238,0,0,1,.462-1.8,13.88,13.88,0,0,1,.642-1.64A12.38,12.38,0,0,1,2.045,5.61,11.552,11.552,0,0,1,4.228,3.117,12.383,12.383,0,0,1,5.59,2.106a13.884,13.884,0,0,1,1.541-.854,16.243,16.243,0,0,1,1.721-.7A15.125,15.125,0,0,1,10.512.181,14.727,14.727,0,0,1,12.188,0a16.323,16.323,0,0,1,1.763.148A14.186,14.186,0,0,1,15.606.48,12.807,12.807,0,0,1,17.154,1a11.994,11.994,0,0,1,2.772,1.586,12.674,12.674,0,0,1,1.224,1.07,13.963,13.963,0,0,1,1.117,1.254,15.99,15.99,0,0,1,1.009,1.439c.235.44.447.888.63,1.331a13.458,13.458,0,0,1,.473,1.341,12.507,12.507,0,0,1,.317,1.351,11.967,11.967,0,0,1,.164,2.731,12.546,12.546,0,0,1-.153,1.38,13.534,13.534,0,0,1-.31,1.39c-.129.463-.286.934-.466,1.4a15.442,15.442,0,0,1-.793,1.581,13.23,13.23,0,0,1-.93,1.4,11.826,11.826,0,0,1-1.066,1.217A11.078,11.078,0,0,1,18.6,23.356a11.9,11.9,0,0,1-1.476.671,13.359,13.359,0,0,1-1.613.489,15.636,15.636,0,0,1-1.75.307C13.312,24.862,12.867,24.881,12.435,24.881ZM12.2,4.62c-.238,0-.484.008-.731.024A8.417,8.417,0,0,0,7.413,6.378a7.951,7.951,0,0,0-2.78,7.163,7.646,7.646,0,0,0,6.116,6.639,10.126,10.126,0,0,0,1.74.158,7.919,7.919,0,0,0,6.273-3.068,8.288,8.288,0,0,0,.654-8.438A7.933,7.933,0,0,0,12.2,4.62ZM10.844,15.36h0a.579.579,0,0,1-.291-.087c-.877-.942-1.791-1.878-2.715-2.78a.727.727,0,0,1,.027-.612.384.384,0,0,1,.322-.127,1.348,1.348,0,0,1,.338.052c.794.783,1.586,1.586,2.355,2.387,1.806-1.481,3.655-3,5.495-4.513.043,0,.085-.005.123-.005a.552.552,0,0,1,.462.167A.638.638,0,0,1,17,10.4c-1.921,1.608-3.868,3.226-5.789,4.808A.553.553,0,0,1,10.844,15.36Z" transform="translate(0.956 4.387)" fill="#c8b2f6" opacity="0.978"/>
      <g id="Group_282945" data-name="Group 282945" transform="translate(25.379 22.502)">
        <path id="Path_581992" data-name="Path 581992" d="M420.8,375.441q1.636-.016,3.271.033a.591.591,0,0,1,0,.981q-1.635.066-3.271,0A.626.626,0,0,1,420.8,375.441Z" transform="translate(-420.541 -375.437)" fill="#c8b2f6" fill-rule="evenodd" opacity="0.966"/>
      </g>
      <g id="Group_282946" data-name="Group 282946" transform="translate(23.541 25.38)">
        <path id="Path_581993" data-name="Path 581993" d="M392.711,419.441q2.551-.016,5.1.033a.591.591,0,0,1,0,.981q-2.551.065-5.1,0a.453.453,0,0,1-.262-.491A.531.531,0,0,1,392.711,419.441Z" transform="translate(-392.446 -419.437)" fill="#c8b2f6" fill-rule="evenodd" opacity="0.978"/>
      </g>
      <g id="Group_282947" data-name="Group 282947" transform="translate(20.205 28.258)">
        <path id="Path_581994" data-name="Path 581994" d="M341.711,463.441q4.219-.016,8.438.033a.591.591,0,0,1,0,.981q-4.219.065-8.438,0a.453.453,0,0,1-.262-.491A.531.531,0,0,1,341.711,463.441Z" transform="translate(-341.446 -463.437)" fill="#c8b2f6" fill-rule="evenodd" opacity="0.986"/>
      </g>
    </g>
  </g>
</svg>
